<?xml version="1.0" encoding="UTF-8"?>
<!DOCTYPE svg PUBLIC "-//W3C//DTD SVG 1.1//EN" "http://www.w3.org/Graphics/SVG/1.1/DTD/svg11.dtd">
<!-- Creator: CorelDRAW -->
<svg xmlns="http://www.w3.org/2000/svg" xml:space="preserve" width="210mm" height="297mm" version="1.1" style="shape-rendering:geometricPrecision; text-rendering:geometricPrecision; image-rendering:optimizeQuality; fill-rule:evenodd; clip-rule:evenodd"
viewBox="0 0 21000 29700"
 xmlns:xlink="http://www.w3.org/1999/xlink"
 xmlns:xodm="http://www.corel.com/coreldraw/odm/2003">
 <defs>
  <style type="text/css">
   <![CDATA[
    .fil0 {fill:#FEFEFE}
    .fil3 {fill:#009846}
    .fil4 {fill:#009846}
    .fil1 {fill:#FEFEFE;fill-rule:nonzero}
    .fil2 {fill:#009846;fill-rule:nonzero}
   ]]>
  </style>
 </defs>
 <g id="Layer_x0020_1">
  <metadata id="CorelCorpID_0Corel-Layer"/>
  <g id="_2448009104304">
   <path class="fil0" d="M7758.3 14440.43l-4640.36 220.06c638.47,387.78 1256.53,812.47 1926.02,1242.27 239.01,153.44 1839.19,1162.76 1920.69,1261.61l-1234.92 4322.09c98.67,-101.46 3110.66,-3423.28 3265,-3668.93 -116.87,49.03 -585.65,440.79 -729.17,548.04 -123.75,92.46 -638.49,534.05 -778.84,560.31 71.39,-355.4 621.1,-2016.62 581.76,-2171.6 -31.41,-92.3 -370.37,-270.83 -459.58,-328.4 -246.64,-159.18 -1399.08,-874.89 -1438.59,-956.41 119.07,-40.74 2123.15,-110.92 2325.94,-106.33l642.1 -2210.66c54.27,40.96 370.81,917.66 427.21,1064.87 55.19,144.02 362.32,998.08 431.95,1074.77l3749.65 -1074.51 -3107.93 97.55c-352.38,-1063.26 -975.76,-2527.59 -1400.27,-3667.06 -47.92,-128.62 -141.67,-453.8 -229.39,-519.27l-1251.27 4311.6z"/>
   <g>
    <path class="fil1" d="M12221.84 15919.9l103.48 130.4 0 0 -10.23 7.85 -9.87 7.98 -9.47 8.09 -9.13 8.23 -8.74 8.34 -8.38 8.46 -8.03 8.6 -7.68 8.72 -7.35 8.85 -6.99 8.98 -6.69 9.14 -6.35 9.25 -6.03 9.42 -5.73 9.57 -5.39 9.7 -5.09 9.88 -4.82 10.08 -4.49 10.23 -4.18 10.39 -3.89 10.61 -3.6 10.83 -3.29 11.02 -2.99 11.21 -2.69 11.41 -2.37 11.66 -2.09 11.92 -1.76 12.11 -1.46 12.36 -1.13 12.59 -0.82 12.84 -0.49 13.08 -0.17 13.33 -169.64 0 0.21 -17.31 0.65 -17.16 1.08 -17.02 1.53 -16.85 1.96 -16.7 2.42 -16.55 2.85 -16.34 3.31 -16.2 3.77 -16.07 4.23 -15.85 4.69 -15.66 5.14 -15.45 5.59 -15.27 6.08 -15.11 6.53 -14.85 6.96 -14.62 7.43 -14.42 7.91 -14.2 8.33 -13.93 8.77 -13.68 9.23 -13.47 9.65 -13.18 10.09 -12.94 10.51 -12.67 10.92 -12.4 11.35 -12.14 11.74 -11.86 12.16 -11.6 12.53 -11.31 12.93 -11.05 13.31 -10.76 13.69 -10.51 0 0zm0 0c37.11,-27.71 90.38,-20.99 118.95,15.01 28.57,36 21.64,87.68 -15.47,115.39l-103.48 -130.4zm606.24 -162.3l0 164.56 0 0 -21.22 0.13 -20.86 0.41 -20.52 0.67 -20.15 0.93 -19.78 1.2 -19.46 1.47 -19.07 1.72 -18.7 1.98 -18.38 2.24 -17.99 2.49 -17.62 2.75 -17.28 3 -16.9 3.25 -16.57 3.5 -16.19 3.74 -15.82 3.98 -15.5 4.22 -15.11 4.45 -14.76 4.69 -14.43 4.93 -14.05 5.14 -13.71 5.38 -13.36 5.6 -13.01 5.82 -12.7 6.06 -12.34 6.25 -12 6.48 -11.71 6.71 -11.36 6.91 -11.04 7.12 -10.75 7.37 -10.42 7.55 -103.48 -130.4 14.22 -10.31 14.53 -9.93 14.88 -9.62 15.22 -9.25 15.51 -8.89 15.86 -8.56 16.18 -8.21 16.46 -7.84 16.79 -7.52 17.1 -7.16 17.39 -6.82 17.69 -6.48 17.97 -6.13 18.28 -5.81 18.57 -5.47 18.84 -5.14 19.14 -4.82 19.45 -4.48 19.69 -4.16 20.02 -3.85 20.3 -3.52 20.58 -3.21 20.87 -2.89 21.14 -2.58 21.44 -2.28 21.73 -1.96 22 -1.65 22.3 -1.36 22.59 -1.05 22.86 -0.75 23.18 -0.45 23.46 -0.15 0 0zm0 0c46.84,0 84.82,36.84 84.82,82.28 0,45.44 -37.98,82.28 -84.82,82.28l0 -164.56zm538.06 141.62l-169.64 0 57.96 78.04 -10.45 -3.31 -10.59 -3.2 -10.82 -3.1 -11.02 -3.03 -11.16 -2.92 -11.35 -2.81 -11.55 -2.72 -11.76 -2.62 -11.94 -2.52 -12.12 -2.42 -12.31 -2.32 -12.5 -2.22 -12.66 -2.11 -12.87 -2 -13.06 -1.91 -13.25 -1.79 -13.44 -1.7 -13.6 -1.59 -13.81 -1.48 -13.96 -1.38 -14.18 -1.26 -14.35 -1.16 -14.52 -1.04 -14.72 -0.94 -14.92 -0.83 -15.09 -0.72 -15.28 -0.61 -15.46 -0.5 -15.64 -0.39 -15.81 -0.28 -16 -0.17 -16.19 -0.05 0 -164.56 17.39 0.07 17.24 0.17 17.11 0.3 16.92 0.43 16.76 0.54 16.62 0.67 16.45 0.78 16.3 0.91 16.14 1.02 16.02 1.16 15.83 1.28 15.68 1.4 15.56 1.52 15.37 1.66 15.22 1.77 15.06 1.9 14.91 2.03 14.76 2.15 14.61 2.28 14.48 2.41 14.3 2.54 14.15 2.66 14 2.8 13.84 2.92 13.7 3.06 13.55 3.18 13.41 3.33 13.28 3.46 13.06 3.59 12.94 3.72 12.81 3.88 12.63 3.99 57.96 78.04zm-57.96 -78.04c44.43,14.39 68.42,61 53.59,104.1 -14.83,43.1 -62.88,66.37 -107.31,51.98l53.72 -156.08zm-111.68 521.5l0 -443.46 169.64 0 0 443.46 -115.22 76.81 -54.42 -76.81zm169.64 0c0,45.44 -37.98,82.28 -84.82,82.28 -46.84,0 -84.82,-36.84 -84.82,-82.28l169.64 0zm-470.56 10.45l0 -164.56 0 0 13.07 0.08 13.07 0.23 13.06 0.38 13.08 0.53 13.06 0.68 13.1 0.84 13.06 0.99 13.03 1.14 13.05 1.29 13.08 1.44 13.05 1.6 13 1.74 13.08 1.9 13.03 2.05 13.03 2.2 13.02 2.35 13 2.49 13.01 2.66 13 2.79 13 2.95 12.98 3.1 13.01 3.26 12.93 3.39 12.97 3.53 12.98 3.71 12.93 3.84 12.91 3.98 12.92 4.13 12.95 4.3 12.9 4.43 12.9 4.58 12.88 4.72 -60.8 153.62 -11.22 -4.12 -11.22 -3.98 -11.2 -3.85 -11.17 -3.7 -11.18 -3.57 -11.21 -3.46 -11.17 -3.32 -11.12 -3.17 -11.15 -3.05 -11.17 -2.93 -11.11 -2.78 -11.12 -2.64 -11.12 -2.53 -11.1 -2.39 -11.11 -2.26 -11.1 -2.13 -11.08 -2.01 -11.09 -1.86 -11.07 -1.75 -11.04 -1.6 -11.1 -1.48 -11.07 -1.36 -11.02 -1.22 -11.05 -1.09 -11.09 -0.96 -11.04 -0.85 -11.02 -0.7 -11.04 -0.58 -11.04 -0.45 -11.04 -0.32 -11.05 -0.19 -11.03 -0.06 0 0zm0 0c-46.84,0 -84.82,-36.84 -84.82,-82.28 0,-45.44 37.98,-82.28 84.82,-82.28l0 164.56zm-213.26 29.86l-94.22 -136.84 0.02 -0.01 7.22 -4.48 7.34 -4.16 7.46 -3.89 7.59 -3.63 7.63 -3.37 7.89 -3.22 8.06 -3.01 8.04 -2.78 8.24 -2.63 8.38 -2.45 8.52 -2.31 8.76 -2.18 8.83 -2.02 8.94 -1.88 9.19 -1.77 9.39 -1.65 9.52 -1.52 9.71 -1.42 9.89 -1.3 10.07 -1.2 10.27 -1.09 10.47 -0.99 10.67 -0.89 10.86 -0.79 11.12 -0.7 11.27 -0.59 11.45 -0.51 11.7 -0.41 11.95 -0.32 12.12 -0.23 12.35 -0.13 12.56 -0.05 0 164.56 -11.3 0.03 -11.03 0.13 -10.76 0.19 -10.45 0.28 -10.2 0.37 -9.97 0.43 -9.65 0.51 -9.32 0.58 -9.08 0.67 -8.79 0.73 -8.49 0.81 -8.21 0.87 -7.91 0.94 -7.61 1 -7.31 1.06 -6.98 1.12 -6.65 1.17 -6.35 1.23 -6.1 1.28 -5.73 1.3 -5.32 1.32 -5.04 1.37 -4.72 1.39 -4.36 1.39 -4.08 1.4 -3.56 1.33 -3.23 1.32 -3.01 1.33 -2.57 1.23 -2.2 1.15 -1.84 1.04 -1.46 0.9 0.02 -0.01zm-0.02 0.01c-38.96,25.22 -91.64,15.03 -117.64,-22.76 -26,-37.79 -15.5,-88.88 23.46,-114.1l94.18 136.86zm-29.77 50.25l-169.64 0 0 0 0.1 -6.89 0.29 -6.9 0.51 -6.97 0.71 -6.95 0.93 -6.85 1.13 -6.82 1.38 -6.88 1.59 -6.77 1.8 -6.7 2.05 -6.73 2.27 -6.61 2.46 -6.48 2.74 -6.52 2.94 -6.37 3.17 -6.32 3.36 -6.13 3.58 -6.07 3.81 -5.96 3.96 -5.78 4.15 -5.63 4.33 -5.51 4.58 -5.46 4.68 -5.22 4.84 -5.08 5.03 -4.97 5.17 -4.82 5.32 -4.66 5.39 -4.47 5.59 -4.39 5.65 -4.18 5.77 -4.06 5.93 -3.95 94.22 136.84 -2.37 1.57 -2.27 1.6 -2.13 1.58 -1.93 1.51 -1.87 1.55 -1.66 1.46 -1.55 1.44 -1.43 1.41 -1.36 1.44 -1.26 1.4 -1.08 1.28 -1.07 1.37 -0.99 1.35 -0.92 1.34 -0.81 1.26 -0.76 1.29 -0.74 1.35 -0.65 1.28 -0.62 1.35 -0.56 1.34 -0.56 1.48 -0.51 1.47 -0.45 1.49 -0.44 1.62 -0.39 1.69 -0.34 1.7 -0.31 1.88 -0.27 1.97 -0.21 1.99 -0.15 2.09 -0.09 2.3 -0.04 2.41 0 0zm0 0c0,45.44 -37.98,82.28 -84.82,82.28 -46.84,0 -84.82,-36.84 -84.82,-82.28l169.64 0zm-169.64 1027.46l0 -1027.46 169.64 0 0 1027.46 0 0 -169.64 0zm169.64 0c0,45.44 -37.98,82.28 -84.82,82.28 -46.84,0 -84.82,-36.84 -84.82,-82.28l169.64 0zm17.75 50.82l-108.7 126.34 0 -0.01 -4.88 -4.06 -4.75 -4.22 -4.64 -4.36 -4.49 -4.5 -4.3 -4.58 -4.22 -4.76 -4.1 -4.95 -3.85 -4.96 -3.74 -5.12 -3.6 -5.29 -3.32 -5.21 -3.24 -5.42 -3.11 -5.65 -2.81 -5.47 -2.67 -5.58 -2.56 -5.78 -2.39 -5.9 -2.16 -5.82 -1.98 -5.82 -1.85 -5.98 -1.67 -6 -1.49 -5.92 -1.36 -6.07 -1.21 -6.21 -1.02 -6.04 -0.9 -6.15 -0.73 -6.18 -0.6 -6.11 -0.47 -6.31 -0.32 -6.25 -0.19 -6.19 -0.07 -6.29 169.64 0 0.03 3.01 0.09 2.97 0.14 2.77 0.19 2.55 0.26 2.63 0.29 2.42 0.34 2.31 0.38 2.28 0.39 1.97 0.44 1.95 0.49 1.98 0.49 1.76 0.51 1.64 0.56 1.64 0.56 1.52 0.53 1.3 0.56 1.28 0.63 1.32 0.67 1.31 0.55 0.99 0.64 1.06 0.72 1.15 0.64 0.93 0.68 0.94 0.77 0.98 0.7 0.85 0.78 0.88 0.88 0.94 0.87 0.86 0.92 0.88 0.99 0.86 1.06 0.9 0 -0.01zm0 0.01c35.96,29.11 40.78,81 10.77,115.88 -30.01,34.88 -83.51,39.55 -119.47,10.44l108.7 -126.32zm88.69 19.91l0 164.56 0 0 -7 -0.05 -6.95 -0.13 -6.97 -0.24 -6.85 -0.33 -6.78 -0.41 -6.82 -0.53 -6.68 -0.63 -6.63 -0.72 -6.59 -0.83 -6.53 -0.93 -6.57 -1.06 -6.43 -1.16 -6.39 -1.26 -6.42 -1.41 -6.31 -1.52 -6.22 -1.63 -6.19 -1.76 -6.15 -1.89 -6.16 -2.05 -6.02 -2.16 -5.95 -2.29 -5.9 -2.43 -5.83 -2.57 -5.84 -2.76 -5.81 -2.94 -5.6 -3.03 -5.45 -3.13 -5.48 -3.35 -5.41 -3.52 -5.31 -3.69 -5.12 -3.79 -5.03 -3.94 108.7 -126.34 1.09 0.86 1.18 0.87 1.17 0.81 1.25 0.82 1.36 0.83 1.59 0.91 1.6 0.87 1.59 0.8 1.74 0.82 1.93 0.85 2.04 0.85 2.17 0.83 2.28 0.82 2.32 0.77 2.51 0.77 2.67 0.76 2.8 0.73 2.91 0.7 2.98 0.65 3.19 0.64 3.33 0.6 3.37 0.54 3.59 0.51 3.71 0.47 3.87 0.42 3.98 0.37 4.04 0.31 4.24 0.27 4.37 0.21 4.43 0.14 4.63 0.09 4.76 0.03 0 0zm0 0c46.84,0 84.82,36.84 84.82,82.28 0,45.44 -37.98,82.28 -84.82,82.28l0 -164.56zm61.44 57.3l169.64 0 -46.85 73.57 -5.04 2.38 -5.07 2.25 -5.02 2.11 -5.02 1.99 -5.21 1.95 -5.39 1.89 -5.21 1.72 -5.32 1.65 -5.39 1.57 -5.37 1.47 -5.49 1.4 -5.51 1.32 -5.58 1.24 -5.53 1.14 -5.67 1.1 -5.73 1.01 -5.68 0.94 -5.83 0.88 -5.88 0.81 -5.93 0.74 -5.98 0.68 -6.04 0.61 -6.01 0.54 -6.15 0.5 -6.2 0.42 -6.19 0.37 -6.33 0.31 -6.38 0.25 -6.45 0.2 -6.43 0.13 -6.57 0.09 -6.63 0.03 0 -164.56 5.13 -0.01 5.03 -0.07 5.01 -0.11 4.81 -0.14 4.7 -0.19 4.61 -0.23 4.55 -0.27 4.38 -0.3 4.27 -0.34 4.23 -0.38 4.04 -0.41 3.92 -0.44 3.81 -0.48 3.68 -0.51 3.57 -0.54 3.54 -0.58 3.33 -0.59 3.21 -0.62 3.19 -0.66 2.96 -0.66 2.87 -0.68 2.73 -0.7 2.67 -0.73 2.47 -0.71 2.38 -0.75 2.33 -0.76 1.97 -0.69 1.97 -0.75 2 -0.79 1.84 -0.77 1.61 -0.71 1.48 -0.7 -46.85 73.57zm46.85 -73.57c41.89,-20.34 92.85,-3.89 113.82,36.74 20.97,40.63 4.01,90.06 -37.88,110.4l-75.94 -147.14zm122.79 -657.21l0 730.78 -169.64 0 0 -730.78 84.82 -82.28 84.82 82.28zm-169.64 0c0,-45.44 37.98,-82.28 84.82,-82.28 46.84,0 84.82,36.84 84.82,82.28l-169.64 0zm554.13 82.28l-469.31 0 0 -164.56 469.31 0 84.82 82.28 -84.82 82.28zm0 -164.56c46.84,0 84.82,36.84 84.82,82.28 0,45.44 -37.98,82.28 -84.82,82.28l0 -164.56zm-84.82 1128.48l0 -1046.2 169.64 0 0 1046.2 -44.56 72.42 -125.08 -72.42zm169.64 0c0,45.44 -37.98,82.28 -84.82,82.28 -46.84,0 -84.82,-36.84 -84.82,-82.28l169.64 0zm-679.5 213.44l0 -164.56 0 0 20.36 -0.12 20.16 -0.36 19.94 -0.61 19.76 -0.85 19.57 -1.09 19.34 -1.33 19.16 -1.57 18.99 -1.81 18.74 -2.04 18.55 -2.29 18.4 -2.53 18.15 -2.75 17.98 -3 17.78 -3.22 17.57 -3.47 17.38 -3.7 17.2 -3.93 17.01 -4.16 16.82 -4.4 16.6 -4.61 16.43 -4.87 16.24 -5.08 16.04 -5.32 15.9 -5.56 15.66 -5.76 15.5 -6.01 15.32 -6.23 15.12 -6.47 14.96 -6.7 14.78 -6.92 14.59 -7.15 14.42 -7.39 80.52 144.84 -17.1 8.75 -17.29 8.47 -17.48 8.2 -17.66 7.9 -17.86 7.63 -18.02 7.33 -18.2 7.07 -18.42 6.78 -18.54 6.48 -18.76 6.22 -18.92 5.92 -19.09 5.65 -19.3 5.37 -19.44 5.08 -19.61 4.8 -19.78 4.53 -19.96 4.24 -20.15 3.97 -20.3 3.68 -20.46 3.42 -20.65 3.13 -20.78 2.85 -20.99 2.59 -21.16 2.3 -21.27 2.03 -21.46 1.77 -21.66 1.49 -21.79 1.21 -21.96 0.95 -22.14 0.67 -22.28 0.4 -22.46 0.14 0 0zm0 0c-46.84,0 -84.82,-36.84 -84.82,-82.28 0,-45.44 37.98,-82.28 84.82,-82.28l0 164.56zm-575.08 -155.25l105.48 -128.88 0.01 0.01 9.34 6.98 9.69 6.82 9.95 6.59 10.29 6.4 10.61 6.22 10.93 6.01 11.28 5.82 11.65 5.65 11.91 5.41 12.3 5.21 12.7 5.04 13 4.82 13.32 4.58 13.75 4.4 14.08 4.18 14.44 3.95 14.8 3.74 15.15 3.51 15.55 3.28 15.88 3.06 16.25 2.81 16.63 2.59 16.98 2.35 17.36 2.11 17.71 1.88 18.05 1.62 18.43 1.38 18.78 1.13 19.18 0.88 19.51 0.63 19.87 0.39 20.22 0.12 0 164.56 -22.44 -0.14 -22.17 -0.43 -21.85 -0.71 -21.56 -1 -21.3 -1.27 -21.01 -1.58 -20.73 -1.86 -20.43 -2.16 -20.14 -2.45 -19.88 -2.75 -19.57 -3.05 -19.31 -3.35 -19.02 -3.66 -18.71 -3.96 -18.47 -4.27 -18.16 -4.58 -17.9 -4.91 -17.58 -5.22 -17.29 -5.52 -17.06 -5.88 -16.74 -6.2 -16.38 -6.5 -16.16 -6.85 -15.87 -7.21 -15.51 -7.51 -15.22 -7.86 -14.93 -8.21 -14.59 -8.54 -14.29 -8.9 -13.95 -9.25 -13.59 -9.56 -13.28 -9.92 0.01 0.01zm-0.01 -0.01c-36.68,-28.26 -42.8,-80.02 -13.67,-115.6 29.13,-35.58 82.49,-41.52 119.17,-13.26l-105.5 128.86zm-210.48 -451.68l169.64 0 0 0 0.15 13.7 0.47 13.41 0.76 13.19 1.05 12.88 1.36 12.65 1.64 12.36 1.94 12.1 2.21 11.85 2.5 11.6 2.77 11.33 3.05 11.09 3.33 10.88 3.59 10.61 3.86 10.38 4.15 10.2 4.39 9.95 4.66 9.72 4.94 9.53 5.22 9.35 5.5 9.17 5.74 8.94 6.05 8.78 6.34 8.64 6.63 8.45 6.9 8.29 7.21 8.12 7.51 7.97 7.83 7.82 8.18 7.7 8.46 7.53 8.79 7.38 9.15 7.24 -105.48 128.88 -12.81 -10.16 -12.45 -10.44 -12.1 -10.75 -11.68 -11.02 -11.35 -11.32 -10.95 -11.63 -10.57 -11.9 -10.16 -12.19 -9.75 -12.45 -9.34 -12.72 -8.95 -13 -8.54 -13.3 -8.08 -13.49 -7.68 -13.75 -7.26 -14.01 -6.84 -14.26 -6.41 -14.49 -5.95 -14.66 -5.56 -14.92 -5.11 -15.13 -4.69 -15.3 -4.27 -15.53 -3.85 -15.73 -3.42 -15.9 -3.01 -16.07 -2.6 -16.28 -2.18 -16.46 -1.78 -16.61 -1.39 -16.8 -0.98 -16.95 -0.59 -17.15 -0.19 -17.32 0 0zm0 0c0,-45.44 37.98,-82.28 84.82,-82.28 46.84,0 84.82,36.84 84.82,82.28l-169.64 0zm169.64 -1133.64l0 1133.64 -169.64 0 0 -1133.64 0 0 169.64 0zm-169.64 0c0,-45.44 37.98,-82.28 84.82,-82.28 46.84,0 84.82,36.84 84.82,82.28l-169.64 0zm2018.67 1642.69l0 -780.74 169.64 0 0 780.74 -84.82 82.28 -84.82 -82.28zm169.64 0c0,45.44 -37.98,82.28 -84.82,82.28 -46.84,0 -84.82,-36.84 -84.82,-82.28l169.64 0zm-566.99 -82.28l482.17 0 0 164.56 -482.17 0 -84.82 -82.28 84.82 -82.28zm0 164.56c-46.84,0 -84.82,-36.84 -84.82,-82.28 0,-45.44 37.98,-82.28 84.82,-82.28l0 164.56zm84.82 -2246.51l0 2164.23 -169.64 0 0 -2164.23 84.82 -82.28 84.82 82.28zm-169.64 0c0,-45.44 37.98,-82.28 84.82,-82.28 46.84,0 84.82,36.84 84.82,82.28l-169.64 0zm811.3 82.28l-726.48 0 0 -164.56 726.48 0 0 0 0 164.56zm0 -164.56c46.84,0 84.82,36.84 84.82,82.28 0,45.44 -37.98,82.28 -84.82,82.28l0 -164.56zm466.34 141.37l-109.8 125.42 -0.01 0 -7.56 -6.06 -7.75 -5.87 -7.95 -5.69 -8.14 -5.5 -8.35 -5.33 -8.59 -5.16 -8.79 -4.98 -9 -4.8 -9.22 -4.62 -9.47 -4.44 -9.7 -4.27 -9.93 -4.09 -10.18 -3.92 -10.42 -3.72 -10.67 -3.55 -10.94 -3.37 -11.16 -3.18 -11.41 -2.98 -11.67 -2.79 -11.96 -2.6 -12.21 -2.42 -12.45 -2.2 -12.71 -2.01 -12.97 -1.8 -13.26 -1.6 -13.53 -1.39 -13.76 -1.19 -14.01 -0.97 -14.3 -0.75 -14.56 -0.54 -14.84 -0.33 -15.07 -0.11 0 -164.56 17.65 0.13 17.44 0.39 17.24 0.64 17.08 0.91 16.89 1.17 16.7 1.43 16.49 1.71 16.3 1.96 16.13 2.24 15.95 2.51 15.75 2.8 15.53 3.06 15.34 3.34 15.17 3.63 14.99 3.92 14.78 4.2 14.56 4.49 14.35 4.77 14.18 5.08 13.94 5.36 13.75 5.65 13.54 5.97 13.31 6.26 13.1 6.56 12.88 6.86 12.63 7.16 12.37 7.44 12.17 7.75 11.92 8.06 11.67 8.35 11.41 8.65 11.14 8.92 -0.01 0zm0.01 0c35.7,29.41 40.06,81.34 9.74,115.97 -30.32,34.63 -83.86,38.86 -119.56,9.45l109.82 -125.42zm177.78 418.73l-169.64 0 0 0 -0.12 -12.93 -0.39 -12.65 -0.64 -12.42 -0.88 -12.12 -1.13 -11.86 -1.37 -11.59 -1.62 -11.35 -1.84 -11.07 -2.08 -10.8 -2.3 -10.56 -2.53 -10.29 -2.75 -10.04 -2.97 -9.78 -3.18 -9.54 -3.4 -9.29 -3.63 -9.09 -3.81 -8.82 -4.03 -8.61 -4.25 -8.4 -4.45 -8.19 -4.65 -7.97 -4.87 -7.78 -5.07 -7.56 -5.31 -7.4 -5.51 -7.23 -5.75 -7.04 -5.97 -6.89 -6.2 -6.71 -6.45 -6.57 -6.68 -6.41 -6.91 -6.23 -7.21 -6.12 109.8 -125.42 10.99 9.32 10.71 9.65 10.36 9.93 10.01 10.19 9.68 10.49 9.33 10.75 8.99 11.04 8.63 11.29 8.27 11.54 7.93 11.84 7.55 12.06 7.19 12.31 6.81 12.53 6.43 12.74 6.09 12.99 5.71 13.2 5.33 13.39 4.98 13.61 4.62 13.82 4.25 14 3.89 14.2 3.53 14.37 3.18 14.54 2.84 14.74 2.48 14.93 2.14 15.07 1.81 15.27 1.47 15.44 1.14 15.62 0.8 15.76 0.49 15.97 0.16 16.13 0 0zm0 0c0,45.44 -37.98,82.28 -84.82,82.28 -46.84,0 -84.82,-36.84 -84.82,-82.28l169.64 0zm-169.64 399.74l0 -399.74 169.64 0 0 399.74 0 0 -169.64 0zm169.64 0c0,45.44 -37.98,82.28 -84.82,82.28 -46.84,0 -84.82,-36.84 -84.82,-82.28l169.64 0zm-270.08 436.89l-156.66 63.12 49.15 -108.81 12.97 -4.91 12.41 -5.27 11.89 -5.67 11.37 -6.01 10.84 -6.38 10.42 -6.78 9.95 -7.15 9.55 -7.54 9.11 -7.92 8.73 -8.35 8.38 -8.8 8.02 -9.25 7.7 -9.76 7.37 -10.26 7.01 -10.74 6.69 -11.33 6.38 -11.91 6.02 -12.46 5.66 -13.06 5.32 -13.7 4.96 -14.31 4.57 -14.94 4.18 -15.55 3.78 -16.25 3.38 -16.85 2.94 -17.5 2.52 -18.17 2.08 -18.79 1.63 -19.44 1.17 -20.08 0.71 -20.72 0.24 -21.35 169.64 0 -0.28 24.95 -0.83 24.48 -1.41 24.02 -1.97 23.56 -2.56 23.11 -3.14 22.63 -3.74 22.22 -4.36 21.75 -4.96 21.27 -5.6 20.87 -6.25 20.38 -6.88 19.89 -7.54 19.42 -8.24 18.98 -8.92 18.46 -9.58 17.91 -10.29 17.41 -11.01 16.88 -11.69 16.28 -12.38 15.68 -13.08 15.09 -13.76 14.44 -14.43 13.79 -15.09 13.12 -15.69 12.4 -16.29 11.69 -16.88 10.98 -17.46 10.28 -17.99 9.53 -18.47 8.79 -18.99 8.09 -19.47 7.35 49.15 -108.81zm-49.15 108.81c-43.98,15.63 -92.71,-6.28 -108.82,-48.94 -16.11,-42.66 6.48,-89.93 50.46,-105.56l58.36 154.5zm242.87 772.53l-350.38 -818.22 156.66 -63.12 350.38 818.22 -78.33 113.84 -78.33 -50.72zm156.66 -63.12c17.97,41.96 -2.53,90.11 -45.79,107.54 -43.26,17.43 -92.9,-2.46 -110.87,-44.42l156.66 -63.12zm-608.72 -50.72l530.39 0 0 164.56 -530.39 0 -79.51 -53.63 79.51 -110.93zm0 164.56c-46.84,0 -84.82,-36.84 -84.82,-82.28 0,-45.44 37.98,-82.28 84.82,-82.28l0 164.56zm-219.43 -891.67l298.94 780.74 -159.02 57.3 -298.94 -780.74 79.51 -110.93 79.51 53.63zm-159.02 57.3c-16.3,-42.59 6.07,-89.96 49.98,-105.78 43.91,-15.82 92.74,5.89 109.04,48.48l-159.02 57.3zm18.43 -110.93l61.08 0 0 164.56 -61.08 0 -84.82 -82.28 84.82 -82.28zm0 164.56c-46.84,0 -84.82,-36.84 -84.82,-82.28 0,-45.44 37.98,-82.28 84.82,-82.28l0 164.56zm-84.82 -453.92l0 -612.1 169.64 0 0 612.1 -84.82 82.28 -84.82 -82.28zm169.64 0c0,45.44 -37.98,82.28 -84.82,82.28 -46.84,0 -84.82,-36.84 -84.82,-82.28l169.64 0zm104.84 82.28l-189.66 0 0 -164.56 189.66 0 0 0 0 164.56zm0 -164.56c46.84,0 84.82,36.84 84.82,82.28 0,45.44 -37.98,82.28 -84.82,82.28l0 -164.56zm39.77 -3.95l126.18 110 0 0 -4.13 4.28 -4.32 4.14 -4.45 3.94 -4.5 3.7 -4.7 3.59 -4.79 3.37 -4.87 3.19 -4.94 2.98 -4.95 2.78 -5.11 2.66 -5.11 2.45 -5.15 2.29 -5.14 2.1 -5.17 1.95 -5.36 1.86 -5.27 1.67 -5.29 1.54 -5.29 1.39 -5.3 1.28 -5.47 1.18 -5.38 1.04 -5.4 0.94 -5.42 0.83 -5.44 0.73 -5.59 0.65 -5.51 0.53 -5.54 0.45 -5.57 0.36 -5.62 0.29 -5.75 0.19 -5.68 0.12 -5.74 0.04 0 -164.56 3.42 -0.02 3.28 -0.06 3.05 -0.11 3.02 -0.15 2.87 -0.18 2.74 -0.23 2.59 -0.25 2.33 -0.27 2.3 -0.31 2.16 -0.33 2 -0.34 1.84 -0.36 1.57 -0.34 1.56 -0.38 1.41 -0.37 1.23 -0.36 1.07 -0.33 0.8 -0.28 0.81 -0.31 0.68 -0.28 0.49 -0.21 0.35 -0.17 0.17 -0.08 0.17 -0.1 0 0 -0.11 0.07 -0.21 0.15 -0.3 0.23 -0.26 0.22 -0.39 0.34 -0.44 0.42 -0.43 0.44 0 0zm0 0c31.31,-33.79 84.95,-36.56 119.79,-6.19 34.84,30.37 37.7,82.4 6.39,116.19l-126.18 -110zm7.2 -54.3l169.64 0 0 0 -0.04 5.75 -0.09 5.7 -0.17 5.72 -0.25 5.69 -0.33 5.53 -0.38 5.39 -0.46 5.54 -0.57 5.5 -0.61 5.26 -0.72 5.41 -0.82 5.37 -0.87 5.15 -1 5.3 -1.11 5.27 -1.17 5.05 -1.28 5.11 -1.43 5.18 -1.56 5.15 -1.66 5.06 -1.78 4.99 -1.91 4.96 -2.07 4.98 -2.26 5.01 -2.42 4.97 -2.57 4.89 -2.65 4.67 -2.94 4.84 -3.19 4.84 -3.27 4.6 -3.47 4.53 -3.65 4.44 -3.96 4.45 -126.18 -110 -0.4 0.45 -0.21 0.26 -0.13 0.17 -0.05 0.06 -0.07 0.12 0.04 -0.08 0.23 -0.41 0.21 -0.39 0.24 -0.49 0.28 -0.63 0.35 -0.84 0.41 -1.06 0.42 -1.19 0.44 -1.32 0.42 -1.41 0.43 -1.56 0.46 -1.81 0.47 -2.05 0.43 -2.03 0.4 -2.16 0.43 -2.51 0.38 -2.47 0.34 -2.61 0.35 -2.94 0.29 -2.88 0.26 -3.04 0.24 -3.37 0.19 -3.39 0.15 -3.43 0.11 -3.58 0.07 -3.8 0.02 -3.91 0 0zm0 0c0,-45.44 37.98,-82.28 84.82,-82.28 46.84,0 84.82,36.84 84.82,82.28l-169.64 0zm169.64 -352.9l0 352.9 -169.64 0 0 -352.9 0 0 169.64 0zm-169.64 0c0,-45.44 37.98,-82.28 84.82,-82.28 46.84,0 84.82,36.84 84.82,82.28l-169.64 0zm-0.37 -29.49l106.1 -128.4 0 0 4.67 3.79 4.64 4.09 4.26 4.11 4.08 4.23 3.95 4.46 3.68 4.49 3.51 4.64 3.26 4.66 3.12 4.83 2.95 4.97 2.62 4.77 2.54 5 2.34 5.03 2.11 4.94 1.97 5.02 1.84 5.12 1.67 5.09 1.51 5.06 1.39 5.17 1.25 5.15 1.11 5.1 0.99 5.11 0.9 5.23 0.79 5.27 0.66 5.16 0.57 5.18 0.49 5.34 0.38 5.35 0.3 5.37 0.19 5.32 0.13 5.36 0.04 5.48 -169.64 0 -0.02 -3.02 -0.07 -2.98 -0.11 -2.84 -0.14 -2.61 -0.18 -2.47 -0.21 -2.32 -0.25 -2.28 -0.28 -2.16 -0.27 -1.87 -0.3 -1.73 -0.33 -1.69 -0.33 -1.52 -0.31 -1.29 -0.31 -1.13 -0.31 -1.04 -0.27 -0.85 -0.24 -0.66 -0.23 -0.58 -0.21 -0.48 -0.1 -0.23 -0.04 -0.08 -0.08 -0.15 0.13 0.21 0.16 0.27 0.18 0.24 0.31 0.42 0.36 0.43 0.49 0.56 0.5 0.51 0.56 0.55 0.82 0.71 0.71 0.59 0 0zm0 0c-36.55,-28.41 -42.43,-80.2 -13.14,-115.65 29.29,-35.45 82.69,-41.16 119.24,-12.75l-106.1 128.4zm-46.6 -6.9l0 -164.56 0 0 5.23 0.03 5.21 0.1 5.07 0.15 5.13 0.22 5.11 0.29 4.96 0.35 5.06 0.41 5.02 0.51 4.98 0.56 4.99 0.65 4.84 0.71 4.91 0.81 4.89 0.88 4.88 0.99 4.77 1.05 4.84 1.15 4.8 1.26 4.63 1.31 4.79 1.47 4.93 1.63 4.56 1.64 4.59 1.75 4.8 1.98 4.53 2 4.61 2.18 4.52 2.29 4.41 2.39 4.48 2.58 4.42 2.74 4.29 2.83 4.29 3.02 4.16 3.13 -106.1 128.4 0.08 0.05 0.05 0.04 -0.07 -0.05 -0.08 -0.04 -0.16 -0.1 -0.37 -0.19 -0.4 -0.21 -0.43 -0.2 -0.67 -0.3 -0.52 -0.22 -0.89 -0.33 -1.04 -0.38 -0.81 -0.27 -1.11 -0.33 -1.39 -0.39 -1.36 -0.36 -1.44 -0.35 -1.67 -0.37 -1.7 -0.33 -1.83 -0.34 -1.93 -0.31 -2.14 -0.31 -2.15 -0.29 -2.28 -0.26 -2.38 -0.23 -2.48 -0.21 -2.72 -0.19 -2.71 -0.15 -2.81 -0.12 -3.03 -0.09 -3.03 -0.06 -3.13 -0.01 0 0zm0 0c-46.84,0 -84.82,-36.84 -84.82,-82.28 0,-45.44 37.98,-82.28 84.82,-82.28l0 164.56zm-189.66 -164.56l189.66 0 0 164.56 -189.66 0 -84.82 -82.28 84.82 -82.28zm0 164.56c-46.84,0 -84.82,-36.84 -84.82,-82.28 0,-45.44 37.98,-82.28 84.82,-82.28l0 164.56zm1708.49 -3.13l0 -164.56 0 0 14.07 0.18 13.84 0.56 13.63 0.94 13.42 1.35 13.2 1.77 13.01 2.2 12.82 2.67 12.6 3.15 12.41 3.67 12.18 4.2 11.93 4.76 11.68 5.35 11.36 5.95 11.05 6.58 10.66 7.21 10.19 7.82 9.76 8.48 9.14 9.01 8.57 9.59 7.92 10.1 7.23 10.51 6.55 10.95 5.8 11.22 5.15 11.58 4.42 11.82 3.75 12 3.09 12.18 2.46 12.25 1.88 12.44 1.3 12.55 0.76 12.62 0.25 12.77 -169.64 0 -0.13 -6.45 -0.36 -5.98 -0.56 -5.45 -0.74 -4.94 -0.9 -4.51 -1.01 -4 -1.11 -3.54 -1.18 -3.14 -1.21 -2.74 -1.3 -2.5 -1.29 -2.17 -1.37 -1.99 -1.4 -1.8 -1.53 -1.69 -1.68 -1.67 -1.82 -1.58 -2.15 -1.64 -2.4 -1.63 -2.79 -1.66 -3.2 -1.67 -3.64 -1.67 -4.13 -1.64 -4.62 -1.6 -5.15 -1.51 -5.7 -1.43 -6.24 -1.29 -6.79 -1.16 -7.34 -0.97 -7.88 -0.79 -8.41 -0.58 -8.94 -0.36 -9.47 -0.12 0 0zm0 0c-46.84,0 -84.82,-36.84 -84.82,-82.28 0,-45.44 37.98,-82.28 84.82,-82.28l0 164.56zm-106.44 73.87l-169.64 0 0 0 0.25 -12.77 0.76 -12.62 1.3 -12.55 1.88 -12.44 2.46 -12.25 3.09 -12.18 3.75 -12 4.42 -11.82 5.15 -11.58 5.8 -11.22 6.55 -10.95 7.23 -10.51 7.92 -10.1 8.57 -9.59 9.14 -9.01 9.76 -8.48 10.19 -7.82 10.66 -7.21 11.05 -6.58 11.36 -5.95 11.68 -5.35 11.93 -4.76 12.18 -4.2 12.41 -3.67 12.6 -3.15 12.82 -2.67 13.01 -2.2 13.2 -1.77 13.42 -1.35 13.63 -0.94 13.84 -0.56 14.07 -0.18 0 164.56 -9.47 0.12 -8.94 0.36 -8.41 0.58 -7.88 0.79 -7.34 0.97 -6.79 1.16 -6.24 1.29 -5.7 1.43 -5.15 1.51 -4.62 1.6 -4.13 1.64 -3.64 1.67 -3.2 1.67 -2.79 1.66 -2.4 1.63 -2.15 1.64 -1.82 1.58 -1.68 1.67 -1.53 1.69 -1.4 1.8 -1.37 1.99 -1.29 2.17 -1.3 2.5 -1.21 2.74 -1.18 3.14 -1.11 3.54 -1.01 4 -0.9 4.51 -0.74 4.94 -0.56 5.45 -0.36 5.98 -0.13 6.45 0 0zm0 0c0,45.44 -37.98,82.28 -84.82,82.28 -46.84,0 -84.82,-36.84 -84.82,-82.28l169.64 0zm-169.64 1058.69l0 -1058.69 169.64 0 0 1058.69 0 0 -169.64 0zm169.64 0c0,45.44 -37.98,82.28 -84.82,82.28 -46.84,0 -84.82,-36.84 -84.82,-82.28l169.64 0zm106.44 73.87l0 164.56 0 0 -14.07 -0.18 -13.84 -0.56 -13.63 -0.94 -13.42 -1.35 -13.2 -1.77 -13.01 -2.2 -12.82 -2.67 -12.6 -3.15 -12.41 -3.67 -12.18 -4.2 -11.93 -4.76 -11.68 -5.35 -11.36 -5.95 -11.05 -6.58 -10.66 -7.21 -10.19 -7.82 -9.76 -8.48 -9.14 -9.01 -8.57 -9.59 -7.92 -10.1 -7.23 -10.51 -6.55 -10.95 -5.8 -11.22 -5.15 -11.58 -4.42 -11.82 -3.75 -12 -3.09 -12.18 -2.46 -12.25 -1.88 -12.44 -1.3 -12.55 -0.76 -12.62 -0.25 -12.77 169.64 0 0.13 6.45 0.36 5.98 0.56 5.45 0.74 4.94 0.9 4.51 1.01 4 1.11 3.54 1.18 3.14 1.21 2.74 1.3 2.5 1.29 2.17 1.37 1.99 1.4 1.8 1.53 1.69 1.68 1.67 1.82 1.58 2.15 1.64 2.4 1.63 2.79 1.66 3.2 1.67 3.64 1.67 4.13 1.64 4.62 1.6 5.15 1.51 5.7 1.43 6.24 1.29 6.79 1.16 7.34 0.97 7.88 0.79 8.41 0.58 8.94 0.36 9.47 0.12 0 0zm0 0c46.84,0 84.82,36.84 84.82,82.28 0,45.44 -37.98,82.28 -84.82,82.28l0 -164.56zm106.44 -73.87l169.64 0 0 0 -0.25 12.77 -0.76 12.62 -1.3 12.55 -1.88 12.44 -2.46 12.25 -3.09 12.18 -3.75 12 -4.42 11.82 -5.15 11.58 -5.8 11.22 -6.55 10.95 -7.23 10.51 -7.92 10.1 -8.57 9.59 -9.14 9.01 -9.76 8.48 -10.19 7.82 -10.66 7.21 -11.05 6.58 -11.36 5.95 -11.68 5.35 -11.93 4.76 -12.18 4.2 -12.41 3.67 -12.6 3.15 -12.82 2.67 -13.01 2.2 -13.2 1.77 -13.42 1.35 -13.63 0.94 -13.84 0.56 -14.07 0.18 0 -164.56 9.47 -0.12 8.94 -0.36 8.41 -0.58 7.88 -0.79 7.34 -0.97 6.79 -1.16 6.24 -1.29 5.7 -1.43 5.15 -1.51 4.62 -1.6 4.13 -1.64 3.64 -1.67 3.2 -1.67 2.79 -1.66 2.4 -1.63 2.15 -1.64 1.82 -1.58 1.68 -1.67 1.53 -1.69 1.4 -1.8 1.37 -1.99 1.29 -2.17 1.3 -2.5 1.21 -2.74 1.18 -3.14 1.11 -3.54 1.01 -4 0.9 -4.51 0.74 -4.94 0.56 -5.45 0.36 -5.98 0.13 -6.45 0 0zm0 0c0,-45.44 37.98,-82.28 84.82,-82.28 46.84,0 84.82,36.84 84.82,82.28l-169.64 0zm169.64 -1058.69l0 1058.69 -169.64 0 0 -1058.69 0 0 169.64 0zm-169.64 0c0,-45.44 37.98,-82.28 84.82,-82.28 46.84,0 84.82,36.84 84.82,82.28l-169.64 0zm-666.82 -493.19l114.62 121.32 0 -0.01 -8.84 8.08 -8.53 8.21 -8.23 8.37 -7.93 8.51 -7.6 8.63 -7.35 8.83 -7.05 8.96 -6.74 9.1 -6.49 9.31 -6.2 9.43 -5.92 9.61 -5.66 9.81 -5.39 9.98 -5.11 10.15 -4.85 10.36 -4.59 10.55 -4.32 10.75 -4.04 10.94 -3.79 11.19 -3.53 11.4 -3.25 11.59 -2.98 11.83 -2.71 12.07 -2.44 12.31 -2.16 12.51 -1.88 12.75 -1.6 13.02 -1.31 13.22 -1.03 13.48 -0.73 13.75 -0.45 13.99 -0.15 14.21 -169.64 0 0.19 -17.59 0.55 -17.41 0.93 -17.25 1.29 -17.1 1.69 -16.94 2.06 -16.74 2.44 -16.61 2.84 -16.43 3.22 -16.23 3.61 -16.05 4 -15.89 4.41 -15.73 4.79 -15.5 5.19 -15.31 5.6 -15.14 6 -14.93 6.39 -14.71 6.79 -14.5 7.21 -14.31 7.59 -14.06 7.98 -13.81 8.38 -13.63 8.78 -13.37 9.15 -13.11 9.56 -12.9 9.93 -12.62 10.27 -12.35 10.7 -12.15 11.05 -11.85 11.39 -11.59 11.77 -11.33 12.12 -11.06 0 -0.01zm0 0.01c34.53,-30.7 88.19,-28.43 119.84,5.06 31.65,33.49 29.31,85.54 -5.22,116.24l-114.62 -121.3zm558.77 -173.09l0 164.56 0 0 -19.27 0.14 -18.92 0.41 -18.54 0.69 -18.21 0.96 -17.88 1.24 -17.48 1.49 -17.11 1.77 -16.82 2.04 -16.42 2.28 -16.06 2.55 -15.71 2.81 -15.4 3.06 -14.97 3.3 -14.64 3.56 -14.32 3.8 -13.96 4.04 -13.57 4.27 -13.27 4.52 -12.91 4.75 -12.55 4.96 -12.24 5.21 -11.92 5.44 -11.59 5.66 -11.24 5.86 -10.94 6.1 -10.63 6.32 -10.3 6.52 -10.04 6.78 -9.73 6.98 -9.44 7.22 -9.18 7.44 -8.89 7.67 -114.62 -121.32 12.73 -10.97 13.06 -10.6 13.42 -10.24 13.77 -9.88 14.08 -9.5 14.44 -9.16 14.75 -8.76 15.06 -8.4 15.4 -8.04 15.67 -7.64 15.96 -7.28 16.28 -6.93 16.59 -6.58 16.87 -6.19 17.13 -5.84 17.45 -5.49 17.7 -5.12 17.96 -4.78 18.28 -4.44 18.55 -4.08 18.78 -3.74 19.07 -3.41 19.38 -3.07 19.62 -2.74 19.86 -2.4 20.19 -2.09 20.46 -1.75 20.68 -1.42 20.97 -1.12 21.28 -0.79 21.52 -0.47 21.81 -0.16 0 0zm0 0c46.84,0 84.82,36.84 84.82,82.28 0,45.44 -37.98,82.28 -84.82,82.28l0 -164.56zm560.08 172.83l-114.04 121.82 0 0 -8.99 -7.69 -9.29 -7.46 -9.55 -7.24 -9.84 -7.01 -10.13 -6.79 -10.39 -6.54 -10.73 -6.33 -11.04 -6.12 -11.33 -5.88 -11.66 -5.66 -12.02 -5.46 -12.3 -5.21 -12.64 -4.98 -12.99 -4.76 -13.31 -4.52 -13.64 -4.28 -14.02 -4.04 -14.38 -3.81 -14.68 -3.56 -15.03 -3.3 -15.43 -3.06 -15.76 -2.82 -16.09 -2.54 -16.46 -2.29 -16.83 -2.04 -17.15 -1.77 -17.5 -1.49 -17.9 -1.24 -18.21 -0.96 -18.56 -0.69 -18.92 -0.41 -19.27 -0.14 0 -164.56 21.81 0.16 21.52 0.47 21.28 0.79 20.99 1.12 20.7 1.42 20.46 1.75 20.21 2.09 19.89 2.4 19.64 2.73 19.39 3.08 19.1 3.4 18.81 3.74 18.59 4.08 18.32 4.44 17.98 4.77 17.74 5.12 17.5 5.48 17.19 5.84 16.89 6.18 16.64 6.56 16.34 6.93 16 7.26 15.74 7.64 15.45 8.02 15.12 8.38 14.81 8.75 14.53 9.14 14.15 9.49 13.84 9.85 13.49 10.22 13.15 10.58 12.81 10.95 0 0zm0 0c34.67,30.54 37.26,82.59 5.77,116.22 -31.49,33.63 -85.14,36.14 -119.81,5.6l114.04 -121.82zm199.77 468.46l-169.64 0 0 0 -0.15 -14.21 -0.45 -13.97 -0.74 -13.69 -1.04 -13.48 -1.32 -13.22 -1.62 -12.99 -1.89 -12.76 -2.18 -12.51 -2.45 -12.28 -2.73 -12.01 -3.01 -11.83 -3.28 -11.6 -3.54 -11.35 -3.83 -11.16 -4.1 -10.98 -4.35 -10.74 -4.61 -10.52 -4.9 -10.36 -5.16 -10.16 -5.41 -9.93 -5.72 -9.8 -5.98 -9.63 -6.26 -9.43 -6.55 -9.31 -6.8 -9.08 -7.11 -8.96 -7.43 -8.85 -7.68 -8.64 -8.02 -8.52 -8.3 -8.37 -8.61 -8.2 -8.95 -8.1 114.04 -121.82 12.21 11.04 11.89 11.34 11.5 11.59 11.14 11.84 10.78 12.14 10.37 12.33 10.03 12.62 9.66 12.92 9.23 13.11 8.86 13.37 8.46 13.61 8.06 13.82 7.69 14.11 7.26 14.3 6.86 14.5 6.47 14.74 6.05 14.94 5.64 15.1 5.25 15.34 4.86 15.55 4.44 15.72 4.05 15.89 3.65 16.11 3.25 16.26 2.86 16.43 2.47 16.6 2.08 16.77 1.7 16.94 1.32 17.1 0.94 17.31 0.55 17.43 0.19 17.59 0 0zm0 0c0,45.44 -37.98,82.28 -84.82,82.28 -46.84,0 -84.82,-36.84 -84.82,-82.28l169.64 0zm-169.64 1108.66l0 -1108.66 169.64 0 0 1108.66 0 0 -169.64 0zm169.64 0c0,45.44 -37.98,82.28 -84.82,82.28 -46.84,0 -84.82,-36.84 -84.82,-82.28l169.64 0zm-199.77 468.46l-114.04 -121.82 0 0 8.95 -8.1 8.61 -8.2 8.3 -8.37 8.02 -8.52 7.68 -8.64 7.43 -8.85 7.11 -8.96 6.8 -9.08 6.55 -9.31 6.26 -9.43 5.98 -9.63 5.72 -9.8 5.41 -9.93 5.16 -10.16 4.9 -10.36 4.61 -10.52 4.35 -10.74 4.1 -10.98 3.83 -11.16 3.54 -11.35 3.28 -11.6 3.01 -11.83 2.73 -12.01 2.45 -12.28 2.18 -12.51 1.89 -12.76 1.62 -12.99 1.32 -13.22 1.04 -13.48 0.74 -13.69 0.45 -13.97 0.15 -14.21 169.64 0 -0.19 17.59 -0.55 17.43 -0.94 17.31 -1.32 17.1 -1.7 16.94 -2.08 16.77 -2.47 16.6 -2.86 16.43 -3.25 16.26 -3.65 16.11 -4.05 15.89 -4.44 15.72 -4.86 15.55 -5.25 15.34 -5.64 15.1 -6.05 14.94 -6.47 14.74 -6.86 14.5 -7.26 14.3 -7.69 14.11 -8.06 13.82 -8.46 13.61 -8.86 13.37 -9.23 13.11 -9.66 12.92 -10.03 12.62 -10.37 12.33 -10.78 12.14 -11.14 11.84 -11.5 11.59 -11.89 11.34 -12.21 11.04 0 0zm0 0c-34.68,30.54 -88.33,28.03 -119.82,-5.6 -31.49,-33.63 -28.9,-85.68 5.78,-116.22l114.04 121.82zm-560.08 172.83l0 -164.56 0 0 19.27 -0.14 18.92 -0.41 18.56 -0.69 18.21 -0.96 17.88 -1.24 17.52 -1.5 17.17 -1.76 16.81 -2.04 16.46 -2.29 16.09 -2.54 15.76 -2.82 15.4 -3.06 15.06 -3.31 14.7 -3.55 14.33 -3.8 14.02 -4.06 13.69 -4.29 13.29 -4.5 12.97 -4.76 12.68 -5 12.31 -5.2 11.96 -5.44 11.67 -5.67 11.35 -5.89 11.04 -6.12 10.73 -6.33 10.41 -6.56 10.13 -6.77 9.82 -7 9.55 -7.24 9.29 -7.46 8.99 -7.69 114.04 121.82 -12.81 10.95 -13.15 10.58 -13.49 10.22 -13.86 9.86 -14.15 9.49 -14.51 9.12 -14.81 8.75 -15.12 8.38 -15.43 8.01 -15.73 7.65 -16.06 7.28 -16.33 6.92 -16.6 6.54 -16.91 6.2 -17.21 5.84 -17.45 5.47 -17.74 5.12 -18.03 4.78 -18.3 4.43 -18.56 4.09 -18.84 3.74 -19.1 3.4 -19.39 3.08 -19.64 2.73 -19.91 2.4 -20.19 2.08 -20.44 1.76 -20.72 1.42 -20.99 1.12 -21.28 0.79 -21.52 0.47 -21.81 0.16 0 0zm0 0c-46.84,0 -84.82,-36.84 -84.82,-82.28 0,-45.44 37.98,-82.28 84.82,-82.28l0 164.56zm-558.77 -173.09l114.62 -121.3 0 -0.01 8.89 7.67 9.18 7.44 9.44 7.22 9.72 6.97 10.03 6.76 10.32 6.54 10.63 6.32 10.94 6.1 11.26 5.87 11.59 5.67 11.88 5.42 12.24 5.2 12.59 4.98 12.89 4.75 13.24 4.5 13.63 4.29 13.95 4.04 14.28 3.8 14.66 3.55 15 3.31 15.37 3.06 15.71 2.81 16.06 2.55 16.42 2.28 16.79 2.04 17.14 1.76 17.51 1.51 17.85 1.23 18.21 0.96 18.54 0.69 18.92 0.41 19.27 0.14 0 164.56 -21.81 -0.16 -21.52 -0.47 -21.28 -0.79 -20.97 -1.12 -20.71 -1.43 -20.43 -1.75 -20.16 -2.08 -19.89 -2.4 -19.62 -2.74 -19.38 -3.07 -19.07 -3.41 -18.81 -3.74 -18.52 -4.09 -18.26 -4.43 -18 -4.78 -17.71 -5.14 -17.39 -5.47 -17.16 -5.84 -16.89 -6.21 -16.55 -6.56 -16.28 -6.92 -16 -7.3 -15.67 -7.65 -15.38 -8.03 -15.06 -8.4 -14.75 -8.76 -14.42 -9.14 -14.09 -9.5 -13.78 -9.89 -13.42 -10.24 -13.06 -10.6 -12.73 -10.97 0 -0.01zm0 0.01c-34.53,-30.7 -36.87,-82.75 -5.22,-116.25 31.65,-33.5 85.31,-35.77 119.84,-5.07l-114.62 121.32zm-197.87 -468.21l169.64 0 0 0 0.15 14.21 0.45 13.99 0.73 13.75 1.03 13.48 1.31 13.22 1.6 13.02 1.88 12.75 2.16 12.51 2.44 12.31 2.71 12.07 2.98 11.83 3.25 11.59 3.53 11.4 3.79 11.19 4.04 10.94 4.32 10.75 4.59 10.55 4.85 10.36 5.11 10.15 5.39 9.98 5.66 9.81 5.92 9.61 6.2 9.43 6.49 9.31 6.74 9.1 7.05 8.96 7.35 8.83 7.6 8.63 7.93 8.51 8.23 8.37 8.53 8.21 8.84 8.08 -114.62 121.3 -12.12 -11.06 -11.77 -11.33 -11.39 -11.59 -11.05 -11.85 -10.7 -12.15 -10.27 -12.35 -9.93 -12.62 -9.56 -12.9 -9.15 -13.11 -8.78 -13.37 -8.38 -13.63 -7.98 -13.81 -7.59 -14.06 -7.21 -14.31 -6.79 -14.5 -6.39 -14.71 -6 -14.93 -5.6 -15.14 -5.19 -15.31 -4.79 -15.5 -4.41 -15.73 -4 -15.89 -3.61 -16.05 -3.22 -16.23 -2.84 -16.43 -2.44 -16.61 -2.06 -16.74 -1.69 -16.94 -1.29 -17.1 -0.93 -17.25 -0.55 -17.41 -0.19 -17.59 0 0zm0 0c0,-45.44 37.98,-82.28 84.82,-82.28 46.84,0 84.82,36.84 84.82,82.28l-169.64 0zm169.64 -1108.66l0 1108.66 -169.64 0 0 -1108.66 0 0 169.64 0zm-169.64 0c0,-45.44 37.98,-82.28 84.82,-82.28 46.84,0 84.82,36.84 84.82,82.28l-169.64 0z"/>
    <path id="_1" class="fil2" d="M12079.11 16377.03c0,-164.47 64.82,-295.12 194.47,-391.93 129.65,-96.81 314.49,-145.22 554.5,-145.22 180.02,0 331.09,19.78 453.24,59.34l0 443.46c-128.58,-47.89 -257.16,-71.83 -385.74,-71.83 -128.58,0 -215.36,14.58 -260.37,43.72 -45,29.15 -67.5,68.71 -67.5,118.68l0 1027.46c0,49.96 16.07,87.96 48.22,113.99 32.14,26.02 79.83,39.03 143.04,39.03 63.22,0 111.97,-8.33 146.26,-24.98l0 -730.78 469.31 0 0 1046.2c-167.15,87.44 -365.37,131.16 -594.68,131.16 -229.29,0 -403.41,-45.8 -522.34,-137.41 -118.94,-91.6 -178.41,-220.69 -178.41,-387.25l0 -1133.64zm2018.67 861.95l0 780.74 -482.17 0 0 -2164.23 726.48 0c175.72,0 312.87,40.6 411.44,121.8 98.58,81.2 147.87,199.87 147.87,356.02l0 399.74c0,249.84 -87.87,405.99 -263.59,468.45l350.38 818.22 -530.39 0 -298.94 -780.74 -61.08 0zm0 -983.74l0 612.1 189.66 0c49.28,0 83.57,-10.41 102.86,-31.23 19.29,-20.82 28.93,-57.25 28.93,-109.3l0 -352.9c0,-45.8 -10.71,-77.03 -32.14,-93.69 -21.43,-16.66 -54.65,-24.98 -99.65,-24.98l-189.66 0zm1899.75 153.02c0,-104.1 -63.75,-156.15 -191.26,-156.15 -127.51,0 -191.26,52.05 -191.26,156.15l0 1058.69c0,104.1 63.75,156.15 191.26,156.15 127.51,0 191.26,-52.05 191.26,-156.15l0 -1058.69zm-864.69 -24.98c0,-170.72 56.79,-306.57 170.36,-407.55 113.59,-100.98 280.73,-151.46 501.46,-151.46 220.72,0 388.42,50.48 503.06,151.46 114.65,100.98 171.97,236.83 171.97,407.55l0 1108.66c0,170.72 -57.32,306.57 -171.97,407.55 -114.64,100.97 -282.34,151.46 -503.06,151.46 -220.73,0 -387.87,-50.49 -501.46,-151.46 -113.57,-100.98 -170.36,-236.83 -170.36,-407.55l0 -1108.66z"/>
   </g>
   <g>
    <path class="fil1" d="M9570.53 14800.33l160.65 53.74 -0.23 0.64 -42.29 117.77 -160.42 -54.38 42.29 -117.77zm160.42 54.38l-160.42 -54.38c15.45,-43.03 63.9,-65.75 108.19,-50.74 44.29,15.01 67.68,62.09 52.23,105.12zm25.19 -585.12l80.41 -55.99 80.47 109.09 -185.84 531.38 -160.88 -53.1 185.84 -531.38zm160.88 53.1l-160.88 -53.1c15.09,-43.16 63.35,-66.26 107.77,-51.6 44.42,14.66 68.2,61.54 53.11,104.7zm697.8 -109.35l79.68 53.84 -79.62 111.24 -778.27 0.26 -0.06 -165.08 778.27 -0.26zm0.06 165.08l-0.06 -165.08c46.91,-0.01 84.97,36.93 84.98,82.51 0.01,45.58 -38.01,82.56 -84.92,82.57zm287.01 432.11l-159.09 57.96 -0.21 -0.56 -207.39 -543.35 159.3 -57.4 207.39 543.35zm-159.3 57.4l159.3 -57.4c16.31,42.74 -6.13,90.24 -50.11,106.09 -43.98,15.85 -92.88,-5.95 -109.19,-48.69zm203.82 56.67l4.02 13.86 -162.9 44.66 -44.73 -114.63 158.88 -58.52 44.73 114.63zm-158.88 58.52l158.88 -58.52c16.62,42.62 -5.46,90.29 -49.33,106.44 -43.87,16.15 -92.93,-5.3 -109.55,-47.92zm112.48 325.42l0.01 0.03 -2.54 -8.55 -2.75 -8.77 -2.97 -9.08 -3.16 -9.29 -3.32 -9.49 -3.5 -9.72 -3.64 -9.9 -3.76 -10.04 -3.88 -10.19 -3.98 -10.32 -4.09 -10.49 -4.16 -10.62 -4.19 -10.65 -4.25 -10.78 -4.28 -10.87 -4.3 -10.96 -4.27 -10.99 -4.27 -11.05 -4.24 -11.12 -4.18 -11.14 -4.12 -11.17 -4.05 -11.2 -3.95 -11.24 -3.84 -11.23 -3.71 -11.26 -3.59 -11.3 -3.42 -11.29 -3.23 -11.26 -3.07 -11.35 -2.83 -11.32 -2.61 -11.3 -2.36 -11.37 166.92 -30.8 1.62 7.77 1.87 8.14 2.11 8.4 2.33 8.65 2.59 8.96 2.76 9.17 2.97 9.34 3.17 9.58 3.34 9.77 3.49 9.92 3.63 10.06 3.76 10.21 3.88 10.32 3.96 10.4 4.07 10.53 4.13 10.61 4.18 10.66 4.22 10.73 4.25 10.78 4.27 10.85 4.24 10.84 4.23 10.85 4.22 10.92 4.16 10.93 4.1 10.92 4 10.9 3.92 10.88 3.82 10.91 3.68 10.87 3.55 10.86 3.41 10.87 3.22 10.83 0.01 0.03 -163.58 44.62zm0.01 0.03l163.56 -44.68c12.69,43.88 -13.63,89.47 -58.79,101.8 -45.16,12.33 -92.08,-13.24 -104.77,-57.12zm-221.74 581l-1.45 2.52 5.24 -9.73 6.15 -11.81 6.96 -13.68 7.64 -15.35 8.26 -16.87 8.78 -18.26 9.22 -19.46 9.59 -20.6 9.9 -21.56 10.12 -22.41 10.27 -23.1 10.36 -23.7 10.38 -24.17 10.32 -24.48 10.18 -24.67 9.99 -24.74 9.72 -24.68 9.37 -24.46 8.95 -24.14 8.48 -23.66 7.91 -23.02 7.28 -22.25 6.58 -21.3 5.79 -20.2 4.96 -18.89 4.04 -17.34 3.07 -15.53 2.07 -13.42 1.09 -10.79 0.25 -7.57 -0.18 -3.45 0.44 1.74 163.58 -44.62 4.62 22.74 1.42 21.23 -0.57 20.59 -2.05 20.55 -3.21 20.88 -4.23 21.49 -5.16 22.16 -5.98 22.83 -6.75 23.5 -7.44 24.14 -8.08 24.67 -8.63 25.14 -9.14 25.5 -9.57 25.8 -9.95 25.96 -10.24 26.02 -10.49 25.98 -10.66 25.81 -10.76 25.54 -10.8 25.13 -10.76 24.66 -10.69 24.02 -10.52 23.29 -10.3 22.42 -9.99 21.46 -9.66 20.4 -9.22 19.16 -8.74 17.89 -8.22 16.49 -7.62 14.98 -7.01 13.45 -6.38 11.87 -1.45 2.52 -147.08 -82.62zm-1.45 2.52l149.98 77.58c-22.05,40.23 -73.51,55.48 -114.92,34.06 -41.41,-21.42 -57.11,-71.41 -35.06,-111.64zm1.43 327.27l-9.35 12.75 -137.73 -95.37 147.1 -247.17 147.08 82.62 -147.1 247.17zm-147.08 -82.62l147.08 82.62c-23.48,39.46 -75.45,52.95 -116.06,30.14 -40.61,-22.81 -54.5,-73.3 -31.02,-112.76zm126.93 42.54l-131.27 -40.87 3.01 -2.14 2.87 -2.02 2.61 -1.79 2.43 -1.64 2.25 -1.48 2.01 -1.29 2.56 -1.57 2.55 -1.49 2.23 -1.23 4.08 -2.07 7.11 -3.02 12.74 -3.7 69.95 15.33 4.28 127.25 -28.69 16.21 -27.66 4.49 -46.96 -13.73 -32.85 -40.25 -5.19 -33.12 3.18 -18.5 4.03 -10.89 3.53 -6.97 2.41 -4.05 2.22 -3.39 2.25 -3.18 2.05 -2.73 1.97 -2.52 2.11 -2.62 2.45 -2.94 2.47 -2.88 2.66 -3.07 3.03 -3.42 128.38 108.12 -2.07 2.34 -1.78 2.05 -1.37 1.6 -0.79 0.96 -0.61 0.76 -0.27 0.34 0.25 -0.33 0.83 -1.18 1.18 -1.79 1.65 -2.79 3.05 -6.03 3.77 -10.19 3.1 -18.04 -5.15 -32.84 -32.73 -40.11 -46.8 -13.69 -27.48 4.45 -28.57 16.15 4.3 127.19 69.85 15.33 12.46 -3.62 6.59 -2.8 3.3 -1.67 1.15 -0.63 1.09 -0.65 0.72 -0.43 -0.27 0.17 -0.53 0.34 -0.89 0.6 -1.29 0.89 -1.63 1.14 -2.17 1.56 -131.27 -40.87 161.58 -51.04zm-131.27 -40.87l100.96 132.78c-37.73,27.08 -90.94,19.31 -118.81,-17.35 -27.87,-36.66 -19.88,-88.35 17.85,-115.43zm-360.32 -894.02l0.04 -51.17 161.54 0.13 330.01 985.93 -161.58 51.04 -330.01 -985.93zm161.58 -51.04l-161.58 51.04c-14.5,-43.34 9.91,-89.92 54.52,-104.01 44.61,-14.09 92.56,9.63 107.06,52.97zm-789.55 2396.82l-47.27 50.21 -114.23 -101.51 789.51 -2345.65 161.5 51.3 -789.51 2345.65zm-161.5 -51.3l161.5 51.3c-14.58,43.32 -62.56,66.96 -107.15,52.8 -44.59,-14.16 -68.93,-60.78 -54.35,-104.1zm721.85 -326.89l-0.01 0 -9.75 8.78 -11.08 9.46 -12.49 10.33 -13.98 11.28 -15.39 12.19 -16.74 13.06 -17.97 13.85 -19.11 14.57 -20.14 15.22 -21.03 15.74 -21.8 16.21 -22.46 16.57 -22.99 16.85 -23.41 17.04 -23.69 17.12 -23.85 17.13 -23.89 17.03 -23.79 16.83 -23.59 16.58 -23.25 16.19 -22.8 15.75 -22.21 15.18 -21.54 14.56 -20.73 13.82 -19.79 13.02 -18.81 12.14 -17.71 11.19 -16.56 10.16 -15.4 9.12 -14.32 8.04 -13.59 7.09 -13.75 6.3 -66.96 -151.72 3.69 -1.72 7.63 -3.99 10.44 -5.88 12.62 -7.46 14.48 -8.9 16.09 -10.15 17.49 -11.3 18.75 -12.32 19.81 -13.22 20.74 -14.02 21.53 -14.72 22.18 -15.31 22.69 -15.81 23.07 -16.2 23.31 -16.51 23.41 -16.69 23.41 -16.81 23.25 -16.8 22.95 -16.7 22.55 -16.53 22 -16.23 21.32 -15.85 20.51 -15.36 19.54 -14.76 18.47 -14.09 17.23 -13.27 15.86 -12.38 14.33 -11.35 12.62 -10.18 10.71 -8.85 8.5 -7.26 5.91 -5.3 -0.01 0 117.5 119.24zm-0.01 0l-117.48 -119.24c33.89,-31.51 87.67,-30.37 120.11,2.55 32.44,32.92 31.26,85.18 -2.63,116.69zm349.65 -327.28l0.04 -0.05 -10.63 11.81 -10.69 11.64 -10.71 11.42 -10.72 11.22 -10.76 11.06 -10.78 10.88 -10.79 10.72 -10.82 10.58 -10.83 10.43 -10.86 10.33 -10.86 10.18 -10.89 10.11 -10.89 9.99 -10.91 9.92 -10.92 9.84 -10.93 9.79 -10.95 9.73 -10.93 9.67 -10.97 9.67 -11 9.67 -21.96 19.27 -22.07 19.4 -10.99 9.7 -11.09 9.83 -11.08 9.84 -11.06 9.91 -11.11 10.02 -11.13 10.11 -11.16 10.24 -11.19 10.35 -117.5 -119.24 11.79 -10.91 11.72 -10.74 11.63 -10.57 11.57 -10.44 11.52 -10.31 11.42 -10.16 11.29 -9.99 11.29 -9.98 22.23 -19.52 21.96 -19.27 10.82 -9.51 10.75 -9.49 10.69 -9.47 10.59 -9.41 10.51 -9.41 10.44 -9.4 10.35 -9.42 10.29 -9.43 10.19 -9.45 10.12 -9.5 10.06 -9.55 9.97 -9.61 9.9 -9.68 9.85 -9.78 9.78 -9.88 9.7 -9.96 9.66 -10.12 9.59 -10.22 9.51 -10.36 9.49 -10.55 0.04 -0.05 128.42 108.1zm0.04 -0.05l-128.5 -108c30.69,-34.47 84.35,-38.24 119.83,-8.42 35.48,29.82 39.36,81.95 8.67,116.42zm82.05 -85.38l0.11 -0.12 -3.16 3.48 -3.12 3.4 -3.14 3.4 -2.98 3.16 -2.98 3.18 -2.98 3.11 -2.84 2.95 -2.83 2.92 -2.74 2.82 -2.78 2.83 -2.71 2.74 -2.65 2.68 -5.12 5.13 -4.98 4.97 -4.82 4.83 -4.81 4.83 -2.24 2.27 -2.3 2.34 -2.37 2.42 -2.22 2.28 -2.23 2.32 -2.38 2.49 -2.24 2.36 -2.27 2.43 -2.27 2.44 -2.32 2.53 -2.35 2.59 -2.37 2.65 -128.42 -108.1 3.01 -3.35 2.97 -3.27 2.94 -3.21 2.93 -3.16 2.87 -3.05 2.86 -3.02 2.68 -2.79 2.77 -2.9 2.78 -2.84 2.59 -2.66 2.64 -2.68 2.68 -2.71 5.03 -5.05 5 -5.01 4.92 -4.91 4.86 -4.89 2.39 -2.4 2.37 -2.4 2.34 -2.39 2.44 -2.5 2.41 -2.48 2.44 -2.55 2.4 -2.51 2.44 -2.58 2.54 -2.72 2.46 -2.64 2.56 -2.8 2.62 -2.88 0.11 -0.12 127.46 109.14zm0.11 -0.12l-127.68 -108.9c30.95,-34.25 84.63,-37.65 119.88,-7.58 35.25,30.07 38.75,82.23 7.8,116.48zm70.7 -78.55l0.03 -0.02 -2.99 2.89 -2.84 2.77 -2.61 2.58 -2.45 2.46 -2.38 2.44 -2.36 2.43 -2.13 2.22 -2 2.12 -1.9 2.04 -1.96 2.16 -1.84 2.02 -1.76 1.98 -1.84 2.08 -1.67 1.91 -1.77 2.05 -1.8 2.11 -1.81 2.12 -1.81 2.14 -1.77 2.1 -1.91 2.28 -4.02 4.79 -4.22 5 -2.34 2.75 -2.32 2.73 -2.42 2.8 -2.55 2.95 -2.74 3.12 -2.78 3.14 -2.82 3.16 -3.03 3.35 -127.46 -109.14 2.41 -2.69 2.4 -2.68 2.24 -2.52 2.08 -2.38 2.09 -2.41 2.06 -2.4 2.02 -2.35 1.9 -2.23 3.94 -4.68 3.86 -4.59 1.97 -2.36 2.11 -2.5 2.07 -2.44 2.09 -2.46 2.14 -2.49 2.23 -2.59 2.39 -2.75 2.34 -2.64 2.5 -2.82 2.58 -2.84 2.58 -2.82 2.82 -3.04 2.9 -3.08 2.99 -3.12 2.96 -3.05 3.16 -3.22 3.37 -3.38 3.47 -3.44 3.54 -3.45 3.69 -3.57 0.03 -0.02 119.34 117.48zm0.03 -0.02l-119.4 -117.44c33.38,-32.03 87.17,-31.71 120.14,0.72 32.97,32.43 32.64,84.69 -0.74,116.72zm84.77 -100.26l0.02 -0.02 -2.42 3.03 -2.36 2.98 -2.35 3 -2.27 2.9 -4.67 6.01 -4.62 5.97 -4.61 5.97 -4.6 5.93 -2.46 3.14 -2.35 3.01 -2.48 3.13 -2.44 3.05 -2.45 3.06 -2.68 3.29 -2.55 3.09 -2.58 3.1 -2.76 3.28 -2.8 3.26 -2.84 3.25 -2.82 3.18 -2.91 3.24 -3.07 3.35 -3.17 3.4 -3.12 3.26 -3.2 3.31 -3.38 3.41 -3.38 3.33 -3.48 3.37 -119.34 -117.48 2.24 -2.17 2.2 -2.19 2.08 -2.09 2.12 -2.19 2.12 -2.22 1.95 -2.08 1.95 -2.13 2.01 -2.24 2.04 -2.3 1.94 -2.23 1.92 -2.24 1.9 -2.24 2.02 -2.44 2.03 -2.45 1.86 -2.29 2.05 -2.56 2.06 -2.57 2 -2.55 2.13 -2.69 2.04 -2.62 4.42 -5.71 4.55 -5.87 4.7 -6.09 4.91 -6.33 2.63 -3.36 2.63 -3.34 2.72 -3.44 2.76 -3.47 0.02 -0.02 134.14 101.32zm0.02 -0.02l-134.18 -101.28c28.78,-35.99 82.16,-42.5 119.21,-14.54 37.05,27.96 43.75,79.83 14.97,115.82zm621.29 -1220.86l0 -0.02 -11.54 42.75 -12.11 42.48 -12.69 42.2 -13.24 41.91 -13.79 41.65 -14.35 41.35 -14.88 41.07 -15.43 40.78 -15.94 40.5 -16.48 40.2 -16.98 39.89 -17.49 39.61 -18 39.31 -18.49 39 -18.97 38.71 -19.47 38.4 -19.93 38.08 -20.4 37.78 -20.87 37.47 -21.32 37.15 -21.76 36.84 -22.22 36.52 -22.63 36.2 -23.09 35.88 -23.5 35.55 -23.91 35.23 -24.31 34.88 -24.73 34.58 -25.12 34.24 -25.51 33.9 -25.89 33.56 -26.27 33.23 -134.14 -101.32 25.05 -31.69 24.69 -32 24.31 -32.3 23.94 -32.62 23.55 -32.94 23.17 -33.24 22.77 -33.55 22.38 -33.85 21.95 -34.14 21.55 -34.46 21.14 -34.74 20.7 -35.04 20.28 -35.33 19.83 -35.63 19.4 -35.92 18.95 -36.2 18.49 -36.48 18.03 -36.77 17.57 -37.06 17.08 -37.31 16.61 -37.61 16.12 -37.89 15.64 -38.16 15.14 -38.42 14.63 -38.7 14.12 -38.97 13.61 -39.23 13.09 -39.49 12.56 -39.77 12.03 -40.02 11.49 -40.28 10.94 -40.53 0 -0.02 164.64 40.8zm0 -0.02l-164.64 -40.76c11.58,-44.17 57.84,-70.85 103.3,-59.6 45.46,11.25 72.92,56.19 61.34,100.36zm91.86 -570.93l0 0 -1.13 18.17 -1.27 18.21 -1.4 18.24 -1.53 18.25 -1.65 18.27 -1.77 18.32 -1.9 18.27 -2.01 18.3 -2.14 18.29 -2.24 18.27 -2.36 18.27 -2.47 18.25 -2.59 18.2 -2.67 18.17 -2.8 18.18 -2.91 18.1 -2.99 18.04 -3.1 18 -3.21 17.95 -3.29 17.85 -3.39 17.79 -3.48 17.74 -3.57 17.66 -3.67 17.54 -3.75 17.47 -3.84 17.36 -3.92 17.26 -4.01 17.15 -4.08 17.03 -4.17 16.91 -4.24 16.78 -4.31 16.66 -164.64 -40.8 4.07 -15.68 4 -15.84 3.93 -15.97 3.86 -16.09 3.79 -16.21 3.7 -16.32 3.64 -16.44 3.55 -16.53 3.47 -16.64 3.39 -16.7 3.3 -16.8 3.21 -16.89 3.13 -16.95 3.03 -17.01 2.94 -17.06 2.85 -17.12 2.75 -17.16 2.64 -17.16 2.55 -17.25 2.45 -17.26 2.33 -17.25 2.24 -17.29 2.12 -17.29 2.02 -17.27 1.89 -17.28 1.8 -17.27 1.67 -17.22 1.55 -17.21 1.43 -17.19 1.32 -17.14 1.19 -17.07 1.07 -17.05 0 0 169.62 9.46zm0 0l-169.62 -9.46c2.68,-45.5 42.84,-80.28 89.67,-77.67 46.83,2.61 82.63,41.63 79.95,87.13zm-182.97 -586.42l164.17 9.47 4.13 -25.86 0.11 3.8 0.24 6.85 0.32 9.41 0.92 25.63 1.21 33.49 0.69 19.27 0.74 20.72 0.77 22.01 0.81 23.09 0.82 24.03 0.84 24.82 0.83 25.41 0.84 25.84 0.81 26.11 0.81 26.18 0.76 26.12 0.73 25.87 0.68 25.46 0.63 24.88 0.55 24.16 0.49 23.22 0.4 22.16 0.32 20.92 0.22 19.58 0.1 18.06 -0.01 16.43 -0.15 14.72 -0.3 13 -0.51 11.57 -169.62 -9.46 0.31 -7.27 0.24 -10.42 0.13 -12.96 0.01 -15.17 -0.1 -17.1 -0.22 -18.84 -0.3 -20.38 -0.4 -21.7 -0.47 -22.84 -0.55 -23.8 -0.63 -24.6 -0.66 -25.22 -0.73 -25.65 -0.76 -25.94 -0.79 -26.04 -0.81 -25.95 -0.84 -25.7 -0.83 -25.31 -0.84 -24.7 -0.82 -23.97 -0.79 -23.03 -0.77 -21.91 -0.74 -20.66 -0.69 -19.23 -1.21 -33.49 -0.92 -25.71 -0.34 -9.57 -0.24 -7.19 -0.15 -4.98 4.09 -29.02 164.17 9.47 -166.7 31.92zm164.17 9.47l-161.64 -50.86c14.45,-43.36 62.36,-67.13 106.99,-53.09 44.63,14.04 69.1,60.59 54.65,103.95zm-44.74 717.57l0 -0.01 -1.76 -25.32 -1.93 -24.9 -2.1 -24.5 -2.28 -24.13 -2.44 -23.8 -2.6 -23.48 -2.75 -23.17 -2.92 -22.93 -3.04 -22.69 -3.19 -22.46 -3.32 -22.29 -3.44 -22.11 -3.57 -21.98 -3.7 -21.86 -3.79 -21.78 -3.91 -21.7 -4.01 -21.67 -4.11 -21.65 -4.2 -21.65 -4.29 -21.7 -4.36 -21.76 -4.44 -21.83 -4.51 -21.93 -4.58 -22.05 -4.63 -22.2 -4.69 -22.38 -4.74 -22.59 -4.76 -22.78 -4.81 -23.01 -4.84 -23.29 -4.85 -23.58 -4.87 -23.86 166.7 -31.92 4.81 23.54 4.79 23.3 4.8 23.07 4.77 22.91 4.76 22.72 4.72 22.55 4.71 22.44 4.67 22.36 4.62 22.29 4.57 22.23 4.52 22.21 4.46 22.2 4.39 22.2 4.32 22.27 4.23 22.33 4.15 22.41 4.05 22.52 3.95 22.64 3.84 22.78 3.73 22.98 3.62 23.15 3.48 23.37 3.35 23.62 3.2 23.85 3.06 24.13 2.91 24.47 2.74 24.74 2.58 25.1 2.4 25.47 2.22 25.84 2.03 26.22 1.84 26.66 0 -0.01 -169.56 10.4zm0 -0.01l169.56 -10.38c2.94,45.49 -32.62,84.7 -79.44,87.56 -46.82,2.86 -87.18,-31.69 -90.12,-77.18zm-554.39 1905.19l-4.67 6.34 36.01 -54.88 34.99 -54.88 33.95 -54.89 32.87 -54.94 31.81 -55.03 30.71 -55.13 29.58 -55.27 28.47 -55.44 27.31 -55.65 26.14 -55.89 24.98 -56.17 23.78 -56.46 22.56 -56.79 21.34 -57.17 20.09 -57.57 18.83 -58.02 17.56 -58.49 16.27 -59 14.96 -59.53 13.62 -60.13 12.29 -60.75 10.93 -61.39 9.54 -62.08 8.14 -62.82 6.72 -63.59 5.28 -64.38 3.83 -65.23 2.34 -66.1 0.85 -67.01 -0.68 -67.95 -2.23 -68.93 -3.78 -69.96 169.56 -10.4 3.98 73.42 2.33 72.47 0.72 71.55 -0.89 70.65 -2.48 69.78 -4.03 68.95 -5.6 68.12 -7.12 67.33 -8.62 66.58 -10.12 65.84 -11.59 65.13 -13.03 64.43 -14.46 63.79 -15.86 63.15 -17.25 62.54 -18.6 61.95 -19.93 61.4 -21.25 60.89 -22.54 60.39 -23.8 59.91 -25.04 59.48 -26.26 59.05 -27.46 58.69 -28.63 58.33 -29.77 58 -30.9 57.73 -32.01 57.45 -33.07 57.23 -34.13 57.04 -35.17 56.87 -36.17 56.74 -37.17 56.64 -4.67 6.34 -133.36 -102.28zm-4.67 6.34l142.7 89.6c-25.46,38.28 -78.06,49.26 -117.46,24.52 -39.4,-24.74 -50.7,-75.84 -25.24,-114.12zm-149.91 450.3l-5.89 6.51 -127.47 -108.79 287.94 -354.36 133.36 102.28 -287.94 354.36zm-133.36 -102.28l133.36 102.28c-29.07,35.77 -82.5,41.88 -119.32,13.64 -36.82,-28.24 -43.11,-80.15 -14.04,-115.92zm-684.46 571.17l0 0 31.14 -22.15 29.57 -21.07 28.07 -20.04 26.65 -19.1 25.35 -18.23 24.13 -17.47 23 -16.75 21.96 -16.13 21.04 -15.61 20.2 -15.15 19.45 -14.78 18.82 -14.51 18.29 -14.3 17.84 -14.18 17.51 -14.17 17.3 -14.24 17.19 -14.4 17.16 -14.63 17.25 -14.98 17.45 -15.42 17.76 -15.95 18.16 -16.54 18.66 -17.26 19.28 -18.04 19.93 -18.88 20.75 -19.87 21.65 -20.91 22.62 -22.02 23.69 -23.21 24.87 -24.51 26.13 -25.87 27.48 -27.31 121.58 115.3 -27.68 27.51 -26.37 26.11 -25.17 24.81 -24.07 23.59 -23.06 22.44 -22.13 21.37 -21.33 20.43 -20.65 19.56 -20 18.72 -19.48 18.02 -19.08 17.38 -18.72 16.81 -18.51 16.34 -18.35 15.94 -18.3 15.61 -18.31 15.34 -18.42 15.16 -18.63 15.07 -18.94 15.06 -19.29 15.08 -19.76 15.23 -20.33 15.44 -20.96 15.73 -21.72 16.11 -22.56 16.59 -23.5 17.11 -24.53 17.75 -25.67 18.47 -26.91 19.28 -28.25 20.16 -29.67 21.15 -31.22 22.21 0 0 -100.36 -133.2zm0 0l100.36 133.2c-37.85,26.92 -91.02,18.93 -118.73,-17.85 -27.71,-36.78 -19.48,-88.43 18.37,-115.35zm-419.09 160.33l0.02 0 20.46 -0.06 19.17 -0.24 17.97 -0.41 16.78 -0.59 15.61 -0.78 14.51 -0.98 13.55 -1.2 12.59 -1.39 11.7 -1.61 10.97 -1.83 10.29 -2.03 9.71 -2.26 9.28 -2.49 8.98 -2.77 8.87 -3.09 8.81 -3.41 8.91 -3.81 9.09 -4.25 9.43 -4.78 9.89 -5.33 10.33 -5.92 10.88 -6.55 11.5 -7.21 12.15 -7.89 12.9 -8.61 13.65 -9.32 14.49 -10.06 15.35 -10.78 16.28 -11.53 17.26 -12.28 18.31 -13.06 19.4 -13.81 100.36 133.2 -19.28 13.73 -18.33 13.06 -17.48 12.44 -16.7 11.83 -16.01 11.24 -15.41 10.7 -14.93 10.18 -14.5 9.69 -14.21 9.23 -13.96 8.75 -13.84 8.33 -13.79 7.88 -13.77 7.45 -13.91 7.02 -14.07 6.57 -14.23 6.09 -14.45 5.61 -14.67 5.09 -14.94 4.61 -15.2 4.09 -15.45 3.6 -15.73 3.11 -16.03 2.67 -16.42 2.25 -16.79 1.87 -17.25 1.52 -17.85 1.22 -18.47 0.92 -19.14 0.67 -19.93 0.45 -20.87 0.26 -21.86 0.08 0.02 0 0 -165.08zm0.02 0l-0.04 165.08c-46.91,0 -84.94,-36.97 -84.93,-82.55 0.01,-45.58 38.06,-82.53 84.97,-82.53zm-791.73 108.16l-80.05 -109.25 27.42 0.1 27.43 0.09 27.39 0.09 27.39 0.07 27.36 0.08 27.34 0.07 27.34 0.07 27.29 0.06 54.6 0.1 54.54 0.09 54.49 0.07 54.46 0.06 54.41 0.05 54.39 0.03 54.35 0.03 54.33 0.01 54.33 0.01 54.31 0.01 54.29 0 54.3 0 0 165.08 -54.3 0 -54.31 0 -54.33 -0.01 -54.33 -0.01 -54.35 -0.01 -54.39 -0.03 -54.41 -0.03 -54.47 -0.05 -54.48 -0.06 -54.55 -0.07 -54.58 -0.09 -54.64 -0.1 -27.37 -0.06 -27.36 -0.07 -27.38 -0.07 -27.4 -0.08 -27.41 -0.09 -27.43 -0.09 -27.45 -0.09 -27.48 -0.1 -80.05 -109.25 160.76 53.44zm-80.05 -109.25l-0.66 165.06c-46.91,-0.17 -84.8,-37.27 -84.62,-82.85 0.18,-45.58 38.37,-82.38 85.28,-82.21zm1009.84 -3040.49l0.17 -0.47 160.59 53.91 -1090.55 3096.3 -160.76 -53.44 1090.55 -3096.3zm160.76 53.44l-160.76 -53.44c15.18,-43.12 63.49,-66.12 107.88,-51.37 44.39,14.75 68.06,61.69 52.88,104.81z"/>
    <path id="_1_6" class="fil3" d="M9608.45 14945.29l42.29 -117.77 185.84 -531.38 778.27 -0.26 207.39 543.35 44.73 114.63c19.79,101.25 85.17,229.86 114.83,332.37 29.38,101.69 -172.43,539.64 -229.98,644.65l-147.1 247.17c-29.06,32.57 2.07,5.6 -27.4,26.75l-330.01 -985.93 -789.51 2345.65c82.48,-34.36 509.63,-344.53 582.35,-412.16 122.8,-114.23 237.09,-201.45 344.18,-321.71 28.93,-32.44 51.48,-51.54 82.57,-85.95 29.7,-32.74 38.38,-47.82 74.87,-82.84 30.87,-29.6 49.5,-57.31 77.4,-92.2 275.65,-344.44 489.16,-745.01 606.06,-1190.62 45.09,-171.76 78.3,-367.74 89.37,-555.28 5.17,-87.57 -15.26,-596.3 -14.81,-597.65 51.61,254.39 102.73,458.28 120.86,737.8 50.04,770.02 -176.88,1366.84 -572.49,1961.52l-287.94 354.36c-301.66,300.25 -359.66,343.92 -700.96,586.63 -212.02,150.78 -237.22,176.31 -469.27,176.27 -289.6,0 -579.16,0 -872.09,-1.1l1090.55 -3096.3z"/>
   </g>
   <g>
    <path class="fil1" d="M11169.25 13745.35l155.82 -65.65 1.86 4.15 113.75 275.28 -157.68 61.5 -113.75 -275.28zm157.68 -61.5l-157.68 61.5c-17.47,-42.29 3.65,-90.36 47.19,-107.34 43.54,-16.98 93.02,3.55 110.49,45.84zm-726.83 -497.31l97.14 -130.88 23.65 10.53 23.57 11.47 23.48 12.34 23.38 13.18 23.26 13.97 23.17 14.76 23.01 15.48 22.84 16.17 22.69 16.83 22.5 17.49 22.27 18.06 22.03 18.63 21.79 19.17 21.51 19.69 21.2 20.15 20.85 20.59 20.51 20.99 20.13 21.4 19.69 21.72 19.28 22.04 18.81 22.35 18.32 22.6 17.79 22.82 17.26 23.04 16.69 23.23 16.07 23.37 15.43 23.48 14.79 23.59 14.08 23.67 13.36 23.71 12.61 23.76 11.81 23.76 -153.96 69.8 -9.85 -19.8 -10.63 -20.02 -11.42 -20.25 -12.12 -20.39 -12.83 -20.47 -13.51 -20.56 -14.13 -20.55 -14.73 -20.51 -15.32 -20.44 -15.85 -20.34 -16.36 -20.18 -16.81 -19.97 -17.26 -19.74 -17.67 -19.48 -18.01 -19.14 -18.35 -18.79 -18.65 -18.41 -18.9 -17.97 -19.11 -17.49 -19.31 -16.99 -19.47 -16.45 -19.55 -15.88 -19.62 -15.23 -19.65 -14.59 -19.66 -13.91 -19.57 -13.18 -19.47 -12.4 -19.32 -11.61 -19.12 -10.78 -18.88 -9.92 -18.57 -9.03 -18.21 -8.11 97.14 -130.88 -126.24 110.5zm97.14 -130.88l-68.04 151.26c-42.98,-18.25 -62.6,-66.92 -43.82,-108.68 18.78,-41.76 68.88,-60.83 111.86,-42.58zm552.59 1014.03l-128.93 62.12 2.16 -31.93 -0.01 -32.31 -2.11 -32.71 -4.14 -33.05 -6.1 -33.4 -7.98 -33.66 -9.79 -33.87 -11.48 -34.03 -13.09 -34.06 -14.58 -34.06 -15.98 -33.98 -17.25 -33.82 -18.41 -33.59 -19.44 -33.29 -20.35 -32.93 -21.13 -32.48 -21.79 -31.98 -22.32 -31.42 -22.73 -30.8 -23.01 -30.11 -23.14 -29.36 -23.17 -28.55 -23.05 -27.7 -22.82 -26.79 -22.45 -25.82 -21.96 -24.78 -21.36 -23.74 -20.6 -22.61 -19.75 -21.44 -18.78 -20.25 -17.7 -19.02 -16.49 -17.73 126.24 -110.5 16.31 17.57 17.76 19.08 19.08 20.57 20.25 21.98 21.26 23.33 22.14 24.6 22.9 25.86 23.49 27.02 24 28.15 24.33 29.24 24.55 30.27 24.64 31.26 24.59 32.19 24.43 33.1 24.12 33.96 23.69 34.76 23.13 35.56 22.43 36.29 21.6 36.99 20.63 37.67 19.53 38.3 18.3 38.92 16.92 39.5 15.37 40.06 13.7 40.57 11.85 41.07 9.84 41.54 7.66 41.94 5.3 42.35 2.73 42.65 0.01 42.89 -2.92 43.01 -128.93 62.12 88.8 -140.72zm-128.93 62.12l169.06 16.48c-4.68,45.35 -46.33,78.43 -93.01,73.88 -46.68,-4.55 -80.73,-45.01 -76.05,-90.36zm-313.02 -474.12l0.01 0 39.97 23.41 37.31 22.77 34.78 22.16 32.32 21.55 30.01 20.96 27.79 20.4 25.69 19.84 23.68 19.3 21.78 18.74 19.98 18.23 18.29 17.72 16.69 17.21 15.16 16.67 13.76 16.16 12.41 15.61 11.16 15.04 9.99 14.41 8.91 13.74 7.88 12.98 6.98 12.15 6.15 11.27 5.35 10.17 4.67 9.02 4.04 7.78 3.4 6.34 2.74 4.83 2.03 3.27 1.27 1.81 0.36 0.49 -0.48 -0.46 -1.04 -0.85 -1.09 -0.72 -88.8 140.72 -13.55 -9.04 -12.24 -10.17 -10.64 -10.76 -8.96 -10.83 -7.47 -10.51 -6.35 -10.11 -5.48 -9.59 -4.9 -9.14 -4.56 -8.78 -4.47 -8.62 -4.53 -8.61 -4.69 -8.61 -5.08 -8.85 -5.58 -9.2 -6.21 -9.58 -6.99 -10.11 -7.92 -10.66 -8.97 -11.29 -10.18 -11.96 -11.54 -12.69 -12.99 -13.41 -14.61 -14.14 -16.36 -14.93 -18.2 -15.68 -20.2 -16.46 -22.31 -17.22 -24.53 -18 -26.87 -18.78 -29.32 -19.55 -31.9 -20.32 -34.57 -21.11 -37.37 -21.87 0.01 0 86.38 -142.14zm0.01 0l-86.4 142.14c-40.39,-23.17 -53.8,-73.79 -29.95,-113.04 23.85,-39.25 75.96,-52.27 116.35,-29.1zm-873.73 -775.12l-0.01 -0.04 15.11 38.73 16.06 36.95 16.98 35.28 17.88 33.7 18.75 32.24 19.61 30.83 20.45 29.54 21.29 28.33 22.11 27.22 22.93 26.17 23.73 25.24 24.53 24.34 25.35 23.55 26.12 22.83 26.89 22.15 27.67 21.57 28.41 21.04 29.15 20.57 29.85 20.17 30.55 19.82 31.22 19.56 31.85 19.33 32.47 19.19 33.05 19.1 33.62 19.08 34.12 19.13 34.63 19.24 35.1 19.42 35.5 19.67 35.91 19.98 36.27 20.38 36.57 20.81 -86.38 142.14 -35.65 -20.29 -35.55 -19.96 -35.47 -19.74 -35.34 -19.57 -35.18 -19.48 -35.03 -19.46 -34.82 -19.51 -34.58 -19.64 -34.35 -19.84 -34.05 -20.13 -33.75 -20.49 -33.38 -20.92 -33.01 -21.42 -32.61 -22.03 -32.15 -22.69 -31.65 -23.44 -31.11 -24.25 -30.55 -25.17 -29.9 -26.13 -29.23 -27.17 -28.53 -28.32 -27.73 -29.48 -26.91 -30.73 -26.03 -32.04 -25.09 -33.41 -24.11 -34.82 -23.07 -36.29 -22.01 -37.8 -20.88 -39.38 -19.72 -40.98 -18.54 -42.65 -17.31 -44.35 -0.01 -0.04 159.96 -55.64zm-0.01 -0.04l-159.94 55.72c-15.83,-42.9 7.14,-90.17 51.3,-105.55 44.16,-15.38 92.81,6.93 108.64,49.83zm-64.36 -336.53l0 -0.04 0.91 11.87 0.97 11.75 1.02 11.68 1.08 11.58 1.13 11.47 1.2 11.4 1.25 11.29 1.33 11.21 1.38 11.14 1.45 10.99 1.53 10.95 1.59 10.85 1.68 10.77 1.73 10.67 1.82 10.57 1.9 10.53 1.98 10.44 2.05 10.32 2.15 10.27 2.23 10.2 2.31 10.12 2.4 10.02 2.49 9.95 2.59 9.92 2.67 9.81 2.77 9.72 2.88 9.69 2.97 9.62 3.06 9.52 3.18 9.49 3.28 9.43 3.39 9.37 -159.96 55.64 -4.05 -11.21 -3.92 -11.25 -3.78 -11.29 -3.66 -11.36 -3.51 -11.38 -3.38 -11.39 -3.27 -11.5 -3.13 -11.49 -3.01 -11.5 -2.91 -11.59 -2.78 -11.64 -2.67 -11.66 -2.55 -11.68 -2.45 -11.75 -2.35 -11.8 -2.24 -11.84 -2.14 -11.85 -2.06 -11.95 -1.95 -11.97 -1.86 -12.01 -1.77 -12.07 -1.69 -12.09 -1.61 -12.21 -1.52 -12.18 -1.45 -12.27 -1.37 -12.33 -1.3 -12.36 -1.23 -12.43 -1.16 -12.48 -1.1 -12.54 -1.03 -12.61 -0.97 -12.65 0 -0.04 169.46 -11.84zm0 -0.04l-169.46 11.92c-3.38,-45.46 31.81,-84.99 78.6,-88.28 46.79,-3.29 87.48,30.9 90.86,76.36zm-3.15 -188.71l0 0 -0.33 5.86 -0.28 5.83 -0.25 5.97 -0.24 5.89 -0.18 5.85 -0.16 5.96 -0.13 5.97 -0.11 5.96 -0.07 5.9 -0.04 5.95 -0.02 6.01 0.01 5.95 0.04 5.93 0.07 5.93 0.09 5.98 0.11 5.96 0.15 5.94 0.16 6 0.18 5.91 0.21 5.91 0.23 5.94 0.25 5.93 0.26 5.9 0.29 5.88 0.31 5.85 0.32 5.89 0.34 5.81 0.36 5.76 0.38 5.87 0.39 5.78 0.4 5.76 0.41 5.72 -169.46 11.84 -0.45 -6.16 -0.44 -6.2 -0.41 -6.22 -0.4 -6.19 -0.4 -6.34 -0.36 -6.37 -0.36 -6.31 -0.33 -6.41 -0.31 -6.42 -0.3 -6.44 -0.27 -6.47 -0.25 -6.48 -0.23 -6.55 -0.2 -6.57 -0.18 -6.52 -0.15 -6.6 -0.13 -6.6 -0.11 -6.62 -0.07 -6.69 -0.04 -6.69 -0.01 -6.71 0.02 -6.65 0.04 -6.71 0.09 -6.78 0.11 -6.72 0.15 -6.73 0.18 -6.72 0.22 -6.85 0.26 -6.79 0.29 -6.71 0.34 -6.85 0.37 -6.8 0 0 169.64 9.28zm0 0l-169.64 -9.28c2.63,-45.5 42.75,-80.32 89.59,-77.76 46.84,2.56 82.68,41.54 80.05,87.04zm6.95 -101.36l0 -0.04 -0.46 6.53 -0.47 6.57 -0.47 6.64 -0.48 6.7 -0.48 6.68 -0.48 6.63 -0.47 6.64 -0.47 6.61 -0.45 6.52 -0.44 6.39 -0.43 6.3 -0.42 6.27 -0.4 6.01 -0.36 5.82 -0.35 5.63 -0.32 5.46 -169.64 -9.28 0.34 -5.82 0.37 -6.01 0.4 -6.2 0.42 -6.29 0.42 -6.31 0.43 -6.5 0.46 -6.61 0.47 -6.64 0.47 -6.65 0.47 -6.72 0.48 -6.73 0.48 -6.7 0.48 -6.64 0.47 -6.6 0.47 -6.57 0.46 -6.45 0 -0.04 169.5 11.4zm0 -0.04l-169.5 -11.32c3.21,-45.47 43.77,-79.8 90.57,-76.68 46.8,3.12 82.14,42.53 78.93,88zm-140.74 -77.64l148.18 31.5 -0.57 0.7 -0.42 0.55 -0.29 0.42 -0.28 0.42 -0.25 0.41 -0.26 0.46 -0.15 0.26 -0.13 0.28 -0.19 0.42 -0.13 0.33 -0.15 0.4 -0.17 0.49 -0.21 0.69 -0.21 0.73 -0.21 0.82 -0.24 1.05 -0.24 1.15 -0.24 1.29 -0.23 1.43 -0.22 1.47 -0.23 1.78 -0.24 2.1 -0.23 2.14 -0.21 2.17 -0.21 2.49 -0.21 2.65 -0.2 2.7 -0.2 2.96 -0.44 6.52 -0.48 6.9 -169.5 -11.4 0.44 -6.44 0.44 -6.48 0.24 -3.42 0.26 -3.6 0.29 -3.57 0.31 -3.67 0.37 -3.91 0.41 -3.88 0.46 -3.86 0.53 -4.12 0.64 -4.37 0.73 -4.35 0.82 -4.43 0.94 -4.55 1.06 -4.59 1.21 -4.76 1.37 -4.83 1.51 -4.83 1.71 -4.99 1.91 -5.06 2.11 -5.09 2.25 -4.98 2.49 -5.1 2.71 -5.1 2.8 -4.88 3.03 -4.91 3.24 -4.9 3.49 -4.9 3.62 -4.75 3.73 -4.6 148.18 31.5 -164.54 41.14zm148.18 31.5l-131.82 -104.14c29.6,-35.36 83.11,-40.72 119.51,-11.97 36.4,28.75 41.91,80.75 12.31,116.11zm1559.65 1749.42l-163.79 30.97 -4.05 -115.38 -11.1 -106.37 -17.62 -97.92 -23.62 -90.03 -29.1 -82.73 -34.16 -76.05 -38.79 -69.99 -43.1 -64.51 -47.07 -59.63 -50.76 -55.24 -54.13 -51.34 -57.19 -47.87 -59.89 -44.81 -62.22 -42.13 -64.14 -39.86 -65.66 -37.95 -66.72 -36.48 -67.37 -35.39 -67.57 -34.77 -67.31 -34.56 -66.65 -34.85 -65.54 -35.61 -63.98 -36.9 -61.98 -38.74 -59.52 -41.14 -56.54 -44.15 -52.98 -47.78 -48.73 -51.99 -43.74 -56.7 -37.88 -61.77 -31.2 -67.02 -23.73 -72.23 164.54 -41.14 17.85 54.29 23.2 49.78 28.36 46.21 33.48 43.32 38.49 41.01 43.36 39.06 47.96 37.43 52.24 36.08 56.12 35.04 59.5 34.3 62.44 33.93 64.87 33.91 66.83 34.32 68.29 35.13 69.27 36.41 69.76 38.14 69.78 40.35 69.28 43.06 68.3 46.27 66.77 49.99 64.73 54.19 62.09 58.92 58.84 64.08 54.99 69.67 50.5 75.65 45.41 81.93 39.74 88.53 33.56 95.39 26.88 102.53 19.8 110 12.3 117.77 4.41 125.9 -163.79 30.97 157.68 -61.5zm-163.79 30.97l169.9 -0.44c0.12,45.58 -37.81,82.64 -84.72,82.76 -46.91,0.12 -85.06,-36.74 -85.18,-82.32z"/>
    <path id="_1_7" class="fil4" d="M11361.84 13989.88l-113.75 -275.28c-111.23,-231.57 -362.45,-488.88 -584.87,-583.31 167.43,180.55 583.38,609.93 542.21,1008.76 -70.24,-41.84 -13.32,-166.04 -440.74,-411.29 -386.12,-221.51 -743.49,-365.82 -910.51,-818.37 -40.36,-109.51 -59.35,-227.28 -69.12,-358.47 -4.68,-63.22 -7.15,-131.81 -3.24,-199.31 1.71,-29.51 4.59,-68.06 7.02,-102.42 2.57,-36.07 2.61,-64.27 26.28,-92.55 186.02,702.35 1543.03,498.15 1546.72,1832.24z"/>
   </g>
   <g>
    <path class="fil1" d="M11019.84 17233.55l0 0 -4.68 5.92 -4.15 5.31 -3.54 4.58 -2.84 3.78 -2.13 2.95 -1.46 2.15 -0.8 1.27 -0.11 0.17 0.44 -0.91 0.68 -1.69 0.79 -2.5 0.73 -3.17 0.44 -3.15 0.16 -2.81 -0.05 -2.1 -0.08 -0.94 0.01 0.05 0.24 1.11 0.6 2.35 0.99 3.43 1.36 4.37 1.74 5.3 2.13 6.23 2.48 7.09 2.8 7.93 3.12 8.8 3.41 9.68 3.68 10.57 3.92 11.45 4.16 12.39 4.37 13.31 4.59 14.29 -162.4 48.54 -4.23 -13.19 -4.03 -12.27 -3.84 -11.41 -3.64 -10.63 -3.44 -9.89 -3.27 -9.28 -3.08 -8.72 -2.92 -8.25 -2.74 -7.87 -2.59 -7.57 -2.46 -7.46 -2.3 -7.41 -2.13 -7.49 -1.98 -7.81 -1.76 -8.37 -1.39 -8.83 -0.9 -9.34 -0.27 -10.1 0.58 -10.51 1.48 -10.63 2.43 -10.53 3.15 -9.82 3.7 -9.11 4.14 -8.47 4.31 -7.65 4.32 -6.89 4.38 -6.47 4.45 -6.19 4.5 -6 4.56 -5.9 4.71 -6.01 4.98 -6.3 0 0 134.68 100.62zm0 0l-134.68 -100.62c28.59,-36.13 81.93,-42.9 119.12,-15.12 37.19,27.78 44.15,79.61 15.56,115.74zm123.02 -173.21l0.01 -0.01 -3.53 4.79 -3.52 4.84 -3.55 4.94 -3.56 4.99 -3.57 5.05 -3.62 5.16 -3.57 5.1 -3.62 5.24 -3.66 5.3 -3.64 5.31 -3.69 5.38 -3.65 5.34 -7.47 10.97 -7.5 10.98 -3.81 5.57 -3.85 5.62 -3.85 5.59 -3.89 5.61 -3.88 5.57 -3.96 5.66 -4 5.66 -3.99 5.61 -4.07 5.67 -4.1 5.64 -4.12 5.63 -4.16 5.6 -4.2 5.61 -4.33 5.68 -4.32 5.58 -4.35 5.53 -134.68 -100.62 3.59 -4.59 3.6 -4.64 3.53 -4.64 3.6 -4.79 3.62 -4.88 3.62 -4.93 3.6 -4.96 3.59 -5.01 3.65 -5.13 3.62 -5.12 3.62 -5.18 3.68 -5.29 3.65 -5.27 3.67 -5.33 3.67 -5.32 3.67 -5.39 7.46 -10.92 7.45 -10.93 3.81 -5.58 3.77 -5.5 3.82 -5.57 3.82 -5.52 3.84 -5.56 3.93 -5.64 3.88 -5.52 3.93 -5.57 3.98 -5.57 3.99 -5.54 4.06 -5.58 4.07 -5.53 0.01 -0.01 137.9 96.42zm0.01 -0.01l-137.92 -96.4c27.39,-37 80.49,-45.42 118.57,-18.8 38.08,26.62 46.74,78.2 19.35,115.2zm175.37 -569.72l144.24 27.83 5.66 -7.14 -0.84 1.38 -2.87 4.85 -4.11 7.19 -5.1 9.08 -5.99 10.83 -6.82 12.4 -7.56 13.8 -8.27 15.12 -8.9 16.28 -9.5 17.37 -10.05 18.35 -10.58 19.24 -11.04 19.99 -11.46 20.68 -11.86 21.27 -12.2 21.74 -12.5 22.13 -12.78 22.42 -12.99 22.6 -13.17 22.69 -13.32 22.69 -13.42 22.61 -13.5 22.41 -13.51 22.12 -13.53 21.79 -13.5 21.3 -13.4 20.74 -13.33 20.14 -13.2 19.42 -13.07 18.65 -12.91 17.76 -137.9 -96.42 11.17 -15.38 11.59 -16.53 11.96 -17.6 12.27 -18.54 12.52 -19.38 12.7 -20.06 12.83 -20.65 12.93 -21.16 12.96 -21.53 12.96 -21.81 12.9 -21.99 12.81 -22.07 12.67 -22.02 12.46 -21.88 12.24 -21.67 11.98 -21.34 11.64 -20.89 11.3 -20.38 10.9 -19.75 10.46 -19.02 9.97 -18.19 9.46 -17.29 8.9 -16.28 8.29 -15.16 7.66 -14 7 -12.7 6.31 -11.41 5.66 -10.08 4.97 -8.69 4.47 -7.57 4.66 -7.38 9.26 -12.02 144.24 27.83 -160.82 53.28zm144.24 27.83l-127.66 -108.94c30.96,-34.24 84.64,-37.62 119.89,-7.54 35.25,30.08 38.73,82.24 7.77,116.48zm570.72 1497.67l-80.42 109.18 -80.4 -55.9 -554.14 -1578.78 160.82 -53.28 554.14 1578.78zm-160.82 53.28l160.82 -53.28c15.14,43.14 -8.59,90.05 -52.99,104.76 -44.4,14.71 -92.69,-8.34 -107.83,-51.48zm-696.03 55.85l-80.97 -57.59 80.99 -107.49 776.43 0.05 -0.02 165.08 -776.43 -0.05zm0.02 -165.08l-0.02 165.08c-46.91,0 -84.94,-36.97 -84.94,-82.55 0,-45.58 38.05,-82.53 84.96,-82.53zm-295.71 -550.18l-0.22 -0.68 162.18 -49.22 214.72 657.67 -161.96 49.9 -214.72 -657.67zm161.96 -49.9l-161.96 49.9c-14.18,-43.44 10.57,-89.85 55.29,-103.62 44.72,-13.77 92.49,10.28 106.67,53.72z"/>
    <path id="_1_8" class="fil4" d="M10961.64 17385.03c-48.06,-151.78 -62.77,-134.03 -9.14,-201.79 42.53,-53.73 80.82,-116.29 121.41,-171.11 126.66,-170.97 310.79,-532.73 324.74,-548.16l554.14 1578.78 -776.43 -0.05 -214.72 -657.67z"/>
   </g>
  </g>
 </g>
</svg>
