<?xml version="1.0" encoding="UTF-8"?>
<!DOCTYPE svg PUBLIC "-//W3C//DTD SVG 1.1//EN" "http://www.w3.org/Graphics/SVG/1.1/DTD/svg11.dtd">
<!-- Creator: CorelDRAW -->
<svg xmlns="http://www.w3.org/2000/svg" xml:space="preserve" width="162.24mm" height="159.12mm" version="1.1" style="shape-rendering:geometricPrecision; text-rendering:geometricPrecision; image-rendering:optimizeQuality; fill-rule:evenodd; clip-rule:evenodd"
viewBox="0 0 16209.67 15897.96"
 xmlns:xlink="http://www.w3.org/1999/xlink"
 xmlns:xodm="http://www.corel.com/coreldraw/odm/2003">
 <defs>
  <style type="text/css">
   <![CDATA[
    .fil1 {fill:#FEFEFE}
    .fil0 {fill:#E31E24}
    .fil4 {fill:#009846}
    .fil5 {fill:#009846}
    .fil2 {fill:#FEFEFE;fill-rule:nonzero}
    .fil3 {fill:#009846;fill-rule:nonzero}
   ]]>
  </style>
 </defs>
 <g id="Layer_x0020_1">
  <metadata id="CorelCorpID_0Corel-Layer"/>
  <g id="_2410147554192">
   <rect class="fil0" x="-0.03" y="0" width="16209.67" height="15897.95"/>
   <g>
    <path class="fil1" d="M6228.3 6582.99l-4636.27 219.87c637.91,387.44 1255.42,811.75 1924.32,1241.18 238.8,153.3 1837.57,1161.74 1919,1260.5l-1233.83 4318.28c98.58,-101.37 3107.92,-3420.26 3262.12,-3665.7 -116.77,48.99 -585.13,440.4 -728.53,547.56 -123.64,92.38 -637.93,533.58 -778.15,559.82 71.33,-355.09 620.55,-2014.84 581.25,-2169.69 -31.38,-92.22 -370.04,-270.59 -459.17,-328.11 -246.42,-159.04 -1397.85,-874.12 -1437.32,-955.57 118.97,-40.7 2121.28,-110.82 2323.89,-106.24l641.53 -2208.71c54.22,40.92 370.48,916.85 426.83,1063.93 55.14,143.89 362,997.2 431.57,1073.82l3746.35 -1073.56 -3105.19 97.46c-352.07,-1062.32 -974.9,-2525.36 -1399.04,-3663.83 -47.88,-128.51 -141.55,-453.4 -229.19,-518.81l-1250.17 4307.8z"/>
    <g>
     <path class="fil2" d="M10687.9 8061.16l103.39 130.29 0 0 -10.22 7.84 -9.86 7.97 -9.46 8.08 -9.12 8.22 -8.73 8.33 -8.37 8.45 -8.02 8.59 -7.67 8.71 -7.34 8.84 -6.98 8.97 -6.68 9.13 -6.34 9.24 -6.02 9.41 -5.72 9.56 -5.39 9.69 -5.09 9.87 -4.82 10.07 -4.49 10.22 -4.18 10.38 -3.89 10.6 -3.6 10.82 -3.29 11.01 -2.99 11.2 -2.69 11.4 -2.37 11.65 -2.09 11.91 -1.76 12.1 -1.46 12.35 -1.13 12.58 -0.82 12.83 -0.49 13.07 -0.17 13.32 -169.49 0 0.21 -17.29 0.65 -17.14 1.08 -17.01 1.53 -16.84 1.96 -16.69 2.42 -16.54 2.85 -16.33 3.31 -16.19 3.77 -16.06 4.23 -15.84 4.69 -15.65 5.14 -15.44 5.59 -15.26 6.07 -15.1 6.52 -14.84 6.95 -14.61 7.42 -14.41 7.9 -14.19 8.32 -13.92 8.76 -13.67 9.22 -13.46 9.64 -13.17 10.08 -12.93 10.5 -12.66 10.91 -12.39 11.34 -12.13 11.73 -11.85 12.15 -11.59 12.52 -11.3 12.92 -11.04 13.3 -10.75 13.68 -10.5 0 0zm0 0c37.08,-27.69 90.3,-20.97 118.85,15 28.54,35.97 21.62,87.6 -15.46,115.29l-103.39 -130.29zm605.71 -162.16l0 164.41 0 0 -21.2 0.13 -20.84 0.41 -20.5 0.67 -20.13 0.93 -19.76 1.2 -19.44 1.47 -19.05 1.72 -18.68 1.98 -18.36 2.24 -17.97 2.49 -17.6 2.75 -17.26 3 -16.89 3.25 -16.56 3.5 -16.18 3.74 -15.81 3.98 -15.49 4.22 -15.1 4.45 -14.75 4.69 -14.42 4.93 -14.04 5.14 -13.7 5.38 -13.35 5.6 -13 5.81 -12.69 6.05 -12.33 6.24 -11.99 6.47 -11.7 6.7 -11.35 6.9 -11.03 7.11 -10.74 7.36 -10.41 7.54 -103.39 -130.29 14.21 -10.3 14.52 -9.92 14.87 -9.61 15.21 -9.24 15.5 -8.88 15.85 -8.55 16.17 -8.2 16.45 -7.83 16.78 -7.51 17.08 -7.15 17.37 -6.81 17.67 -6.47 17.95 -6.12 18.26 -5.8 18.55 -5.47 18.82 -5.14 19.12 -4.82 19.43 -4.48 19.67 -4.16 20 -3.85 20.28 -3.52 20.56 -3.21 20.85 -2.89 21.12 -2.58 21.42 -2.28 21.71 -1.96 21.98 -1.65 22.28 -1.36 22.57 -1.05 22.84 -0.75 23.16 -0.45 23.44 -0.15 0 0zm0 0c46.8,0 84.75,36.81 84.75,82.21 0,45.4 -37.95,82.21 -84.75,82.21l0 -164.41zm537.59 141.5l-169.49 0 57.91 77.97 -10.44 -3.31 -10.58 -3.2 -10.81 -3.1 -11.01 -3.03 -11.15 -2.92 -11.34 -2.81 -11.54 -2.72 -11.75 -2.62 -11.93 -2.52 -12.11 -2.42 -12.3 -2.32 -12.49 -2.22 -12.65 -2.11 -12.86 -2 -13.05 -1.91 -13.24 -1.79 -13.43 -1.7 -13.59 -1.59 -13.8 -1.48 -13.95 -1.38 -14.17 -1.26 -14.34 -1.16 -14.51 -1.04 -14.71 -0.94 -14.91 -0.83 -15.08 -0.72 -15.27 -0.61 -15.45 -0.5 -15.63 -0.39 -15.8 -0.28 -15.99 -0.17 -16.18 -0.05 0 -164.41 17.37 0.07 17.22 0.17 17.09 0.3 16.91 0.43 16.75 0.54 16.61 0.67 16.44 0.78 16.29 0.91 16.13 1.02 16.01 1.16 15.82 1.28 15.67 1.4 15.55 1.52 15.36 1.66 15.21 1.77 15.05 1.9 14.9 2.03 14.75 2.15 14.6 2.28 14.47 2.41 14.29 2.54 14.14 2.66 13.99 2.8 13.83 2.92 13.69 3.06 13.54 3.18 13.4 3.33 13.27 3.46 13.05 3.59 12.93 3.72 12.8 3.88 12.62 3.99 57.91 77.97zm-57.91 -77.97c44.39,14.38 68.36,60.95 53.54,104.01 -14.82,43.06 -62.82,66.31 -107.22,51.93l53.67 -155.94zm-111.58 521.04l0 -443.07 169.49 0 0 443.07 -115.12 76.74 -54.37 -76.74zm169.49 0c0,45.4 -37.95,82.21 -84.75,82.21 -46.8,0 -84.75,-36.81 -84.75,-82.21l169.49 0zm-470.15 10.44l0 -164.41 0 0 13.06 0.08 13.06 0.23 13.05 0.38 13.07 0.53 13.05 0.68 13.09 0.84 13.05 0.99 13.02 1.14 13.04 1.29 13.07 1.44 13.04 1.6 12.99 1.74 13.07 1.9 13.02 2.05 13.02 2.2 13.01 2.35 12.99 2.49 13 2.66 12.99 2.79 12.99 2.95 12.97 3.1 13 3.26 12.92 3.39 12.96 3.53 12.97 3.71 12.92 3.84 12.9 3.98 12.91 4.13 12.94 4.3 12.89 4.43 12.89 4.58 12.87 4.72 -60.75 153.48 -11.21 -4.12 -11.21 -3.98 -11.19 -3.85 -11.16 -3.7 -11.17 -3.57 -11.2 -3.46 -11.16 -3.32 -11.11 -3.17 -11.14 -3.05 -11.16 -2.93 -11.1 -2.78 -11.11 -2.64 -11.11 -2.53 -11.09 -2.39 -11.1 -2.26 -11.09 -2.13 -11.07 -2.01 -11.08 -1.86 -11.06 -1.75 -11.03 -1.6 -11.09 -1.48 -11.06 -1.36 -11.01 -1.22 -11.04 -1.09 -11.08 -0.96 -11.03 -0.85 -11.01 -0.7 -11.03 -0.58 -11.03 -0.45 -11.03 -0.32 -11.04 -0.19 -11.02 -0.06 0 0zm0 0c-46.8,0 -84.75,-36.81 -84.75,-82.21 0,-45.4 37.95,-82.21 84.75,-82.21l0 164.41zm-213.07 29.83l-94.14 -136.72 0.02 -0.01 7.21 -4.48 7.33 -4.16 7.45 -3.89 7.58 -3.63 7.62 -3.37 7.88 -3.22 8.05 -3.01 8.03 -2.78 8.23 -2.63 8.37 -2.45 8.51 -2.31 8.75 -2.18 8.82 -2.02 8.93 -1.88 9.18 -1.77 9.38 -1.65 9.51 -1.52 9.7 -1.42 9.88 -1.3 10.06 -1.2 10.26 -1.09 10.46 -0.99 10.66 -0.89 10.85 -0.79 11.11 -0.7 11.26 -0.59 11.44 -0.51 11.69 -0.41 11.94 -0.32 12.11 -0.23 12.34 -0.13 12.55 -0.05 0 164.41 -11.29 0.03 -11.02 0.13 -10.75 0.19 -10.44 0.28 -10.19 0.37 -9.96 0.43 -9.64 0.51 -9.31 0.58 -9.07 0.67 -8.78 0.73 -8.48 0.81 -8.2 0.87 -7.9 0.94 -7.6 1 -7.3 1.06 -6.97 1.12 -6.64 1.17 -6.34 1.23 -6.09 1.28 -5.72 1.3 -5.32 1.32 -5.04 1.37 -4.72 1.39 -4.36 1.39 -4.08 1.4 -3.56 1.33 -3.23 1.32 -3.01 1.33 -2.57 1.23 -2.2 1.15 -1.84 1.04 -1.46 0.9 0.02 -0.01zm-0.02 0.01c-38.93,25.2 -91.56,15.02 -117.54,-22.74 -25.98,-37.76 -15.49,-88.8 23.44,-114l94.1 136.74zm-29.74 50.21l-169.49 0 0 0 0.1 -6.88 0.29 -6.89 0.51 -6.96 0.71 -6.94 0.93 -6.84 1.13 -6.81 1.38 -6.87 1.59 -6.76 1.8 -6.69 2.05 -6.72 2.27 -6.6 2.46 -6.47 2.74 -6.51 2.94 -6.36 3.17 -6.31 3.36 -6.12 3.58 -6.06 3.81 -5.95 3.96 -5.77 4.15 -5.63 4.33 -5.51 4.58 -5.46 4.68 -5.22 4.84 -5.08 5.03 -4.97 5.17 -4.82 5.32 -4.66 5.39 -4.47 5.59 -4.39 5.65 -4.18 5.76 -4.06 5.92 -3.95 94.14 136.72 -2.37 1.57 -2.27 1.6 -2.13 1.58 -1.93 1.51 -1.87 1.55 -1.66 1.46 -1.55 1.44 -1.43 1.41 -1.36 1.44 -1.26 1.4 -1.08 1.28 -1.07 1.37 -0.99 1.35 -0.92 1.34 -0.81 1.26 -0.76 1.29 -0.74 1.35 -0.65 1.28 -0.62 1.35 -0.56 1.34 -0.56 1.48 -0.51 1.47 -0.45 1.49 -0.44 1.62 -0.39 1.69 -0.34 1.7 -0.31 1.88 -0.27 1.97 -0.21 1.99 -0.15 2.09 -0.09 2.3 -0.04 2.41 0 0zm0 0c0,45.4 -37.95,82.21 -84.75,82.21 -46.8,0 -84.75,-36.81 -84.75,-82.21l169.49 0zm-169.49 1026.55l0 -1026.55 169.49 0 0 1026.55 0 0 -169.49 0zm169.49 0c0,45.4 -37.95,82.21 -84.75,82.21 -46.8,0 -84.75,-36.81 -84.75,-82.21l169.49 0zm17.73 50.78l-108.6 126.23 0 -0.01 -4.88 -4.06 -4.75 -4.22 -4.64 -4.36 -4.49 -4.5 -4.3 -4.58 -4.22 -4.76 -4.1 -4.95 -3.85 -4.96 -3.74 -5.12 -3.6 -5.29 -3.32 -5.21 -3.24 -5.42 -3.11 -5.65 -2.81 -5.47 -2.67 -5.58 -2.56 -5.77 -2.39 -5.89 -2.16 -5.81 -1.98 -5.81 -1.85 -5.97 -1.67 -5.99 -1.49 -5.91 -1.36 -6.06 -1.21 -6.2 -1.02 -6.03 -0.9 -6.14 -0.73 -6.17 -0.6 -6.1 -0.47 -6.3 -0.32 -6.24 -0.19 -6.18 -0.07 -6.28 169.49 0 0.03 3.01 0.09 2.97 0.14 2.77 0.19 2.55 0.26 2.63 0.29 2.42 0.34 2.31 0.38 2.28 0.39 1.97 0.44 1.95 0.49 1.98 0.49 1.76 0.51 1.64 0.56 1.64 0.56 1.52 0.53 1.3 0.56 1.28 0.63 1.32 0.67 1.31 0.55 0.99 0.64 1.06 0.72 1.15 0.64 0.93 0.68 0.94 0.77 0.98 0.7 0.85 0.78 0.88 0.88 0.94 0.87 0.86 0.92 0.88 0.99 0.86 1.06 0.9 0 -0.01zm0 0.01c35.93,29.08 40.74,80.93 10.76,115.78 -29.98,34.85 -83.44,39.52 -119.36,10.43l108.6 -126.21zm88.61 19.89l0 164.41 0 0 -6.99 -0.05 -6.94 -0.13 -6.96 -0.24 -6.84 -0.33 -6.77 -0.41 -6.81 -0.53 -6.67 -0.63 -6.62 -0.72 -6.58 -0.83 -6.52 -0.93 -6.56 -1.06 -6.42 -1.16 -6.38 -1.26 -6.41 -1.41 -6.3 -1.52 -6.21 -1.63 -6.18 -1.76 -6.14 -1.89 -6.15 -2.05 -6.01 -2.16 -5.94 -2.29 -5.89 -2.43 -5.82 -2.57 -5.83 -2.76 -5.8 -2.94 -5.6 -3.03 -5.45 -3.13 -5.48 -3.35 -5.41 -3.52 -5.31 -3.69 -5.12 -3.79 -5.03 -3.94 108.6 -126.23 1.09 0.86 1.18 0.87 1.17 0.81 1.25 0.82 1.36 0.83 1.59 0.91 1.6 0.87 1.59 0.8 1.74 0.82 1.93 0.85 2.04 0.85 2.17 0.83 2.28 0.82 2.32 0.77 2.51 0.77 2.67 0.76 2.8 0.73 2.91 0.7 2.98 0.65 3.19 0.64 3.33 0.6 3.37 0.54 3.59 0.51 3.71 0.47 3.87 0.42 3.98 0.37 4.04 0.31 4.24 0.27 4.37 0.21 4.43 0.14 4.63 0.09 4.76 0.03 0 0zm0 0c46.8,0 84.75,36.81 84.75,82.21 0,45.4 -37.95,82.21 -84.75,82.21l0 -164.41zm61.39 57.25l169.49 0 -46.81 73.51 -5.04 2.38 -5.07 2.25 -5.02 2.11 -5.02 1.99 -5.21 1.95 -5.39 1.89 -5.21 1.72 -5.32 1.65 -5.39 1.57 -5.37 1.47 -5.49 1.4 -5.51 1.32 -5.58 1.24 -5.53 1.14 -5.67 1.1 -5.72 1.01 -5.67 0.94 -5.82 0.88 -5.87 0.81 -5.92 0.74 -5.97 0.68 -6.03 0.61 -6 0.54 -6.14 0.5 -6.19 0.42 -6.18 0.37 -6.32 0.31 -6.37 0.25 -6.44 0.2 -6.42 0.13 -6.56 0.09 -6.62 0.03 0 -164.41 5.13 -0.01 5.03 -0.07 5.01 -0.11 4.81 -0.14 4.7 -0.19 4.61 -0.23 4.55 -0.27 4.38 -0.3 4.27 -0.34 4.23 -0.38 4.04 -0.41 3.92 -0.44 3.81 -0.48 3.68 -0.51 3.57 -0.54 3.54 -0.58 3.33 -0.59 3.21 -0.62 3.19 -0.66 2.96 -0.66 2.87 -0.68 2.73 -0.7 2.67 -0.73 2.47 -0.71 2.38 -0.75 2.33 -0.76 1.97 -0.69 1.97 -0.75 2 -0.79 1.84 -0.77 1.61 -0.71 1.48 -0.7 -46.81 73.51zm46.81 -73.51c41.85,-20.32 92.77,-3.89 113.72,36.71 20.95,40.59 4.01,89.98 -37.85,110.3l-75.87 -147.01zm122.68 -656.63l0 730.14 -169.49 0 0 -730.14 84.75 -82.21 84.75 82.21zm-169.49 0c0,-45.4 37.95,-82.21 84.75,-82.21 46.8,0 84.75,36.81 84.75,82.21l-169.49 0zm553.64 82.21l-468.9 0 0 -164.41 468.9 0 84.75 82.21 -84.75 82.21zm0 -164.41c46.8,0 84.75,36.81 84.75,82.21 0,45.4 -37.95,82.21 -84.75,82.21l0 -164.41zm-84.75 1127.49l0 -1045.28 169.49 0 0 1045.28 -44.52 72.36 -124.97 -72.36zm169.49 0c0,45.4 -37.95,82.21 -84.75,82.21 -46.8,0 -84.75,-36.81 -84.75,-82.21l169.49 0zm-678.9 213.25l0 -164.41 0 0 20.34 -0.12 20.14 -0.36 19.92 -0.61 19.74 -0.85 19.55 -1.09 19.32 -1.33 19.14 -1.57 18.97 -1.81 18.72 -2.04 18.53 -2.29 18.38 -2.53 18.13 -2.75 17.96 -3 17.76 -3.22 17.55 -3.47 17.36 -3.7 17.18 -3.93 17 -4.16 16.81 -4.4 16.59 -4.61 16.42 -4.87 16.23 -5.08 16.03 -5.32 15.89 -5.56 15.65 -5.75 15.49 -6 15.31 -6.22 15.11 -6.46 14.95 -6.69 14.77 -6.91 14.58 -7.14 14.41 -7.38 80.45 144.71 -17.08 8.74 -17.27 8.46 -17.46 8.19 -17.64 7.89 -17.84 7.62 -18 7.32 -18.18 7.06 -18.4 6.77 -18.52 6.47 -18.74 6.21 -18.9 5.91 -19.07 5.65 -19.28 5.37 -19.42 5.08 -19.59 4.8 -19.76 4.53 -19.94 4.24 -20.13 3.97 -20.28 3.68 -20.44 3.42 -20.63 3.13 -20.76 2.85 -20.97 2.59 -21.14 2.3 -21.25 2.03 -21.44 1.77 -21.64 1.49 -21.77 1.21 -21.94 0.95 -22.12 0.67 -22.26 0.4 -22.44 0.14 0 0zm0 0c-46.8,0 -84.75,-36.81 -84.75,-82.21 0,-45.4 37.95,-82.21 84.75,-82.21l0 164.41zm-574.57 -155.11l105.39 -128.77 0.01 0.01 9.33 6.97 9.68 6.81 9.94 6.58 10.28 6.39 10.6 6.21 10.92 6 11.27 5.81 11.64 5.65 11.9 5.41 12.29 5.21 12.69 5.04 12.99 4.82 13.31 4.58 13.74 4.4 14.07 4.18 14.43 3.95 14.79 3.74 15.14 3.51 15.54 3.28 15.87 3.06 16.24 2.81 16.62 2.59 16.97 2.35 17.34 2.11 17.69 1.88 18.03 1.62 18.41 1.38 18.76 1.13 19.16 0.88 19.49 0.63 19.85 0.39 20.2 0.12 0 164.41 -22.42 -0.14 -22.15 -0.43 -21.83 -0.71 -21.54 -1 -21.28 -1.27 -20.99 -1.58 -20.71 -1.86 -20.41 -2.16 -20.12 -2.45 -19.86 -2.75 -19.55 -3.05 -19.29 -3.35 -19 -3.66 -18.69 -3.96 -18.45 -4.27 -18.14 -4.58 -17.88 -4.91 -17.56 -5.22 -17.27 -5.52 -17.04 -5.87 -16.73 -6.19 -16.37 -6.49 -16.15 -6.84 -15.86 -7.2 -15.5 -7.5 -15.21 -7.85 -14.92 -8.2 -14.58 -8.53 -14.28 -8.89 -13.94 -9.24 -13.58 -9.55 -13.27 -9.91 0.01 0.01zm-0.01 -0.01c-36.65,-28.24 -42.76,-79.95 -13.66,-115.5 29.1,-35.55 82.42,-41.48 119.06,-13.25l-105.41 128.75zm-210.29 -451.28l169.49 0 0 0 0.15 13.69 0.47 13.4 0.76 13.18 1.05 12.87 1.36 12.64 1.64 12.35 1.94 12.09 2.21 11.84 2.5 11.59 2.77 11.32 3.05 11.08 3.33 10.87 3.59 10.6 3.86 10.37 4.15 10.19 4.39 9.94 4.66 9.71 4.94 9.52 5.22 9.34 5.5 9.16 5.73 8.93 6.04 8.77 6.33 8.63 6.62 8.44 6.89 8.28 7.2 8.11 7.5 7.96 7.82 7.81 8.17 7.69 8.45 7.52 8.78 7.37 9.14 7.23 -105.39 128.77 -12.8 -10.15 -12.44 -10.43 -12.09 -10.74 -11.67 -11.01 -11.34 -11.31 -10.94 -11.62 -10.56 -11.89 -10.15 -12.18 -9.74 -12.44 -9.33 -12.71 -8.94 -12.99 -8.53 -13.29 -8.07 -13.48 -7.67 -13.74 -7.25 -14 -6.83 -14.25 -6.4 -14.48 -5.94 -14.65 -5.56 -14.91 -5.11 -15.12 -4.69 -15.29 -4.27 -15.52 -3.85 -15.72 -3.42 -15.89 -3.01 -16.06 -2.6 -16.27 -2.18 -16.45 -1.78 -16.6 -1.39 -16.79 -0.98 -16.94 -0.59 -17.13 -0.19 -17.3 0 0zm0 0c0,-45.4 37.95,-82.21 84.75,-82.21 46.8,0 84.75,36.81 84.75,82.21l-169.49 0zm169.49 -1132.64l0 1132.64 -169.49 0 0 -1132.64 0 0 169.49 0zm-169.49 0c0,-45.4 37.95,-82.21 84.75,-82.21 46.8,0 84.75,36.81 84.75,82.21l-169.49 0zm2016.89 1641.24l0 -780.05 169.49 0 0 780.05 -84.75 82.21 -84.75 -82.21zm169.49 0c0,45.4 -37.95,82.21 -84.75,82.21 -46.8,0 -84.75,-36.81 -84.75,-82.21l169.49 0zm-566.49 -82.21l481.75 0 0 164.41 -481.75 0 -84.75 -82.21 84.75 -82.21zm0 164.41c-46.8,0 -84.75,-36.81 -84.75,-82.21 0,-45.4 37.95,-82.21 84.75,-82.21l0 164.41zm84.75 -2244.53l0 2162.32 -169.49 0 0 -2162.32 84.75 -82.21 84.75 82.21zm-169.49 0c0,-45.4 37.95,-82.21 84.75,-82.21 46.8,0 84.75,36.81 84.75,82.21l-169.49 0zm810.59 82.21l-725.84 0 0 -164.41 725.84 0 0 0 0 164.41zm0 -164.41c46.8,0 84.75,36.81 84.75,82.21 0,45.4 -37.95,82.21 -84.75,82.21l0 -164.41zm465.93 141.25l-109.7 125.31 -0.01 0 -7.55 -6.05 -7.74 -5.86 -7.94 -5.68 -8.13 -5.5 -8.34 -5.33 -8.58 -5.16 -8.78 -4.98 -8.99 -4.8 -9.21 -4.62 -9.46 -4.44 -9.69 -4.27 -9.92 -4.09 -10.17 -3.92 -10.41 -3.72 -10.66 -3.55 -10.93 -3.37 -11.15 -3.18 -11.4 -2.98 -11.66 -2.79 -11.95 -2.6 -12.2 -2.42 -12.44 -2.2 -12.7 -2.01 -12.96 -1.8 -13.25 -1.6 -13.52 -1.39 -13.75 -1.19 -14 -0.97 -14.29 -0.75 -14.55 -0.54 -14.83 -0.33 -15.06 -0.11 0 -164.41 17.63 0.13 17.42 0.39 17.22 0.64 17.06 0.91 16.88 1.17 16.69 1.43 16.48 1.71 16.29 1.96 16.12 2.24 15.94 2.51 15.74 2.8 15.52 3.06 15.33 3.34 15.16 3.63 14.98 3.92 14.77 4.2 14.55 4.49 14.34 4.77 14.17 5.08 13.93 5.36 13.74 5.65 13.53 5.96 13.3 6.25 13.09 6.55 12.87 6.85 12.62 7.15 12.36 7.43 12.16 7.74 11.91 8.05 11.66 8.34 11.4 8.64 11.13 8.91 -0.01 0zm0.01 0c35.67,29.38 40.02,81.27 9.73,115.87 -30.29,34.6 -83.79,38.83 -119.45,9.44l109.72 -125.31zm177.62 418.36l-169.49 0 0 0 -0.12 -12.92 -0.39 -12.64 -0.64 -12.41 -0.88 -12.11 -1.13 -11.85 -1.37 -11.58 -1.62 -11.34 -1.84 -11.06 -2.08 -10.79 -2.3 -10.55 -2.53 -10.28 -2.75 -10.03 -2.97 -9.77 -3.18 -9.53 -3.4 -9.28 -3.63 -9.08 -3.81 -8.81 -4.03 -8.6 -4.25 -8.39 -4.45 -8.18 -4.65 -7.96 -4.87 -7.77 -5.07 -7.55 -5.31 -7.39 -5.51 -7.22 -5.74 -7.03 -5.96 -6.88 -6.19 -6.7 -6.44 -6.56 -6.67 -6.4 -6.9 -6.22 -7.2 -6.11 109.7 -125.31 10.98 9.31 10.7 9.64 10.35 9.92 10 10.18 9.67 10.48 9.32 10.74 8.98 11.03 8.62 11.28 8.26 11.53 7.92 11.83 7.54 12.05 7.18 12.3 6.8 12.52 6.42 12.73 6.08 12.98 5.7 13.19 5.33 13.38 4.98 13.6 4.62 13.81 4.25 13.99 3.89 14.19 3.53 14.36 3.18 14.53 2.84 14.73 2.48 14.92 2.14 15.06 1.81 15.26 1.47 15.43 1.14 15.61 0.8 15.75 0.49 15.96 0.16 16.12 0 0zm0 0c0,45.4 -37.95,82.21 -84.75,82.21 -46.8,0 -84.75,-36.81 -84.75,-82.21l169.49 0zm-169.49 399.39l0 -399.39 169.49 0 0 399.39 0 0 -169.49 0zm169.49 0c0,45.4 -37.95,82.21 -84.75,82.21 -46.8,0 -84.75,-36.81 -84.75,-82.21l169.49 0zm-269.84 436.5l-156.52 63.06 49.11 -108.71 12.96 -4.91 12.4 -5.27 11.88 -5.67 11.36 -6 10.83 -6.37 10.41 -6.77 9.94 -7.14 9.54 -7.53 9.1 -7.91 8.72 -8.34 8.37 -8.79 8.01 -9.24 7.69 -9.75 7.36 -10.25 7 -10.73 6.68 -11.32 6.37 -11.9 6.01 -12.45 5.66 -13.05 5.32 -13.69 4.96 -14.3 4.57 -14.93 4.18 -15.54 3.78 -16.24 3.38 -16.84 2.94 -17.48 2.52 -18.15 2.08 -18.77 1.63 -19.42 1.17 -20.06 0.71 -20.7 0.24 -21.33 169.49 0 -0.28 24.93 -0.83 24.46 -1.41 24 -1.97 23.54 -2.56 23.09 -3.14 22.61 -3.74 22.2 -4.36 21.73 -4.96 21.25 -5.6 20.85 -6.24 20.36 -6.87 19.87 -7.53 19.4 -8.23 18.96 -8.91 18.44 -9.57 17.89 -10.28 17.39 -11 16.87 -11.68 16.27 -12.37 15.67 -13.07 15.08 -13.75 14.43 -14.42 13.78 -15.08 13.11 -15.68 12.39 -16.28 11.68 -16.87 10.97 -17.44 10.27 -17.97 9.52 -18.45 8.78 -18.97 8.08 -19.45 7.34 49.11 -108.71zm-49.11 108.71c-43.94,15.62 -92.63,-6.27 -108.72,-48.9 -16.1,-42.62 6.47,-89.85 50.42,-105.47l58.31 154.36zm242.66 771.85l-350.07 -817.5 156.52 -63.06 350.07 817.5 -78.26 113.74 -78.26 -50.68zm156.52 -63.06c17.95,41.92 -2.53,90.03 -45.75,107.45 -43.22,17.41 -92.82,-2.46 -110.77,-44.38l156.52 -63.06zm-608.18 -50.68l529.92 0 0 164.41 -529.92 0 -79.44 -53.58 79.44 -110.83zm0 164.41c-46.8,0 -84.75,-36.81 -84.75,-82.21 0,-45.4 37.95,-82.21 84.75,-82.21l0 164.41zm-219.24 -890.88l298.68 780.05 -158.88 57.25 -298.68 -780.05 79.44 -110.83 79.44 53.58zm-158.88 57.25c-16.29,-42.55 6.06,-89.88 49.94,-105.69 43.87,-15.81 92.66,5.88 108.94,48.44l-158.88 57.25zm18.41 -110.83l61.03 0 0 164.41 -61.03 0 -84.75 -82.21 84.75 -82.21zm0 164.41c-46.8,0 -84.75,-36.81 -84.75,-82.21 0,-45.4 37.95,-82.21 84.75,-82.21l0 164.41zm-84.75 -453.52l0 -611.56 169.49 0 0 611.56 -84.75 82.21 -84.75 -82.21zm169.49 0c0,45.4 -37.95,82.21 -84.75,82.21 -46.8,0 -84.75,-36.81 -84.75,-82.21l169.49 0zm104.75 82.21l-189.49 0 0 -164.41 189.49 0 0 0 0 164.41zm0 -164.41c46.8,0 84.75,36.81 84.75,82.21 0,45.4 -37.95,82.21 -84.75,82.21l0 -164.41zm39.73 -3.95l126.07 109.9 0 0 -4.13 4.28 -4.32 4.14 -4.45 3.94 -4.5 3.7 -4.7 3.59 -4.79 3.37 -4.87 3.19 -4.94 2.98 -4.95 2.78 -5.11 2.66 -5.11 2.45 -5.15 2.29 -5.14 2.1 -5.17 1.95 -5.36 1.86 -5.27 1.67 -5.29 1.54 -5.29 1.39 -5.3 1.28 -5.47 1.18 -5.38 1.04 -5.4 0.94 -5.42 0.83 -5.44 0.73 -5.59 0.65 -5.51 0.53 -5.54 0.45 -5.57 0.36 -5.62 0.29 -5.74 0.19 -5.67 0.12 -5.73 0.04 0 -164.41 3.42 -0.02 3.28 -0.06 3.05 -0.11 3.02 -0.15 2.87 -0.18 2.74 -0.23 2.59 -0.25 2.33 -0.27 2.3 -0.31 2.16 -0.33 2 -0.34 1.84 -0.36 1.57 -0.34 1.56 -0.38 1.41 -0.37 1.23 -0.36 1.07 -0.33 0.8 -0.28 0.81 -0.31 0.68 -0.28 0.49 -0.21 0.35 -0.17 0.17 -0.08 0.17 -0.1 0 0 -0.11 0.07 -0.21 0.15 -0.3 0.23 -0.26 0.22 -0.39 0.34 -0.44 0.42 -0.43 0.44 0 0zm0 0c31.28,-33.76 84.88,-36.53 119.68,-6.18 34.81,30.34 37.67,82.33 6.38,116.09l-126.07 -109.9zm7.19 -54.25l169.49 0 0 0 -0.04 5.74 -0.09 5.69 -0.17 5.71 -0.25 5.68 -0.33 5.53 -0.38 5.39 -0.46 5.54 -0.57 5.5 -0.61 5.26 -0.72 5.41 -0.82 5.37 -0.87 5.15 -1 5.3 -1.11 5.27 -1.17 5.05 -1.28 5.11 -1.43 5.18 -1.56 5.15 -1.66 5.06 -1.78 4.99 -1.91 4.96 -2.07 4.98 -2.26 5.01 -2.42 4.97 -2.57 4.89 -2.65 4.67 -2.94 4.84 -3.19 4.84 -3.27 4.6 -3.47 4.53 -3.65 4.44 -3.96 4.45 -126.07 -109.9 -0.4 0.45 -0.21 0.26 -0.13 0.17 -0.05 0.06 -0.07 0.12 0.04 -0.08 0.23 -0.41 0.21 -0.39 0.24 -0.49 0.28 -0.63 0.35 -0.84 0.41 -1.06 0.42 -1.19 0.44 -1.32 0.42 -1.41 0.43 -1.56 0.46 -1.81 0.47 -2.05 0.43 -2.03 0.4 -2.16 0.43 -2.51 0.38 -2.47 0.34 -2.61 0.35 -2.94 0.29 -2.88 0.26 -3.04 0.24 -3.37 0.19 -3.39 0.15 -3.43 0.11 -3.58 0.07 -3.8 0.02 -3.91 0 0zm0 0c0,-45.4 37.95,-82.21 84.75,-82.21 46.8,0 84.75,36.81 84.75,82.21l-169.49 0zm169.49 -352.59l0 352.59 -169.49 0 0 -352.59 0 0 169.49 0zm-169.49 0c0,-45.4 37.95,-82.21 84.75,-82.21 46.8,0 84.75,36.81 84.75,82.21l-169.49 0zm-0.37 -29.46l106.01 -128.29 0 0 4.67 3.79 4.64 4.09 4.26 4.11 4.08 4.23 3.95 4.46 3.68 4.49 3.51 4.64 3.26 4.66 3.12 4.83 2.95 4.97 2.62 4.77 2.54 5 2.34 5.03 2.11 4.94 1.97 5.02 1.84 5.12 1.67 5.09 1.51 5.06 1.39 5.17 1.25 5.15 1.11 5.1 0.99 5.11 0.9 5.23 0.79 5.27 0.66 5.16 0.57 5.18 0.49 5.34 0.38 5.35 0.3 5.37 0.19 5.32 0.13 5.36 0.04 5.48 -169.49 0 -0.02 -3.02 -0.07 -2.98 -0.11 -2.84 -0.14 -2.61 -0.18 -2.47 -0.21 -2.32 -0.25 -2.28 -0.28 -2.16 -0.27 -1.87 -0.3 -1.73 -0.33 -1.69 -0.33 -1.52 -0.31 -1.29 -0.31 -1.13 -0.31 -1.04 -0.27 -0.85 -0.24 -0.66 -0.23 -0.58 -0.21 -0.48 -0.1 -0.23 -0.04 -0.08 -0.08 -0.15 0.13 0.21 0.16 0.27 0.18 0.24 0.31 0.42 0.36 0.43 0.49 0.56 0.5 0.51 0.56 0.55 0.82 0.71 0.71 0.59 0 0zm0 0c-36.52,-28.38 -42.39,-80.13 -13.13,-115.55 29.26,-35.42 82.62,-41.12 119.13,-12.74l-106.01 128.29zm-46.56 -6.89l0 -164.41 0 0 5.23 0.03 5.21 0.1 5.07 0.15 5.13 0.22 5.11 0.29 4.96 0.35 5.06 0.41 5.02 0.51 4.98 0.56 4.99 0.65 4.84 0.71 4.91 0.81 4.89 0.88 4.88 0.99 4.77 1.05 4.84 1.15 4.8 1.26 4.63 1.31 4.79 1.47 4.93 1.63 4.56 1.64 4.59 1.75 4.8 1.98 4.53 2 4.61 2.18 4.52 2.29 4.41 2.39 4.48 2.58 4.42 2.74 4.29 2.83 4.29 3.02 4.16 3.13 -106.01 128.29 0.08 0.05 0.05 0.04 -0.07 -0.05 -0.08 -0.04 -0.16 -0.1 -0.37 -0.19 -0.4 -0.21 -0.43 -0.2 -0.67 -0.3 -0.52 -0.22 -0.89 -0.33 -1.04 -0.38 -0.81 -0.27 -1.11 -0.33 -1.39 -0.39 -1.36 -0.36 -1.44 -0.35 -1.67 -0.37 -1.7 -0.33 -1.83 -0.34 -1.93 -0.31 -2.14 -0.31 -2.15 -0.29 -2.28 -0.26 -2.38 -0.23 -2.48 -0.21 -2.72 -0.19 -2.71 -0.15 -2.81 -0.12 -3.03 -0.09 -3.03 -0.06 -3.13 -0.01 0 0zm0 0c-46.8,0 -84.75,-36.81 -84.75,-82.21 0,-45.4 37.95,-82.21 84.75,-82.21l0 164.41zm-189.49 -164.41l189.49 0 0 164.41 -189.49 0 -84.75 -82.21 84.75 -82.21zm0 164.41c-46.8,0 -84.75,-36.81 -84.75,-82.21 0,-45.4 37.95,-82.21 84.75,-82.21l0 164.41zm1706.98 -3.13l0 -164.41 0 0 14.06 0.18 13.83 0.56 13.62 0.94 13.41 1.35 13.19 1.77 13 2.2 12.81 2.67 12.59 3.15 12.4 3.67 12.17 4.2 11.92 4.76 11.67 5.35 11.35 5.94 11.04 6.57 10.65 7.2 10.18 7.81 9.75 8.47 9.13 9 8.56 9.58 7.91 10.09 7.22 10.5 6.54 10.94 5.79 11.21 5.15 11.57 4.42 11.81 3.75 11.99 3.09 12.17 2.46 12.24 1.88 12.43 1.3 12.54 0.76 12.61 0.25 12.76 -169.49 0 -0.13 -6.44 -0.36 -5.97 -0.56 -5.45 -0.74 -4.94 -0.9 -4.51 -1.01 -4 -1.11 -3.54 -1.18 -3.14 -1.21 -2.74 -1.3 -2.5 -1.29 -2.17 -1.37 -1.99 -1.4 -1.8 -1.53 -1.69 -1.68 -1.67 -1.82 -1.58 -2.15 -1.64 -2.4 -1.63 -2.79 -1.66 -3.2 -1.67 -3.64 -1.67 -4.13 -1.64 -4.62 -1.6 -5.15 -1.51 -5.69 -1.43 -6.23 -1.29 -6.78 -1.16 -7.33 -0.97 -7.87 -0.79 -8.4 -0.58 -8.93 -0.36 -9.46 -0.12 0 0zm0 0c-46.8,0 -84.75,-36.81 -84.75,-82.21 0,-45.4 37.95,-82.21 84.75,-82.21l0 164.41zm-106.35 73.8l-169.49 0 0 0 0.25 -12.76 0.76 -12.61 1.3 -12.54 1.88 -12.43 2.46 -12.24 3.09 -12.17 3.75 -11.99 4.42 -11.81 5.15 -11.57 5.79 -11.21 6.54 -10.94 7.22 -10.5 7.91 -10.09 8.56 -9.58 9.13 -9 9.75 -8.47 10.18 -7.81 10.65 -7.2 11.04 -6.57 11.35 -5.94 11.67 -5.35 11.92 -4.76 12.17 -4.2 12.4 -3.67 12.59 -3.15 12.81 -2.67 13 -2.2 13.19 -1.77 13.41 -1.35 13.62 -0.94 13.83 -0.56 14.06 -0.18 0 164.41 -9.46 0.12 -8.93 0.36 -8.4 0.58 -7.87 0.79 -7.33 0.97 -6.78 1.16 -6.23 1.29 -5.69 1.43 -5.15 1.51 -4.62 1.6 -4.13 1.64 -3.64 1.67 -3.2 1.67 -2.79 1.66 -2.4 1.63 -2.15 1.64 -1.82 1.58 -1.68 1.67 -1.53 1.69 -1.4 1.8 -1.37 1.99 -1.29 2.17 -1.3 2.5 -1.21 2.74 -1.18 3.14 -1.11 3.54 -1.01 4 -0.9 4.51 -0.74 4.94 -0.56 5.45 -0.36 5.97 -0.13 6.44 0 0zm0 0c0,45.4 -37.95,82.21 -84.75,82.21 -46.8,0 -84.75,-36.81 -84.75,-82.21l169.49 0zm-169.49 1057.76l0 -1057.76 169.49 0 0 1057.76 0 0 -169.49 0zm169.49 0c0,45.4 -37.95,82.21 -84.75,82.21 -46.8,0 -84.75,-36.81 -84.75,-82.21l169.49 0zm106.35 73.8l0 164.41 0 0 -14.06 -0.18 -13.83 -0.56 -13.62 -0.94 -13.41 -1.35 -13.19 -1.77 -13 -2.2 -12.81 -2.67 -12.59 -3.15 -12.4 -3.67 -12.17 -4.2 -11.92 -4.76 -11.67 -5.35 -11.35 -5.94 -11.04 -6.57 -10.65 -7.2 -10.18 -7.81 -9.75 -8.47 -9.13 -9 -8.56 -9.58 -7.91 -10.09 -7.22 -10.5 -6.54 -10.94 -5.79 -11.21 -5.15 -11.57 -4.42 -11.81 -3.75 -11.99 -3.09 -12.17 -2.46 -12.24 -1.88 -12.43 -1.3 -12.54 -0.76 -12.61 -0.25 -12.76 169.49 0 0.13 6.44 0.36 5.97 0.56 5.45 0.74 4.94 0.9 4.51 1.01 4 1.11 3.54 1.18 3.14 1.21 2.74 1.3 2.5 1.29 2.17 1.37 1.99 1.4 1.8 1.53 1.69 1.68 1.67 1.82 1.58 2.15 1.64 2.4 1.63 2.79 1.66 3.2 1.67 3.64 1.67 4.13 1.64 4.62 1.6 5.15 1.51 5.69 1.43 6.23 1.29 6.78 1.16 7.33 0.97 7.87 0.79 8.4 0.58 8.93 0.36 9.46 0.12 0 0zm0 0c46.8,0 84.75,36.81 84.75,82.21 0,45.4 -37.95,82.21 -84.75,82.21l0 -164.41zm106.35 -73.8l169.49 0 0 0 -0.25 12.76 -0.76 12.61 -1.3 12.54 -1.88 12.43 -2.46 12.24 -3.09 12.17 -3.75 11.99 -4.42 11.81 -5.15 11.57 -5.79 11.21 -6.54 10.94 -7.22 10.5 -7.91 10.09 -8.56 9.58 -9.13 9 -9.75 8.47 -10.18 7.81 -10.65 7.2 -11.04 6.57 -11.35 5.94 -11.67 5.35 -11.92 4.76 -12.17 4.2 -12.4 3.67 -12.59 3.15 -12.81 2.67 -13 2.2 -13.19 1.77 -13.41 1.35 -13.62 0.94 -13.83 0.56 -14.06 0.18 0 -164.41 9.46 -0.12 8.93 -0.36 8.4 -0.58 7.87 -0.79 7.33 -0.97 6.78 -1.16 6.23 -1.29 5.69 -1.43 5.15 -1.51 4.62 -1.6 4.13 -1.64 3.64 -1.67 3.2 -1.67 2.79 -1.66 2.4 -1.63 2.15 -1.64 1.82 -1.58 1.68 -1.67 1.53 -1.69 1.4 -1.8 1.37 -1.99 1.29 -2.17 1.3 -2.5 1.21 -2.74 1.18 -3.14 1.11 -3.54 1.01 -4 0.9 -4.51 0.74 -4.94 0.56 -5.45 0.36 -5.97 0.13 -6.44 0 0zm0 0c0,-45.4 37.95,-82.21 84.75,-82.21 46.8,0 84.75,36.81 84.75,82.21l-169.49 0zm169.49 -1057.76l0 1057.76 -169.49 0 0 -1057.76 0 0 169.49 0zm-169.49 0c0,-45.4 37.95,-82.21 84.75,-82.21 46.8,0 84.75,36.81 84.75,82.21l-169.49 0zm-666.23 -492.76l114.52 121.21 0 -0.01 -8.83 8.07 -8.52 8.2 -8.22 8.36 -7.92 8.5 -7.59 8.62 -7.34 8.82 -7.04 8.95 -6.73 9.09 -6.48 9.3 -6.19 9.42 -5.91 9.6 -5.66 9.8 -5.39 9.97 -5.11 10.14 -4.85 10.35 -4.59 10.54 -4.32 10.74 -4.04 10.93 -3.79 11.18 -3.53 11.39 -3.25 11.58 -2.98 11.82 -2.71 12.06 -2.44 12.3 -2.16 12.5 -1.88 12.74 -1.6 13.01 -1.31 13.21 -1.03 13.47 -0.73 13.74 -0.45 13.98 -0.15 14.2 -169.49 0 0.19 -17.57 0.55 -17.39 0.93 -17.23 1.29 -17.08 1.69 -16.93 2.06 -16.73 2.44 -16.6 2.84 -16.42 3.22 -16.22 3.61 -16.04 4 -15.88 4.41 -15.72 4.79 -15.49 5.19 -15.3 5.6 -15.13 5.99 -14.92 6.38 -14.7 6.78 -14.49 7.2 -14.3 7.58 -14.05 7.97 -13.8 8.37 -13.62 8.77 -13.36 9.14 -13.1 9.55 -12.89 9.92 -12.61 10.26 -12.34 10.69 -12.14 11.04 -11.84 11.38 -11.58 11.76 -11.32 12.11 -11.05 0 -0.01zm0 0.01c34.5,-30.67 88.11,-28.4 119.73,5.06 31.62,33.46 29.28,85.46 -5.22,116.14l-114.52 -121.19zm558.28 -172.94l0 164.41 0 0 -19.25 0.14 -18.9 0.41 -18.52 0.69 -18.19 0.96 -17.86 1.24 -17.46 1.49 -17.09 1.77 -16.81 2.04 -16.41 2.28 -16.05 2.55 -15.7 2.81 -15.39 3.06 -14.96 3.3 -14.63 3.56 -14.31 3.8 -13.95 4.04 -13.56 4.27 -13.26 4.52 -12.9 4.75 -12.54 4.96 -12.23 5.21 -11.91 5.44 -11.58 5.66 -11.23 5.85 -10.93 6.09 -10.62 6.31 -10.29 6.51 -10.03 6.77 -9.72 6.97 -9.43 7.21 -9.17 7.43 -8.88 7.66 -114.52 -121.21 12.72 -10.96 13.05 -10.59 13.41 -10.23 13.76 -9.87 14.07 -9.49 14.43 -9.15 14.74 -8.75 15.05 -8.39 15.39 -8.03 15.66 -7.63 15.95 -7.27 16.27 -6.92 16.58 -6.57 16.86 -6.18 17.11 -5.83 17.43 -5.49 17.68 -5.12 17.94 -4.78 18.26 -4.44 18.53 -4.08 18.76 -3.74 19.05 -3.41 19.36 -3.07 19.6 -2.74 19.84 -2.4 20.17 -2.09 20.44 -1.75 20.66 -1.42 20.95 -1.12 21.26 -0.79 21.5 -0.47 21.79 -0.16 0 0zm0 0c46.8,0 84.75,36.81 84.75,82.21 0,45.4 -37.95,82.21 -84.75,82.21l0 -164.41zm559.59 172.68l-113.94 121.71 0 0 -8.98 -7.68 -9.28 -7.45 -9.54 -7.23 -9.83 -7 -10.12 -6.78 -10.38 -6.53 -10.72 -6.32 -11.03 -6.11 -11.32 -5.87 -11.65 -5.66 -12.01 -5.46 -12.29 -5.21 -12.63 -4.98 -12.98 -4.76 -13.3 -4.52 -13.63 -4.28 -14.01 -4.04 -14.37 -3.81 -14.67 -3.56 -15.02 -3.3 -15.42 -3.06 -15.75 -2.82 -16.08 -2.54 -16.45 -2.29 -16.82 -2.04 -17.13 -1.77 -17.48 -1.49 -17.88 -1.24 -18.19 -0.96 -18.54 -0.69 -18.9 -0.41 -19.25 -0.14 0 -164.41 21.79 0.16 21.5 0.47 21.26 0.79 20.97 1.12 20.68 1.42 20.44 1.75 20.19 2.09 19.87 2.4 19.62 2.73 19.37 3.08 19.08 3.4 18.79 3.74 18.57 4.08 18.3 4.44 17.96 4.77 17.72 5.12 17.48 5.48 17.17 5.83 16.88 6.17 16.63 6.55 16.33 6.92 15.99 7.25 15.73 7.63 15.44 8.01 15.11 8.37 14.8 8.74 14.52 9.13 14.14 9.48 13.83 9.84 13.48 10.21 13.14 10.57 12.8 10.94 0 0zm0 0c34.64,30.51 37.23,82.52 5.76,116.12 -31.46,33.6 -85.06,36.11 -119.7,5.6l113.94 -121.71zm199.59 468.05l-169.49 0 0 0 -0.15 -14.2 -0.45 -13.96 -0.74 -13.68 -1.04 -13.47 -1.32 -13.21 -1.62 -12.98 -1.89 -12.75 -2.18 -12.5 -2.45 -12.27 -2.73 -12 -3.01 -11.82 -3.28 -11.59 -3.54 -11.34 -3.83 -11.15 -4.1 -10.97 -4.35 -10.73 -4.61 -10.51 -4.9 -10.35 -5.16 -10.15 -5.41 -9.92 -5.71 -9.79 -5.97 -9.62 -6.25 -9.42 -6.54 -9.3 -6.79 -9.07 -7.1 -8.95 -7.42 -8.84 -7.67 -8.63 -8.01 -8.51 -8.29 -8.36 -8.6 -8.19 -8.94 -8.09 113.94 -121.71 12.2 11.03 11.88 11.33 11.49 11.58 11.13 11.83 10.77 12.13 10.36 12.32 10.02 12.61 9.65 12.91 9.22 13.1 8.85 13.36 8.45 13.6 8.05 13.81 7.68 14.1 7.25 14.29 6.85 14.49 6.46 14.73 6.04 14.93 5.64 15.09 5.25 15.33 4.86 15.54 4.44 15.71 4.05 15.88 3.65 16.1 3.25 16.25 2.86 16.42 2.47 16.59 2.08 16.76 1.7 16.93 1.32 17.08 0.94 17.29 0.55 17.41 0.19 17.57 0 0zm0 0c0,45.4 -37.95,82.21 -84.75,82.21 -46.8,0 -84.75,-36.81 -84.75,-82.21l169.49 0zm-169.49 1107.68l0 -1107.68 169.49 0 0 1107.68 0 0 -169.49 0zm169.49 0c0,45.4 -37.95,82.21 -84.75,82.21 -46.8,0 -84.75,-36.81 -84.75,-82.21l169.49 0zm-199.59 468.05l-113.94 -121.71 0 0 8.94 -8.09 8.6 -8.19 8.29 -8.36 8.01 -8.51 7.67 -8.63 7.42 -8.84 7.1 -8.95 6.79 -9.07 6.54 -9.3 6.25 -9.42 5.97 -9.62 5.71 -9.79 5.41 -9.92 5.16 -10.15 4.9 -10.35 4.61 -10.51 4.35 -10.73 4.1 -10.97 3.83 -11.15 3.54 -11.34 3.28 -11.59 3.01 -11.82 2.73 -12 2.45 -12.27 2.18 -12.5 1.89 -12.75 1.62 -12.98 1.32 -13.21 1.04 -13.47 0.74 -13.68 0.45 -13.96 0.15 -14.2 169.49 0 -0.19 17.57 -0.55 17.41 -0.94 17.29 -1.32 17.08 -1.7 16.93 -2.08 16.76 -2.47 16.59 -2.86 16.42 -3.25 16.25 -3.65 16.1 -4.05 15.88 -4.44 15.71 -4.86 15.54 -5.25 15.33 -5.64 15.09 -6.04 14.93 -6.46 14.73 -6.85 14.49 -7.25 14.29 -7.68 14.1 -8.05 13.81 -8.45 13.6 -8.85 13.36 -9.22 13.1 -9.65 12.91 -10.02 12.61 -10.36 12.32 -10.77 12.13 -11.13 11.83 -11.49 11.58 -11.88 11.33 -12.2 11.03 0 0zm0 0c-34.65,30.51 -88.25,28.01 -119.71,-5.6 -31.46,-33.6 -28.87,-85.6 5.77,-116.12l113.94 121.71zm-559.59 172.68l0 -164.41 0 0 19.25 -0.14 18.9 -0.41 18.54 -0.69 18.19 -0.96 17.86 -1.24 17.5 -1.5 17.15 -1.76 16.8 -2.04 16.45 -2.29 16.08 -2.54 15.75 -2.82 15.39 -3.06 15.05 -3.31 14.69 -3.55 14.32 -3.8 14.01 -4.06 13.68 -4.29 13.28 -4.5 12.96 -4.76 12.67 -5 12.3 -5.2 11.95 -5.44 11.66 -5.67 11.34 -5.88 11.03 -6.11 10.72 -6.32 10.4 -6.55 10.12 -6.76 9.81 -6.99 9.54 -7.23 9.28 -7.45 8.98 -7.68 113.94 121.71 -12.8 10.94 -13.14 10.57 -13.48 10.21 -13.85 9.85 -14.14 9.48 -14.5 9.11 -14.8 8.74 -15.11 8.37 -15.42 8 -15.72 7.64 -16.05 7.27 -16.32 6.91 -16.59 6.53 -16.9 6.19 -17.19 5.83 -17.43 5.47 -17.72 5.12 -18.01 4.78 -18.28 4.43 -18.54 4.09 -18.82 3.74 -19.08 3.4 -19.37 3.08 -19.62 2.73 -19.89 2.4 -20.17 2.08 -20.42 1.76 -20.7 1.42 -20.97 1.12 -21.26 0.79 -21.5 0.47 -21.79 0.16 0 0zm0 0c-46.8,0 -84.75,-36.81 -84.75,-82.21 0,-45.4 37.95,-82.21 84.75,-82.21l0 164.41zm-558.28 -172.94l114.52 -121.19 0 -0.01 8.88 7.66 9.17 7.43 9.43 7.21 9.71 6.96 10.02 6.75 10.31 6.53 10.62 6.31 10.93 6.09 11.25 5.86 11.58 5.67 11.87 5.42 12.23 5.2 12.58 4.98 12.88 4.75 13.23 4.5 13.62 4.29 13.94 4.04 14.27 3.8 14.65 3.55 14.99 3.31 15.36 3.06 15.7 2.81 16.05 2.55 16.41 2.28 16.78 2.04 17.12 1.76 17.49 1.51 17.83 1.23 18.19 0.96 18.52 0.69 18.9 0.41 19.25 0.14 0 164.41 -21.79 -0.16 -21.5 -0.47 -21.26 -0.79 -20.95 -1.12 -20.69 -1.43 -20.41 -1.75 -20.14 -2.08 -19.87 -2.4 -19.6 -2.74 -19.36 -3.07 -19.05 -3.41 -18.79 -3.74 -18.5 -4.09 -18.24 -4.43 -17.98 -4.78 -17.69 -5.14 -17.37 -5.47 -17.14 -5.83 -16.88 -6.2 -16.54 -6.55 -16.27 -6.91 -15.99 -7.29 -15.66 -7.64 -15.37 -8.02 -15.05 -8.39 -14.74 -8.75 -14.41 -9.13 -14.08 -9.49 -13.77 -9.88 -13.41 -10.23 -13.05 -10.59 -12.72 -10.96 0 -0.01zm0 0.01c-34.5,-30.67 -36.84,-82.68 -5.22,-116.15 31.62,-33.47 85.23,-35.74 119.73,-5.07l-114.52 121.21zm-197.7 -467.8l169.49 0 0 0 0.15 14.2 0.45 13.98 0.73 13.74 1.03 13.47 1.31 13.21 1.6 13.01 1.88 12.74 2.16 12.5 2.44 12.3 2.71 12.06 2.98 11.82 3.25 11.58 3.53 11.39 3.79 11.18 4.04 10.93 4.32 10.74 4.59 10.54 4.85 10.35 5.11 10.14 5.39 9.97 5.66 9.8 5.91 9.6 6.19 9.42 6.48 9.3 6.73 9.09 7.04 8.95 7.34 8.82 7.59 8.62 7.92 8.5 8.22 8.36 8.52 8.2 8.83 8.07 -114.52 121.19 -12.11 -11.05 -11.76 -11.32 -11.38 -11.58 -11.04 -11.84 -10.69 -12.14 -10.26 -12.34 -9.92 -12.61 -9.55 -12.89 -9.14 -13.1 -8.77 -13.36 -8.37 -13.62 -7.97 -13.8 -7.58 -14.05 -7.2 -14.3 -6.78 -14.49 -6.38 -14.7 -5.99 -14.92 -5.6 -15.13 -5.19 -15.3 -4.79 -15.49 -4.41 -15.72 -4 -15.88 -3.61 -16.04 -3.22 -16.22 -2.84 -16.42 -2.44 -16.6 -2.06 -16.73 -1.69 -16.93 -1.29 -17.08 -0.93 -17.23 -0.55 -17.39 -0.19 -17.57 0 0zm0 0c0,-45.4 37.95,-82.21 84.75,-82.21 46.8,0 84.75,36.81 84.75,82.21l-169.49 0zm169.49 -1107.68l0 1107.68 -169.49 0 0 -1107.68 0 0 169.49 0zm-169.49 0c0,-45.4 37.95,-82.21 84.75,-82.21 46.8,0 84.75,36.81 84.75,82.21l-169.49 0z"/>
     <path id="_1" class="fil3" d="M10545.3 8517.89c0,-164.33 64.76,-294.86 194.3,-391.58 129.54,-96.72 314.21,-145.09 554.01,-145.09 179.86,0 330.8,19.76 452.84,59.29l0 443.07c-128.47,-47.85 -256.93,-71.77 -385.4,-71.77 -128.47,0 -215.17,14.57 -260.14,43.68 -44.96,29.12 -67.44,68.65 -67.44,118.58l0 1026.55c0,49.92 16.06,87.88 48.18,113.89 32.11,26 79.76,39 142.91,39 63.16,0 111.87,-8.32 146.13,-24.96l0 -730.14 468.9 0 0 1045.28c-167,87.36 -365.05,131.04 -594.16,131.04 -229.09,0 -403.05,-45.76 -521.88,-137.29 -118.84,-91.52 -178.25,-220.5 -178.25,-386.91l0 -1132.64zm2016.89 861.19l0 780.05 -481.75 0 0 -2162.32 725.84 0c175.57,0 312.59,40.56 411.08,121.69 98.49,81.13 147.74,199.69 147.74,355.71l0 399.39c0,249.62 -87.79,405.63 -263.36,468.04l350.07 817.5 -529.92 0 -298.68 -780.05 -61.03 0zm0 -982.87l0 611.56 189.49 0c49.24,0 83.5,-10.4 102.77,-31.2 19.27,-20.8 28.9,-57.2 28.9,-109.2l0 -352.59c0,-45.76 -10.7,-76.96 -32.11,-93.61 -21.41,-16.65 -54.6,-24.96 -99.56,-24.96l-189.49 0zm1898.08 152.89c0,-104.01 -63.69,-156.01 -191.09,-156.01 -127.4,0 -191.09,52 -191.09,156.01l0 1057.76c0,104.01 63.69,156.01 191.09,156.01 127.4,0 191.09,-52 191.09,-156.01l0 -1057.76zm-863.93 -24.96c0,-170.57 56.74,-306.3 170.21,-407.19 113.49,-100.89 280.48,-151.33 501.02,-151.33 220.53,0 388.08,50.44 502.62,151.33 114.55,100.89 171.82,236.62 171.82,407.19l0 1107.68c0,170.57 -57.27,306.3 -171.82,407.19 -114.54,100.88 -282.09,151.33 -502.62,151.33 -220.54,0 -387.53,-50.45 -501.02,-151.33 -113.47,-100.89 -170.21,-236.62 -170.21,-407.19l0 -1107.68z"/>
    </g>
    <g>
     <path class="fil2" d="M8038.93 6942.58l160.51 53.69 -0.23 0.64 -42.25 117.67 -160.28 -54.33 42.25 -117.67zm160.28 54.33l-160.28 -54.33c15.44,-42.99 63.84,-65.69 108.09,-50.7 44.25,15 67.62,62.04 52.18,105.03zm25.17 -584.6l80.34 -55.94 80.4 108.99 -185.68 530.91 -160.74 -53.05 185.68 -530.91zm160.74 53.05l-160.74 -53.05c15.08,-43.12 63.29,-66.2 107.68,-51.55 44.38,14.65 68.14,61.49 53.06,104.61zm697.19 -109.25l79.61 53.79 -79.55 111.14 -777.58 0.26 -0.06 -164.93 777.58 -0.26zm0.06 164.93l-0.06 -164.93c46.87,-0.01 84.9,36.9 84.91,82.44 0.01,45.54 -37.98,82.49 -84.85,82.5zm286.76 431.73l-158.95 57.91 -0.21 -0.56 -207.21 -542.87 159.16 -57.35 207.21 542.87zm-159.16 57.35l159.16 -57.35c16.3,42.7 -6.12,90.16 -50.07,106 -43.94,15.84 -92.8,-5.94 -109.09,-48.65zm203.64 56.62l4.02 13.85 -162.76 44.62 -44.69 -114.53 158.74 -58.47 44.69 114.53zm-158.74 58.47l158.74 -58.47c16.61,42.58 -5.46,90.21 -49.29,106.35 -43.83,16.14 -92.85,-5.3 -109.45,-47.88zm112.38 325.13l0.01 0.03 -2.54 -8.54 -2.75 -8.76 -2.97 -9.07 -3.16 -9.28 -3.32 -9.48 -3.5 -9.71 -3.64 -9.89 -3.76 -10.03 -3.88 -10.18 -3.98 -10.31 -4.09 -10.48 -4.16 -10.61 -4.19 -10.64 -4.25 -10.77 -4.28 -10.86 -4.3 -10.95 -4.27 -10.98 -4.27 -11.04 -4.24 -11.11 -4.18 -11.13 -4.12 -11.16 -4.05 -11.19 -3.95 -11.23 -3.84 -11.22 -3.71 -11.25 -3.59 -11.29 -3.42 -11.28 -3.23 -11.25 -3.07 -11.34 -2.83 -11.31 -2.61 -11.29 -2.36 -11.36 166.77 -30.77 1.62 7.76 1.87 8.13 2.11 8.39 2.33 8.64 2.59 8.95 2.76 9.16 2.97 9.33 3.17 9.57 3.34 9.76 3.49 9.91 3.63 10.05 3.76 10.2 3.88 10.31 3.96 10.39 4.07 10.52 4.13 10.6 4.18 10.65 4.22 10.72 4.25 10.77 4.27 10.84 4.24 10.83 4.23 10.84 4.22 10.91 4.16 10.92 4.1 10.91 4 10.89 3.92 10.87 3.82 10.9 3.68 10.86 3.55 10.85 3.41 10.86 3.22 10.82 0.01 0.03 -163.44 44.58zm0.01 0.03l163.42 -44.64c12.68,43.84 -13.62,89.39 -58.74,101.71 -45.12,12.32 -92,-13.23 -104.68,-57.07zm-221.54 580.49l-1.45 2.52 5.24 -9.72 6.14 -11.8 6.95 -13.67 7.63 -15.34 8.25 -16.86 8.77 -18.24 9.21 -19.44 9.58 -20.58 9.89 -21.54 10.11 -22.39 10.26 -23.08 10.35 -23.68 10.37 -24.15 10.31 -24.46 10.17 -24.65 9.98 -24.72 9.71 -24.66 9.36 -24.44 8.94 -24.12 8.47 -23.64 7.9 -23 7.27 -22.23 6.57 -21.28 5.78 -20.18 4.96 -18.87 4.04 -17.32 3.07 -15.52 2.07 -13.41 1.09 -10.78 0.25 -7.56 -0.18 -3.45 0.44 1.74 163.44 -44.58 4.62 22.72 1.42 21.21 -0.57 20.57 -2.05 20.53 -3.21 20.86 -4.23 21.47 -5.16 22.14 -5.97 22.81 -6.74 23.48 -7.43 24.12 -8.07 24.65 -8.62 25.12 -9.13 25.48 -9.56 25.78 -9.94 25.94 -10.23 26 -10.48 25.96 -10.65 25.79 -10.75 25.52 -10.79 25.11 -10.75 24.64 -10.68 24 -10.51 23.27 -10.29 22.4 -9.98 21.44 -9.65 20.38 -9.21 19.14 -8.73 17.87 -8.21 16.48 -7.61 14.97 -7 13.44 -6.37 11.86 -1.45 2.52 -146.95 -82.55zm-1.45 2.52l149.85 77.51c-22.03,40.19 -73.45,55.43 -114.82,34.03 -41.37,-21.4 -57.06,-71.35 -35.03,-111.54zm1.43 326.98l-9.34 12.74 -137.61 -95.29 146.97 -246.95 146.95 82.55 -146.97 246.95zm-146.95 -82.55l146.95 82.55c-23.46,39.43 -75.38,52.9 -115.96,30.11 -40.57,-22.79 -54.45,-73.24 -30.99,-112.66zm126.82 42.5l-131.15 -40.83 3.01 -2.14 2.87 -2.02 2.61 -1.79 2.43 -1.64 2.25 -1.48 2.01 -1.29 2.56 -1.57 2.55 -1.49 2.23 -1.23 4.08 -2.07 7.1 -3.02 12.73 -3.7 69.89 15.32 4.28 127.14 -28.66 16.2 -27.64 4.49 -46.92 -13.72 -32.82 -40.21 -5.19 -33.09 3.18 -18.48 4.03 -10.88 3.53 -6.96 2.41 -4.05 2.22 -3.39 2.25 -3.18 2.05 -2.73 1.97 -2.52 2.11 -2.62 2.45 -2.94 2.47 -2.88 2.66 -3.07 3.03 -3.42 128.27 108.02 -2.07 2.34 -1.78 2.05 -1.37 1.6 -0.79 0.96 -0.61 0.76 -0.27 0.34 0.25 -0.33 0.83 -1.18 1.18 -1.79 1.65 -2.79 3.05 -6.02 3.77 -10.18 3.1 -18.02 -5.15 -32.81 -32.7 -40.07 -46.76 -13.68 -27.46 4.45 -28.54 16.14 4.3 127.08 69.79 15.32 12.45 -3.62 6.58 -2.8 3.3 -1.67 1.15 -0.63 1.09 -0.65 0.72 -0.43 -0.27 0.17 -0.53 0.34 -0.89 0.6 -1.29 0.89 -1.63 1.14 -2.17 1.56 -131.15 -40.83 161.44 -51zm-131.15 -40.83l100.87 132.66c-37.7,27.06 -90.86,19.29 -118.71,-17.33 -27.85,-36.63 -19.86,-88.27 17.83,-115.33zm-360 -893.23l0.04 -51.12 161.4 0.13 329.72 985.06 -161.44 51 -329.72 -985.06zm161.44 -51l-161.44 51c-14.49,-43.3 9.9,-89.84 54.47,-103.92 44.57,-14.08 92.48,9.62 106.97,52.92zm-788.85 2394.71l-47.23 50.17 -114.13 -101.42 788.81 -2343.58 161.36 51.25 -788.81 2343.58zm-161.36 -51.25l161.36 51.25c-14.57,43.28 -62.5,66.9 -107.06,52.75 -44.55,-14.15 -68.87,-60.73 -54.3,-104.01zm721.21 -326.6l-0.01 0 -9.74 8.77 -11.07 9.45 -12.48 10.32 -13.97 11.27 -15.38 12.18 -16.73 13.05 -17.95 13.84 -19.09 14.56 -20.12 15.21 -21.01 15.73 -21.78 16.2 -22.44 16.56 -22.97 16.84 -23.39 17.02 -23.66 17.09 -23.83 17.12 -23.88 17.01 -23.77 16.82 -23.57 16.57 -23.23 16.18 -22.78 15.74 -22.19 15.17 -21.52 14.55 -20.71 13.81 -19.77 13.01 -18.79 12.13 -17.69 11.18 -16.55 10.15 -15.39 9.11 -14.31 8.03 -13.58 7.08 -13.74 6.29 -66.9 -151.59 3.69 -1.72 7.62 -3.99 10.43 -5.87 12.61 -7.45 14.47 -8.89 16.08 -10.14 17.47 -11.29 18.73 -12.31 19.79 -13.21 20.72 -14.01 21.51 -14.71 22.16 -15.3 22.67 -15.8 23.05 -16.19 23.29 -16.5 23.4 -16.68 23.37 -16.79 23.24 -16.8 22.93 -16.69 22.53 -16.52 21.98 -16.22 21.3 -15.84 20.49 -15.35 19.52 -14.75 18.45 -14.08 17.21 -13.26 15.85 -12.37 14.32 -11.34 12.61 -10.17 10.7 -8.84 8.49 -7.25 5.9 -5.3 -0.01 0 117.4 119.13zm-0.01 0l-117.38 -119.13c33.86,-31.48 87.59,-30.34 120,2.55 32.41,32.89 31.23,85.1 -2.63,116.59zm349.34 -326.99l0.04 -0.05 -10.62 11.8 -10.68 11.63 -10.7 11.41 -10.71 11.21 -10.75 11.05 -10.77 10.87 -10.78 10.71 -10.81 10.57 -10.82 10.42 -10.85 10.32 -10.85 10.17 -10.88 10.1 -10.88 9.98 -10.9 9.91 -10.91 9.83 -10.92 9.78 -10.94 9.72 -10.92 9.66 -10.96 9.66 -10.99 9.66 -21.94 19.25 -22.05 19.38 -10.98 9.69 -11.08 9.82 -11.07 9.83 -11.05 9.9 -11.1 10.01 -11.12 10.1 -11.15 10.23 -11.18 10.34 -117.4 -119.13 11.78 -10.9 11.71 -10.73 11.62 -10.56 11.56 -10.43 11.51 -10.3 11.41 -10.15 11.28 -9.98 11.28 -9.97 22.21 -19.5 21.94 -19.25 10.81 -9.5 10.74 -9.48 10.68 -9.46 10.58 -9.4 10.5 -9.4 10.43 -9.39 10.34 -9.41 10.28 -9.42 10.18 -9.44 10.11 -9.49 10.05 -9.54 9.96 -9.6 9.89 -9.67 9.84 -9.77 9.77 -9.87 9.69 -9.95 9.65 -10.11 9.58 -10.21 9.5 -10.35 9.48 -10.54 0.04 -0.05 128.31 108zm0.04 -0.05l-128.39 -107.9c30.66,-34.44 84.28,-38.21 119.72,-8.41 35.45,29.79 39.33,81.88 8.66,116.32zm81.98 -85.3l0.11 -0.12 -3.16 3.48 -3.12 3.4 -3.14 3.4 -2.98 3.16 -2.98 3.18 -2.98 3.11 -2.84 2.95 -2.83 2.92 -2.74 2.82 -2.78 2.83 -2.71 2.74 -2.65 2.68 -5.09 5.1 -5 5 -4.86 4.86 -4.78 4.8 -2.24 2.27 -2.3 2.34 -2.37 2.42 -2.22 2.28 -2.23 2.32 -2.38 2.49 -2.24 2.36 -2.27 2.43 -2.27 2.44 -2.32 2.53 -2.35 2.59 -2.37 2.65 -128.31 -108 3.01 -3.35 2.97 -3.27 2.94 -3.21 2.93 -3.16 2.87 -3.05 2.86 -3.02 2.68 -2.79 2.77 -2.9 2.78 -2.84 2.59 -2.66 2.64 -2.68 2.68 -2.71 5.06 -5.08 4.98 -4.98 4.88 -4.88 4.89 -4.92 2.39 -2.4 2.37 -2.4 2.34 -2.39 2.44 -2.5 2.41 -2.48 2.44 -2.55 2.4 -2.51 2.44 -2.58 2.54 -2.72 2.46 -2.64 2.56 -2.8 2.62 -2.88 0.11 -0.12 127.35 109.04zm0.11 -0.12l-127.57 -108.8c30.92,-34.22 84.56,-37.62 119.77,-7.57 35.22,30.04 38.72,82.16 7.79,116.38zm70.64 -78.48l0.03 -0.02 -2.99 2.89 -2.84 2.77 -2.61 2.58 -2.45 2.46 -2.38 2.44 -2.36 2.43 -2.13 2.22 -2 2.12 -1.9 2.04 -1.96 2.16 -1.84 2.02 -1.76 1.98 -1.84 2.08 -1.67 1.91 -1.77 2.05 -1.8 2.11 -1.81 2.12 -1.81 2.14 -1.77 2.1 -1.91 2.28 -4.02 4.79 -4.22 5 -2.34 2.75 -2.32 2.73 -2.42 2.8 -2.55 2.95 -2.74 3.12 -2.78 3.14 -2.82 3.16 -3.03 3.35 -127.35 -109.04 2.41 -2.69 2.4 -2.68 2.24 -2.52 2.08 -2.38 2.09 -2.41 2.06 -2.4 2.02 -2.35 1.9 -2.23 3.94 -4.68 3.86 -4.59 1.97 -2.36 2.11 -2.5 2.07 -2.44 2.09 -2.46 2.14 -2.49 2.23 -2.59 2.39 -2.75 2.34 -2.64 2.5 -2.82 2.58 -2.84 2.58 -2.82 2.82 -3.04 2.9 -3.08 2.99 -3.12 2.96 -3.05 3.16 -3.22 3.37 -3.38 3.47 -3.44 3.54 -3.45 3.69 -3.57 0.03 -0.02 119.23 117.38zm0.03 -0.02l-119.29 -117.34c33.35,-32 87.09,-31.68 120.03,0.72 32.94,32.4 32.61,84.62 -0.74,116.62zm84.7 -100.17l0.02 -0.02 -2.42 3.03 -2.36 2.98 -2.35 3 -2.27 2.9 -4.67 6 -4.62 5.96 -4.61 5.96 -4.6 5.92 -2.46 3.14 -2.35 3.01 -2.48 3.13 -2.44 3.05 -2.45 3.06 -2.68 3.29 -2.55 3.09 -2.58 3.1 -2.76 3.28 -2.8 3.26 -2.84 3.25 -2.82 3.18 -2.91 3.24 -3.07 3.35 -3.17 3.4 -3.12 3.26 -3.2 3.31 -3.38 3.41 -3.38 3.33 -3.48 3.37 -119.23 -117.38 2.24 -2.17 2.2 -2.19 2.08 -2.09 2.12 -2.19 2.12 -2.22 1.95 -2.08 1.95 -2.13 2.01 -2.24 2.04 -2.3 1.94 -2.23 1.92 -2.24 1.9 -2.24 2.02 -2.44 2.03 -2.45 1.86 -2.29 2.05 -2.56 2.06 -2.57 2 -2.55 2.13 -2.69 2.04 -2.62 4.42 -5.7 4.55 -5.86 4.7 -6.08 4.91 -6.32 2.63 -3.36 2.63 -3.34 2.72 -3.44 2.76 -3.47 0.02 -0.02 134.02 101.23zm0.02 -0.02l-134.06 -101.19c28.75,-35.96 82.09,-42.46 119.1,-14.53 37.02,27.94 43.71,79.76 14.96,115.72zm620.74 -1219.78l0 -0.02 -11.53 42.71 -12.1 42.44 -12.68 42.16 -13.23 41.87 -13.78 41.61 -14.34 41.31 -14.87 41.03 -15.42 40.74 -15.93 40.46 -16.47 40.16 -16.97 39.85 -17.47 39.58 -17.98 39.28 -18.47 38.97 -18.95 38.68 -19.45 38.37 -19.91 38.05 -20.38 37.75 -20.85 37.44 -21.3 37.12 -21.74 36.81 -22.2 36.49 -22.61 36.17 -23.07 35.85 -23.48 35.52 -23.89 35.2 -24.29 34.85 -24.71 34.55 -25.1 34.21 -25.49 33.87 -25.87 33.53 -26.25 33.2 -134.02 -101.23 25.03 -31.66 24.67 -31.97 24.29 -32.27 23.92 -32.59 23.53 -32.91 23.15 -33.21 22.75 -33.52 22.36 -33.82 21.93 -34.11 21.53 -34.43 21.12 -34.71 20.68 -35.01 20.26 -35.3 19.81 -35.6 19.38 -35.89 18.93 -36.17 18.47 -36.45 18.01 -36.74 17.55 -37.03 17.06 -37.28 16.6 -37.58 16.11 -37.86 15.63 -38.13 15.13 -38.39 14.62 -38.67 14.11 -38.94 13.6 -39.2 13.08 -39.46 12.55 -39.73 12.02 -39.98 11.48 -40.24 10.93 -40.49 0 -0.02 164.49 40.76zm0 -0.02l-164.49 -40.72c11.57,-44.13 57.79,-70.79 103.21,-59.55 45.42,11.24 72.86,56.14 61.29,100.27zm91.78 -570.43l0 0 -1.13 18.15 -1.27 18.19 -1.4 18.22 -1.53 18.23 -1.65 18.25 -1.77 18.3 -1.9 18.25 -2.01 18.28 -2.14 18.27 -2.24 18.25 -2.36 18.25 -2.47 18.23 -2.59 18.18 -2.67 18.15 -2.8 18.16 -2.91 18.08 -2.99 18.02 -3.1 17.98 -3.21 17.93 -3.29 17.83 -3.39 17.77 -3.48 17.72 -3.57 17.64 -3.67 17.52 -3.75 17.45 -3.84 17.34 -3.92 17.24 -4.01 17.13 -4.08 17.01 -4.17 16.9 -4.24 16.77 -4.31 16.65 -164.49 -40.76 4.07 -15.67 4 -15.83 3.93 -15.96 3.86 -16.08 3.79 -16.2 3.7 -16.31 3.64 -16.43 3.55 -16.52 3.47 -16.63 3.39 -16.69 3.3 -16.79 3.21 -16.88 3.13 -16.94 3.03 -17 2.94 -17.04 2.85 -17.1 2.75 -17.14 2.64 -17.14 2.55 -17.23 2.45 -17.24 2.33 -17.23 2.24 -17.27 2.12 -17.27 2.02 -17.25 1.89 -17.26 1.8 -17.25 1.67 -17.2 1.55 -17.19 1.43 -17.17 1.32 -17.12 1.19 -17.05 1.07 -17.03 0 0 169.47 9.45zm0 0l-169.47 -9.45c2.68,-45.46 42.8,-80.21 89.59,-77.6 46.79,2.61 82.56,41.59 79.88,87.05zm-182.81 -585.9l164.03 9.46 4.13 -25.84 0.11 3.8 0.24 6.84 0.32 9.4 0.92 25.61 1.21 33.46 0.69 19.25 0.74 20.7 0.77 21.99 0.81 23.07 0.82 24.01 0.84 24.8 0.83 25.39 0.84 25.82 0.81 26.09 0.81 26.16 0.76 26.1 0.73 25.85 0.68 25.44 0.63 24.86 0.55 24.14 0.49 23.2 0.4 22.14 0.32 20.9 0.22 19.56 0.1 18.04 -0.01 16.42 -0.15 14.71 -0.3 12.99 -0.51 11.56 -169.47 -9.45 0.31 -7.26 0.24 -10.41 0.13 -12.95 0.01 -15.16 -0.1 -17.08 -0.22 -18.82 -0.3 -20.36 -0.4 -21.68 -0.47 -22.82 -0.55 -23.78 -0.63 -24.58 -0.66 -25.2 -0.73 -25.63 -0.76 -25.92 -0.79 -26.02 -0.81 -25.93 -0.84 -25.68 -0.83 -25.29 -0.84 -24.68 -0.82 -23.95 -0.79 -23.01 -0.77 -21.89 -0.74 -20.64 -0.69 -19.21 -1.21 -33.46 -0.92 -25.69 -0.34 -9.56 -0.24 -7.18 -0.15 -4.98 4.09 -28.99 164.03 9.46 -166.55 31.89zm164.03 9.46l-161.5 -50.82c14.44,-43.32 62.31,-67.07 106.9,-53.04 44.59,14.03 69.04,60.54 54.6,103.86zm-44.7 716.94l0 -0.01 -1.76 -25.3 -1.93 -24.88 -2.1 -24.48 -2.28 -24.11 -2.44 -23.78 -2.6 -23.46 -2.75 -23.15 -2.92 -22.91 -3.04 -22.67 -3.19 -22.44 -3.32 -22.27 -3.44 -22.09 -3.57 -21.96 -3.7 -21.84 -3.79 -21.76 -3.91 -21.68 -4.01 -21.65 -4.11 -21.63 -4.2 -21.63 -4.29 -21.68 -4.36 -21.74 -4.44 -21.81 -4.51 -21.91 -4.58 -22.03 -4.63 -22.18 -4.69 -22.36 -4.74 -22.57 -4.76 -22.76 -4.81 -22.99 -4.84 -23.27 -4.85 -23.56 -4.87 -23.84 166.55 -31.89 4.81 23.52 4.79 23.28 4.8 23.05 4.77 22.89 4.76 22.7 4.72 22.53 4.71 22.42 4.67 22.34 4.62 22.27 4.57 22.21 4.52 22.19 4.46 22.18 4.39 22.18 4.32 22.25 4.23 22.31 4.15 22.39 4.05 22.5 3.95 22.62 3.84 22.76 3.73 22.96 3.62 23.13 3.48 23.35 3.35 23.6 3.2 23.83 3.06 24.11 2.91 24.45 2.74 24.72 2.58 25.08 2.4 25.45 2.22 25.82 2.03 26.2 1.84 26.64 0 -0.01 -169.41 10.39zm0 -0.01l169.41 -10.37c2.94,45.45 -32.59,84.63 -79.37,87.48 -46.78,2.86 -87.1,-31.66 -90.04,-77.11zm-553.9 1903.51l-4.67 6.33 35.98 -54.83 34.96 -54.83 33.92 -54.84 32.84 -54.89 31.78 -54.98 30.68 -55.08 29.55 -55.22 28.44 -55.39 27.29 -55.6 26.12 -55.84 24.96 -56.12 23.76 -56.41 22.54 -56.74 21.32 -57.12 20.07 -57.52 18.81 -57.97 17.54 -58.44 16.26 -58.95 14.95 -59.48 13.61 -60.08 12.28 -60.7 10.92 -61.34 9.53 -62.03 8.13 -62.76 6.71 -63.53 5.28 -64.32 3.83 -65.17 2.34 -66.04 0.85 -66.95 -0.68 -67.89 -2.23 -68.87 -3.78 -69.9 169.41 -10.39 3.98 73.36 2.33 72.41 0.72 71.49 -0.89 70.59 -2.48 69.72 -4.03 68.89 -5.6 68.06 -7.11 67.27 -8.61 66.52 -10.11 65.78 -11.58 65.07 -13.02 64.37 -14.45 63.73 -15.85 63.09 -17.23 62.48 -18.58 61.9 -19.91 61.35 -21.23 60.84 -22.52 60.34 -23.78 59.86 -25.02 59.43 -26.24 59 -27.44 58.64 -28.6 58.28 -29.74 57.95 -30.87 57.68 -31.98 57.4 -33.04 57.18 -34.1 56.99 -35.14 56.82 -36.14 56.69 -37.14 56.59 -4.67 6.33 -133.24 -102.19zm-4.67 6.33l142.57 89.52c-25.44,38.25 -77.99,49.22 -117.36,24.5 -39.37,-24.72 -50.66,-75.77 -25.22,-114.02zm-149.78 449.9l-5.88 6.5 -127.36 -108.69 287.69 -354.05 133.24 102.19 -287.69 354.05zm-133.24 -102.19l133.24 102.19c-29.04,35.74 -82.43,41.84 -119.21,13.63 -36.79,-28.22 -43.07,-80.08 -14.03,-115.82zm-683.86 570.67l0 0 31.11 -22.13 29.54 -21.05 28.05 -20.02 26.63 -19.08 25.33 -18.21 24.11 -17.45 22.98 -16.74 21.94 -16.12 21.02 -15.6 20.18 -15.14 19.43 -14.77 18.8 -14.5 18.27 -14.29 17.82 -14.17 17.5 -14.17 17.28 -14.22 17.15 -14.38 17.15 -14.63 17.23 -14.97 17.43 -15.41 17.74 -15.94 18.14 -16.53 18.64 -17.24 19.26 -18.02 19.91 -18.86 20.73 -19.85 21.63 -20.89 22.6 -22 23.67 -23.19 24.85 -24.49 26.11 -25.85 27.46 -27.29 121.47 115.2 -27.66 27.49 -26.35 26.09 -25.15 24.79 -24.05 23.57 -23.04 22.42 -22.11 21.35 -21.31 20.41 -20.63 19.54 -19.98 18.7 -19.46 18 -19.06 17.36 -18.7 16.8 -18.49 16.33 -18.33 15.93 -18.27 15.59 -18.29 15.34 -18.42 15.16 -18.6 15.05 -18.92 15.05 -19.27 15.07 -19.74 15.22 -20.31 15.43 -20.94 15.72 -21.7 16.1 -22.54 16.58 -23.48 17.09 -24.51 17.73 -25.65 18.45 -26.89 19.26 -28.23 20.14 -29.64 21.13 -31.19 22.19 0 0 -100.27 -133.08zm0 0l100.27 133.08c-37.82,26.9 -90.94,18.91 -118.63,-17.83 -27.69,-36.75 -19.46,-88.35 18.35,-115.25zm-418.72 160.19l0.02 0 20.44 -0.06 19.15 -0.24 17.95 -0.41 16.77 -0.59 15.6 -0.78 14.5 -0.98 13.54 -1.2 12.58 -1.39 11.69 -1.61 10.96 -1.83 10.28 -2.03 9.7 -2.26 9.27 -2.49 8.97 -2.77 8.86 -3.09 8.8 -3.41 8.9 -3.81 9.08 -4.25 9.42 -4.78 9.88 -5.33 10.32 -5.91 10.87 -6.54 11.49 -7.2 12.14 -7.88 12.89 -8.6 13.64 -9.31 14.48 -10.05 15.34 -10.77 16.27 -11.52 17.24 -12.27 18.29 -13.05 19.38 -13.8 100.27 133.08 -19.26 13.72 -18.31 13.05 -17.46 12.43 -16.69 11.82 -16 11.23 -15.4 10.69 -14.92 10.17 -14.49 9.68 -14.2 9.22 -13.95 8.74 -13.83 8.32 -13.78 7.87 -13.76 7.44 -13.9 7.01 -14.06 6.56 -14.22 6.08 -14.44 5.61 -14.66 5.09 -14.93 4.61 -15.19 4.09 -15.44 3.6 -15.72 3.11 -16.02 2.67 -16.41 2.25 -16.78 1.87 -17.23 1.52 -17.83 1.22 -18.45 0.92 -19.12 0.67 -19.91 0.45 -20.85 0.26 -21.84 0.08 0.02 0 0 -164.93zm0.02 0l-0.04 164.93c-46.87,0 -84.87,-36.94 -84.86,-82.48 0.01,-45.54 38.03,-82.46 84.9,-82.46zm-791.03 108.06l-79.98 -109.15 27.4 0.1 27.41 0.09 27.37 0.09 27.37 0.07 27.34 0.08 27.32 0.07 27.32 0.07 27.27 0.06 54.55 0.1 54.49 0.09 54.44 0.07 54.41 0.06 54.36 0.05 54.34 0.03 54.3 0.03 54.28 0.01 54.28 0.01 54.26 0.01 54.24 0 54.25 0 0 164.93 -54.25 0 -54.26 0 -54.28 -0.01 -54.28 -0.01 -54.3 -0.01 -54.34 -0.03 -54.36 -0.03 -54.42 -0.05 -54.43 -0.06 -54.5 -0.07 -54.53 -0.09 -54.59 -0.1 -27.35 -0.06 -27.34 -0.07 -27.36 -0.07 -27.38 -0.08 -27.39 -0.09 -27.41 -0.09 -27.43 -0.09 -27.46 -0.1 -79.98 -109.15 160.62 53.39zm-79.98 -109.15l-0.66 164.91c-46.87,-0.17 -84.73,-37.24 -84.55,-82.78 0.18,-45.54 38.34,-82.31 85.2,-82.14zm1008.95 -3037.81l0.17 -0.47 160.45 53.86 -1089.59 3093.57 -160.62 -53.39 1089.59 -3093.57zm160.62 53.39l-160.62 -53.39c15.17,-43.08 63.43,-66.06 107.78,-51.32 44.35,14.74 68,61.64 52.83,104.72z"/>
     <path id="_1_3" class="fil4" d="M8076.82 7087.41l42.25 -117.67 185.68 -530.91 777.58 -0.26 207.21 542.87 44.69 114.53c19.77,101.16 85.09,229.66 114.73,332.08 29.35,101.6 -172.28,539.16 -229.78,644.08l-146.97 246.95c-29.03,32.54 2.07,5.6 -27.38,26.73l-329.72 -985.06 -788.81 2343.58c82.41,-34.33 509.18,-344.23 581.84,-411.8 122.69,-114.13 236.88,-201.27 343.88,-321.43 28.9,-32.41 51.43,-51.49 82.5,-85.87 29.67,-32.71 38.35,-47.78 74.8,-82.77 30.84,-29.57 49.46,-57.26 77.33,-92.12 275.41,-344.14 488.73,-744.35 605.53,-1189.57 45.05,-171.61 78.23,-367.42 89.29,-554.79 5.17,-87.49 -15.25,-595.77 -14.8,-597.12 51.56,254.17 102.64,457.88 120.75,737.15 50,769.34 -176.72,1365.64 -571.99,1959.79l-287.69 354.05c-301.39,299.99 -359.34,343.62 -700.34,586.11 -211.83,150.65 -237.01,176.15 -468.86,176.11 -289.34,0 -578.65,0 -871.32,-1.1l1089.59 -3093.57z"/>
    </g>
    <g>
     <path class="fil2" d="M9636.24 5888.53l155.68 -65.59 1.86 4.15 113.65 275.04 -157.54 61.45 -113.65 -275.04zm157.54 -61.45l-157.54 61.45c-17.45,-42.25 3.65,-90.28 47.15,-107.25 43.5,-16.97 92.94,3.55 110.39,45.8zm-726.19 -496.87l97.05 -130.76 23.63 10.52 23.55 11.46 23.46 12.33 23.36 13.17 23.24 13.96 23.15 14.75 22.99 15.47 22.82 16.16 22.67 16.82 22.48 17.47 22.25 18.04 22.01 18.61 21.77 19.15 21.49 19.67 21.18 20.13 20.83 20.57 20.49 20.97 20.11 21.38 19.67 21.7 19.26 22.02 18.79 22.33 18.3 22.58 17.77 22.8 17.24 23.02 16.68 23.21 16.06 23.35 15.42 23.46 14.78 23.57 14.07 23.65 13.35 23.69 12.6 23.74 11.8 23.74 -153.82 69.74 -9.84 -19.78 -10.62 -20 -11.41 -20.23 -12.11 -20.37 -12.82 -20.45 -13.5 -20.54 -14.12 -20.53 -14.72 -20.49 -15.31 -20.42 -15.84 -20.32 -16.35 -20.16 -16.8 -19.95 -17.24 -19.72 -17.65 -19.46 -17.99 -19.12 -18.33 -18.77 -18.63 -18.39 -18.88 -17.95 -19.09 -17.47 -19.29 -16.98 -19.45 -16.44 -19.53 -15.87 -19.6 -15.22 -19.63 -14.58 -19.64 -13.9 -19.55 -13.17 -19.45 -12.39 -19.3 -11.6 -19.1 -10.77 -18.86 -9.91 -18.55 -9.02 -18.19 -8.1 97.05 -130.76 -126.13 110.4zm97.05 -130.76l-67.98 151.13c-42.94,-18.23 -62.54,-66.86 -43.78,-108.58 18.76,-41.72 68.82,-60.78 111.76,-42.54zm552.1 1013.14l-128.82 62.07 2.16 -31.9 -0.01 -32.28 -2.11 -32.68 -4.14 -33.02 -6.09 -33.37 -7.97 -33.63 -9.78 -33.84 -11.47 -34 -13.08 -34.03 -14.57 -34.03 -15.97 -33.95 -17.23 -33.79 -18.39 -33.56 -19.42 -33.26 -20.33 -32.9 -21.11 -32.45 -21.77 -31.95 -22.3 -31.39 -22.71 -30.77 -22.99 -30.08 -23.12 -29.33 -23.15 -28.52 -23.03 -27.68 -22.8 -26.77 -22.43 -25.8 -21.94 -24.76 -21.34 -23.72 -20.58 -22.59 -19.73 -21.42 -18.76 -20.23 -17.68 -19 -16.48 -17.71 126.13 -110.4 16.3 17.55 17.74 19.06 19.06 20.55 20.23 21.96 21.24 23.31 22.12 24.58 22.88 25.84 23.47 27 23.98 28.13 24.31 29.21 24.53 30.24 24.62 31.23 24.57 32.16 24.41 33.07 24.1 33.93 23.67 34.73 23.11 35.53 22.41 36.26 21.58 36.96 20.61 37.64 19.51 38.27 18.28 38.89 16.91 39.47 15.36 40.02 13.69 40.53 11.84 41.03 9.83 41.5 7.65 41.9 5.3 42.31 2.73 42.61 0.01 42.85 -2.92 42.97 -128.82 62.07 88.72 -140.6zm-128.82 62.07l168.91 16.47c-4.68,45.31 -46.29,78.36 -92.93,73.81 -46.64,-4.55 -80.66,-44.97 -75.98,-90.28zm-312.74 -473.7l0.01 0 39.93 23.39 37.28 22.75 34.75 22.14 32.29 21.53 29.98 20.94 27.77 20.38 25.67 19.82 23.66 19.28 21.76 18.72 19.96 18.21 18.27 17.7 16.68 17.19 15.15 16.66 13.75 16.15 12.4 15.6 11.15 15.03 9.98 14.4 8.9 13.73 7.87 12.97 6.97 12.14 6.14 11.26 5.35 10.16 4.67 9.01 4.04 7.77 3.4 6.33 2.74 4.83 2.03 3.27 1.27 1.81 0.36 0.49 -0.48 -0.46 -1.04 -0.85 -1.09 -0.72 -88.72 140.6 -13.54 -9.03 -12.23 -10.16 -10.63 -10.75 -8.95 -10.82 -7.46 -10.5 -6.34 -10.1 -5.48 -9.58 -4.9 -9.13 -4.56 -8.77 -4.47 -8.61 -4.53 -8.6 -4.69 -8.6 -5.08 -8.84 -5.58 -9.19 -6.2 -9.57 -6.98 -10.1 -7.91 -10.65 -8.96 -11.28 -10.17 -11.95 -11.53 -12.68 -12.98 -13.4 -14.6 -14.13 -16.35 -14.92 -18.18 -15.67 -20.18 -16.45 -22.29 -17.2 -24.51 -17.98 -26.85 -18.76 -29.29 -19.53 -31.87 -20.3 -34.54 -21.09 -37.34 -21.85 0.01 0 86.3 -142.01zm0.01 0l-86.32 142.01c-40.35,-23.15 -53.75,-73.72 -29.92,-112.94 23.83,-39.22 75.89,-52.22 116.25,-29.07zm-872.96 -774.44l-0.01 -0.04 15.1 38.7 16.05 36.92 16.97 35.25 17.86 33.67 18.73 32.21 19.59 30.8 20.43 29.51 21.27 28.31 22.09 27.2 22.91 26.15 23.71 25.22 24.51 24.32 25.33 23.53 26.1 22.81 26.87 22.13 27.65 21.55 28.38 21.02 29.12 20.55 29.82 20.15 30.52 19.8 31.19 19.54 31.82 19.31 32.44 19.17 33.02 19.08 33.59 19.06 34.09 19.11 34.6 19.22 35.07 19.4 35.47 19.65 35.88 19.96 36.24 20.36 36.54 20.79 -86.3 142.01 -35.62 -20.27 -35.52 -19.94 -35.44 -19.72 -35.31 -19.55 -35.15 -19.46 -35 -19.44 -34.79 -19.49 -34.55 -19.62 -34.32 -19.82 -34.02 -20.11 -33.72 -20.47 -33.35 -20.9 -32.98 -21.4 -32.58 -22.01 -32.12 -22.67 -31.62 -23.42 -31.08 -24.23 -30.52 -25.15 -29.87 -26.11 -29.2 -27.15 -28.5 -28.3 -27.71 -29.45 -26.89 -30.7 -26.01 -32.01 -25.07 -33.38 -24.09 -34.79 -23.05 -36.26 -21.99 -37.77 -20.86 -39.35 -19.7 -40.94 -18.52 -42.61 -17.29 -44.31 -0.01 -0.04 159.82 -55.59zm-0.01 -0.04l-159.8 55.67c-15.82,-42.86 7.13,-90.09 51.25,-105.46 44.12,-15.37 92.73,6.92 108.54,49.79zm-64.3 -336.23l0 -0.04 0.91 11.86 0.97 11.74 1.02 11.67 1.08 11.57 1.13 11.46 1.2 11.39 1.25 11.28 1.33 11.2 1.38 11.13 1.45 10.98 1.53 10.94 1.59 10.84 1.68 10.76 1.73 10.66 1.82 10.56 1.9 10.52 1.98 10.43 2.05 10.31 2.15 10.26 2.23 10.19 2.31 10.11 2.4 10.01 2.49 9.94 2.59 9.91 2.67 9.8 2.77 9.71 2.88 9.68 2.97 9.61 3.06 9.51 3.18 9.48 3.28 9.42 3.39 9.36 -159.82 55.59 -4.05 -11.2 -3.92 -11.24 -3.78 -11.28 -3.66 -11.35 -3.51 -11.37 -3.38 -11.38 -3.27 -11.49 -3.13 -11.48 -3.01 -11.49 -2.91 -11.58 -2.78 -11.63 -2.67 -11.65 -2.55 -11.67 -2.45 -11.74 -2.35 -11.79 -2.24 -11.83 -2.14 -11.84 -2.06 -11.94 -1.95 -11.96 -1.86 -12 -1.77 -12.06 -1.69 -12.08 -1.61 -12.2 -1.52 -12.17 -1.45 -12.26 -1.37 -12.32 -1.3 -12.35 -1.23 -12.42 -1.16 -12.47 -1.1 -12.53 -1.03 -12.6 -0.97 -12.64 0 -0.04 169.31 -11.83zm0 -0.04l-169.31 11.91c-3.38,-45.42 31.78,-84.92 78.53,-88.2 46.75,-3.29 87.4,30.87 90.78,76.29zm-3.15 -188.54l0 0 -0.33 5.85 -0.28 5.82 -0.25 5.96 -0.24 5.88 -0.18 5.84 -0.16 5.95 -0.13 5.96 -0.11 5.95 -0.07 5.89 -0.04 5.94 -0.02 6 0.01 5.94 0.04 5.92 0.07 5.92 0.09 5.97 0.11 5.95 0.15 5.93 0.16 5.99 0.18 5.9 0.21 5.9 0.23 5.93 0.25 5.92 0.26 5.89 0.29 5.87 0.31 5.84 0.32 5.88 0.34 5.8 0.36 5.75 0.38 5.86 0.39 5.77 0.4 5.75 0.41 5.71 -169.31 11.83 -0.45 -6.15 -0.44 -6.19 -0.41 -6.21 -0.4 -6.18 -0.4 -6.33 -0.36 -6.36 -0.36 -6.3 -0.33 -6.4 -0.31 -6.41 -0.3 -6.43 -0.27 -6.46 -0.25 -6.47 -0.23 -6.54 -0.2 -6.56 -0.18 -6.51 -0.15 -6.59 -0.13 -6.59 -0.11 -6.61 -0.07 -6.68 -0.04 -6.68 -0.01 -6.7 0.02 -6.64 0.04 -6.7 0.09 -6.77 0.11 -6.71 0.15 -6.72 0.18 -6.71 0.22 -6.84 0.26 -6.78 0.29 -6.7 0.34 -6.84 0.37 -6.79 0 0 169.49 9.27zm0 0l-169.49 -9.27c2.63,-45.46 42.71,-80.25 89.51,-77.69 46.8,2.56 82.61,41.5 79.98,86.96zm6.94 -101.27l0 -0.04 -0.46 6.52 -0.47 6.56 -0.47 6.63 -0.48 6.69 -0.48 6.67 -0.48 6.62 -0.47 6.63 -0.47 6.6 -0.45 6.51 -0.44 6.38 -0.43 6.29 -0.42 6.26 -0.4 6 -0.36 5.81 -0.35 5.63 -0.32 5.46 -169.49 -9.27 0.34 -5.81 0.37 -6 0.4 -6.19 0.42 -6.28 0.42 -6.3 0.43 -6.49 0.46 -6.6 0.47 -6.63 0.47 -6.64 0.47 -6.71 0.48 -6.72 0.48 -6.69 0.48 -6.63 0.47 -6.59 0.47 -6.56 0.46 -6.44 0 -0.04 169.35 11.39zm0 -0.04l-169.35 -11.31c3.21,-45.43 43.73,-79.73 90.49,-76.61 46.76,3.12 82.07,42.49 78.86,87.92zm-140.62 -77.57l148.05 31.47 -0.57 0.7 -0.42 0.55 -0.29 0.42 -0.28 0.42 -0.25 0.41 -0.26 0.46 -0.15 0.26 -0.13 0.28 -0.19 0.42 -0.13 0.33 -0.15 0.4 -0.17 0.49 -0.21 0.69 -0.21 0.73 -0.21 0.82 -0.24 1.05 -0.24 1.15 -0.24 1.29 -0.23 1.43 -0.22 1.47 -0.23 1.78 -0.24 2.1 -0.23 2.14 -0.21 2.17 -0.21 2.49 -0.21 2.65 -0.2 2.7 -0.2 2.96 -0.44 6.51 -0.48 6.89 -169.35 -11.39 0.44 -6.43 0.44 -6.47 0.24 -3.42 0.26 -3.6 0.29 -3.57 0.31 -3.67 0.37 -3.91 0.41 -3.88 0.46 -3.86 0.53 -4.12 0.64 -4.37 0.73 -4.35 0.82 -4.43 0.94 -4.55 1.06 -4.59 1.21 -4.76 1.37 -4.83 1.51 -4.83 1.71 -4.99 1.91 -5.06 2.11 -5.09 2.25 -4.98 2.49 -5.1 2.71 -5.1 2.8 -4.88 3.03 -4.91 3.24 -4.9 3.49 -4.9 3.62 -4.75 3.73 -4.6 148.05 31.47 -164.39 41.1zm148.05 31.47l-131.7 -104.05c29.57,-35.33 83.04,-40.68 119.4,-11.96 36.37,28.72 41.87,80.68 12.3,116.01zm1558.28 1747.88l-163.65 30.94 -4.05 -115.28 -11.09 -106.28 -17.6 -97.83 -23.6 -89.95 -29.07 -82.66 -34.13 -75.98 -38.76 -69.93 -43.06 -64.45 -47.03 -59.58 -50.72 -55.19 -54.08 -51.29 -57.14 -47.83 -59.84 -44.77 -62.17 -42.09 -64.08 -39.82 -65.6 -37.92 -66.66 -36.45 -67.31 -35.36 -67.51 -34.74 -67.25 -34.53 -66.59 -34.82 -65.48 -35.58 -63.92 -36.87 -61.93 -38.71 -59.47 -41.1 -56.49 -44.11 -52.93 -47.74 -48.69 -51.94 -43.7 -56.65 -37.85 -61.72 -31.17 -66.96 -23.71 -72.17 164.39 -41.1 17.83 54.24 23.18 49.74 28.34 46.17 33.45 43.28 38.46 40.97 43.32 39.03 47.92 37.4 52.19 36.05 56.07 35.01 59.45 34.27 62.38 33.9 64.81 33.88 66.77 34.29 68.23 35.1 69.21 36.38 69.7 38.11 69.72 40.31 69.22 43.02 68.24 46.23 66.71 49.95 64.67 54.14 62.04 58.87 58.79 64.02 54.94 69.61 50.46 75.58 45.37 81.86 39.7 88.45 33.53 95.31 26.86 102.44 19.78 109.9 12.29 117.67 4.41 125.79 -163.65 30.94 157.54 -61.45zm-163.65 30.94l169.75 -0.44c0.12,45.54 -37.78,82.57 -84.65,82.69 -46.87,0.12 -84.99,-36.71 -85.1,-82.25z"/>
     <path id="_1_4" class="fil5" d="M9828.66 6132.84l-113.65 -275.04c-111.13,-231.37 -362.13,-488.45 -584.35,-582.8 167.28,180.39 582.87,609.39 541.73,1007.87 -70.18,-41.8 -13.31,-165.89 -440.35,-410.93 -385.78,-221.31 -742.83,-365.5 -909.71,-817.65 -40.32,-109.41 -59.3,-227.08 -69.06,-358.15 -4.68,-63.16 -7.14,-131.69 -3.24,-199.13 1.71,-29.48 4.59,-68 7.01,-102.33 2.57,-36.04 2.61,-64.21 26.26,-92.47 185.86,701.73 1541.67,497.71 1545.36,1830.63z"/>
    </g>
    <g>
     <path class="fil2" d="M9486.96 9373.65l0 0 -4.68 5.91 -4.15 5.31 -3.54 4.58 -2.84 3.78 -2.13 2.95 -1.46 2.15 -0.8 1.27 -0.11 0.17 0.44 -0.91 0.68 -1.69 0.79 -2.5 0.73 -3.17 0.44 -3.15 0.16 -2.81 -0.05 -2.1 -0.08 -0.94 0.01 0.05 0.24 1.11 0.6 2.35 0.99 3.43 1.36 4.37 1.74 5.3 2.13 6.22 2.48 7.08 2.8 7.92 3.12 8.79 3.41 9.67 3.68 10.56 3.92 11.44 4.16 12.38 4.37 13.3 4.59 14.28 -162.26 48.5 -4.23 -13.18 -4.03 -12.26 -3.84 -11.4 -3.64 -10.62 -3.44 -9.88 -3.27 -9.27 -3.08 -8.71 -2.92 -8.24 -2.74 -7.86 -2.59 -7.56 -2.46 -7.45 -2.3 -7.4 -2.13 -7.48 -1.98 -7.8 -1.76 -8.36 -1.39 -8.82 -0.9 -9.33 -0.27 -10.09 0.58 -10.5 1.48 -10.62 2.43 -10.52 3.15 -9.81 3.7 -9.1 4.14 -8.46 4.31 -7.64 4.32 -6.88 4.38 -6.46 4.45 -6.18 4.5 -5.99 4.56 -5.89 4.71 -6 4.98 -6.29 0 0 134.56 100.53zm0 0l-134.56 -100.53c28.56,-36.1 81.86,-42.86 119.02,-15.11 37.16,27.76 44.11,79.54 15.55,115.64zm122.91 -173.06l0.01 -0.01 -3.53 4.79 -3.52 4.84 -3.55 4.94 -3.56 4.99 -3.57 5.05 -3.62 5.16 -3.57 5.1 -3.62 5.24 -3.66 5.3 -3.64 5.31 -3.69 5.38 -3.65 5.34 -7.46 10.96 -7.49 10.97 -3.81 5.57 -3.85 5.62 -3.85 5.59 -3.89 5.61 -3.88 5.57 -3.96 5.66 -4 5.66 -3.99 5.61 -4.07 5.67 -4.1 5.64 -4.12 5.63 -4.16 5.6 -4.2 5.61 -4.33 5.67 -4.32 5.58 -4.35 5.53 -134.56 -100.53 3.59 -4.59 3.6 -4.64 3.53 -4.64 3.6 -4.79 3.62 -4.88 3.62 -4.93 3.6 -4.96 3.59 -5.01 3.65 -5.13 3.62 -5.12 3.62 -5.18 3.68 -5.29 3.65 -5.27 3.67 -5.33 3.67 -5.32 3.67 -5.39 7.45 -10.91 7.44 -10.92 3.81 -5.58 3.77 -5.5 3.82 -5.57 3.82 -5.52 3.84 -5.56 3.93 -5.64 3.88 -5.52 3.93 -5.57 3.98 -5.57 3.99 -5.54 4.06 -5.58 4.07 -5.53 0.01 -0.01 137.78 96.34zm0.01 -0.01l-137.8 -96.32c27.37,-36.97 80.42,-45.38 118.47,-18.78 38.05,26.6 46.7,78.13 19.33,115.1zm175.22 -569.22l144.11 27.81 5.66 -7.13 -0.84 1.38 -2.87 4.85 -4.11 7.18 -5.1 9.07 -5.98 10.82 -6.81 12.39 -7.55 13.79 -8.26 15.11 -8.89 16.27 -9.49 17.35 -10.04 18.33 -10.57 19.22 -11.03 19.97 -11.45 20.66 -11.85 21.25 -12.19 21.72 -12.49 22.11 -12.77 22.4 -12.98 22.58 -13.16 22.67 -13.31 22.67 -13.41 22.59 -13.49 22.39 -13.5 22.1 -13.52 21.77 -13.49 21.28 -13.39 20.72 -13.32 20.12 -13.19 19.4 -13.06 18.63 -12.9 17.74 -137.78 -96.34 11.16 -15.37 11.58 -16.52 11.95 -17.58 12.26 -18.52 12.51 -19.36 12.69 -20.04 12.82 -20.63 12.92 -21.14 12.95 -21.51 12.95 -21.79 12.89 -21.97 12.8 -22.05 12.66 -22 12.45 -21.86 12.23 -21.65 11.97 -21.32 11.63 -20.87 11.29 -20.36 10.89 -19.73 10.45 -19 9.96 -18.17 9.45 -17.27 8.89 -16.27 8.28 -15.15 7.65 -13.99 6.99 -12.69 6.3 -11.4 5.66 -10.07 4.97 -8.68 4.47 -7.56 4.66 -7.37 9.25 -12.01 144.11 27.81 -160.68 53.23zm144.11 27.81l-127.55 -108.84c30.93,-34.21 84.57,-37.59 119.78,-7.53 35.22,30.05 38.7,82.17 7.76,116.38zm570.22 1496.35l-80.35 109.08 -80.33 -55.85 -553.65 -1577.39 160.68 -53.23 553.65 1577.39zm-160.68 53.23l160.68 -53.23c15.13,43.1 -8.58,89.97 -52.94,104.67 -44.36,14.7 -92.61,-8.33 -107.73,-51.43zm-695.42 55.8l-80.9 -57.54 80.92 -107.4 775.75 0.05 -0.02 164.93 -775.75 -0.05zm0.02 -164.93l-0.02 164.93c-46.87,0 -84.87,-36.94 -84.87,-82.48 0,-45.54 38.02,-82.46 84.89,-82.46zm-295.45 -549.7l-0.22 -0.68 162.04 -49.18 214.53 657.09 -161.82 49.86 -214.53 -657.09zm161.82 -49.86l-161.82 49.86c-14.17,-43.4 10.56,-89.77 55.24,-103.53 44.68,-13.76 92.41,10.27 106.58,53.67z"/>
     <path id="_1_5" class="fil5" d="M9428.81 9525c-48.02,-151.65 -62.71,-133.91 -9.13,-201.61 42.49,-53.68 80.75,-116.19 121.3,-170.96 126.55,-170.82 310.52,-532.26 324.45,-547.68l553.65 1577.39 -775.75 -0.05 -214.53 -657.09z"/>
    </g>
   </g>
  </g>
 </g>
</svg>
